AcariSans-ExtraLightItalic.ufo
<glyph name="exclam" format="2">
  <advance width="654"/>
  <unicode hex="0021"/>
  <outline>
    <contour>
      <point x="335.552" y="370.176" type="line"/>
      <point x="620.032" y="1469.63" type="line"/>
      <point x="479.04" y="1469.63" type="line"/>
      <point x="252.928" y="370.176" type="line"/>
    </contour>
    <contour>
      <point x="292.992" y="0" type="line"/>
      <point x="331.52" y="164.544" type="line"/>
      <point x="164.928" y="164.544" type="line"/>
      <point x="127.616" y="0" type="line"/>
    </contour>
  </outline>
</glyph>
<glyph name="quotedbl" format="2">
  <advance width="726"/>
  <unicode hex="0022"/>
  <outline>
    <contour>
      <point x="292.125" y="1062.56" type="line"/>
      <point x="395.25" y="1062.56" type="line"/>
      <point x="483.875" y="1448" type="line"/>
      <point x="380.563" y="1448" type="line"/>
    </contour>
    <contour>
      <point x="585.188" y="1062.56" type="line"/>
      <point x="688.312" y="1062.56" type="line"/>
      <point x="776.938" y="1448" type="line"/>
      <point x="673.625" y="1448" type="line"/>
    </contour>
  </outline>
</glyph>
<glyph name="numbersign" format="2">
  <advance width="1409"/>
  <unicode hex="0023"/>
  <outline>
    <contour>
      <point x="707.648" y="0" type="line"/>
      <point x="911.296" y="469.248" type="line"/>
      <point x="1184.19" y="469.248" type="line"/>
      <point x="1203.9" y="546.56" type="line"/>
      <point x="946.368" y="546.56" type="line"/>
      <point x="1110.34" y="923.072" type="line"/>
      <point x="1373.82" y="923.072" type="line"/>
      <point x="1393.92" y="1006.78" type="line"/>
      <point x="1145.6" y="1006.78" type="line"/>
      <point x="1346.24" y="1468.42" type="line"/>
      <point x="1257.02" y="1468.42" type="line"/>
      <point x="1058.56" y="1019.71" type="line"/>
      <point x="697.216" y="1019.71" type="line"/>
      <point x="896.512" y="1468.42" type="line"/>
      <point x="806.08" y="1468.42" type="line"/>
      <point x="601.6" y="1001.6" type="line"/>
      <point x="326.272" y="1001.6" type="line"/>
      <point x="307.776" y="923.072" type="line"/>
      <point x="566.72" y="923.072" type="line"/>
      <point x="403.776" y="546.56" type="line"/>
      <point x="138.048" y="546.56" type="line"/>
      <point x="117.952" y="460.416" type="line"/>
      <point x="366.08" y="460.416" type="line"/>
      <point x="167.296" y="0" type="line"/>
      <point x="257.92" y="0" type="line"/>
      <point x="453.696" y="447.68" type="line"/>
      <point x="814.656" y="447.68" type="line"/>
      <point x="616.832" y="0" type="line"/>
    </contour>
    <contour>
      <point x="855.552" y="546.56" type="line"/>
      <point x="494.592" y="546.56" type="line"/>
      <point x="658.56" y="923.072" type="line"/>
      <point x="1018.3" y="923.072" type="line"/>
    </contour>
  </outline>
</glyph>
<glyph name="dollar" format="2">
  <advance width="1229"/>
  <unicode hex="0024"/>
  <outline>
    <contour>
      <point x="439.104" y="-253.12" type="line"/>
      <point x="499.52" y="-14.784" type="line"/>
      <point x="813.888" y="-21.12"/>
      <point x="1012.16" y="108.672"/>
      <point x="1012.16" y="412.16" type="curve" smooth="yes"/>
      <point x="1012.16" y="831.488"/>
      <point x="465.856" y="708.8"/>
      <point x="465.856" y="1085.38" type="curve" smooth="yes"/>
      <point x="465.856" y="1262.98"/>
      <point x="605.312" y="1362.3"/>
      <point x="794.88" y="1362.3" type="curve" smooth="yes"/>
      <point x="905.984" y="1362.3"/>
      <point x="1011.84" y="1285.06"/>
      <point x="1040.9" y="1185.47" type="curve"/>
      <point x="1137.92" y="1239.23" type="line"/>
      <point x="1098.11" y="1362.05"/>
      <point x="971.2" y="1456.77"/>
      <point x="829.44" y="1465.54" type="curve"/>
      <point x="889.664" y="1698.82" type="line"/>
      <point x="824.896" y="1698.82" type="line"/>
      <point x="763.264" y="1464.32" type="line"/>
      <point x="517.248" y="1461.76"/>
      <point x="345.215" y="1305.6"/>
      <point x="345.215" y="1072.9" type="curve" smooth="yes"/>
      <point x="345.215" y="647.808"/>
      <point x="894.592" y="779.2"/>
      <point x="894.592" y="398.08" type="curve" smooth="yes"/>
      <point x="894.592" y="173.248"/>
      <point x="746.048" y="98.112"/>
      <point x="494.336" y="98.112" type="curve" smooth="yes"/>
      <point x="311.936" y="98.112"/>
      <point x="201.216" y="192.64"/>
      <point x="201.216" y="349.376" type="curve" smooth="yes"/>
      <point x="201.216" y="366.08"/>
      <point x="202.24" y="380.8"/>
      <point x="204.48" y="396.928" type="curve"/>
      <point x="85.888" y="371.648" type="line"/>
      <point x="85.888" y="364.416" type="line" smooth="yes"/>
      <point x="85.888" y="141.248"/>
      <point x="240.256" y="14.272"/>
      <point x="433.152" y="-12.672" type="curve"/>
      <point x="373.12" y="-253.12" type="line"/>
    </contour>
  </outline>
</glyph>
<glyph name="ampersand" format="2">
  <advance width="1400"/>
  <unicode hex="0026"/>
  <outline>
    <contour>
      <point x="1089.92" y="-46.208" type="line"/>
      <point x="1164.03" y="10.56" type="line"/>
      <point x="1001.28" y="275.072" type="line"/>
      <point x="1086.53" y="383.872"/>
      <point x="1158.72" y="523.136"/>
      <point x="1215.42" y="687.616" type="curve"/>
      <point x="1132.54" y="708.16" type="line"/>
      <point x="1082.11" y="563.712"/>
      <point x="1025.47" y="450.112"/>
      <point x="954.304" y="353.536" type="curve"/>
      <point x="704.128" y="757.888" type="line"/>
      <point x="962.944" y="904"/>
      <point x="1103.17" y="1064"/>
      <point x="1103.17" y="1212.86" type="curve" smooth="yes"/>
      <point x="1103.17" y="1369.86"/>
      <point x="1011.39" y="1464.32"/>
      <point x="858.624" y="1464.32" type="curve" smooth="yes"/>
      <point x="649.856" y="1464.32"/>
      <point x="468.672" y="1304.13"/>
      <point x="468.672" y="1120.26" type="curve" smooth="yes"/>
      <point x="468.672" y="1031.36"/>
      <point x="504.064" y="936.448"/>
      <point x="590.912" y="788.16" type="curve"/>
      <point x="262.08" y="602.304"/>
      <point x="98.24" y="441.664"/>
      <point x="98.24" y="260.864" type="curve" smooth="yes"/>
      <point x="98.24" y="95.616"/>
      <point x="222.72" y="-21.12"/>
      <point x="399.808" y="-21.12" type="curve" smooth="yes"/>
      <point x="593.6" y="-21.12"/>
      <point x="790.656" y="76.736"/>
      <point x="939.52" y="200.448" type="curve"/>
    </contour>
    <contour>
      <point x="659.264" y="829.952" type="curve"/>
      <point x="586.88" y="947.008"/>
      <point x="549.568" y="1041.86"/>
      <point x="549.568" y="1108.61" type="curve" smooth="yes"/>
      <point x="549.568" y="1245.63"/>
      <point x="697.024" y="1369.66"/>
      <point x="860.096" y="1369.66" type="curve" smooth="yes"/>
      <point x="956.288" y="1369.66"/>
      <point x="1029.89" y="1302.02"/>
      <point x="1029.89" y="1214.66" type="curve" smooth="yes"/>
      <point x="1029.89" y="1100.03"/>
      <point x="901.696" y="967.552"/>
    </contour>
    <contour>
      <point x="414.784" y="57.088" type="curve" smooth="yes"/>
      <point x="283.2" y="57.088"/>
      <point x="186.88" y="146.688"/>
      <point x="186.88" y="268.544" type="curve" smooth="yes"/>
      <point x="186.88" y="418.304"/>
      <point x="329.28" y="545.856"/>
      <point x="625.024" y="711.04" type="curve"/>
      <point x="893.12" y="276.672" type="line"/>
      <point x="767.808" y="169.408"/>
      <point x="597.184" y="57.088"/>
    </contour>
  </outline>
</glyph>
<glyph name="quotesingle" format="2">
  <advance width="629"/>
  <unicode hex="0027"/>
  <outline>
    <contour>
      <point x="499.84" y="1091.58" type="line"/>
      <point x="588.928" y="1476.61" type="line"/>
      <point x="486.016" y="1476.61" type="line"/>
      <point x="396.928" y="1091.58" type="line"/>
    </contour>
  </outline>
</glyph>
<glyph name="parenleft" format="2">
  <advance width="580"/>
  <unicode hex="0028"/>
  <outline>
    <contour>
      <point x="258.24" y="451.584" type="curve" smooth="yes"/>
      <point x="258.24" y="803.968"/>
      <point x="452.736" y="1197.72"/>
      <point x="694.592" y="1447.49" type="curve"/>
      <point x="600.384" y="1447.49" type="line"/>
      <point x="345.152" y="1189.79"/>
      <point x="175.04" y="849.472"/>
      <point x="175.04" y="480.384" type="curve" smooth="yes"/>
      <point x="175.04" y="339.456"/>
      <point x="201.792" y="130.972"/>
      <point x="279.68" y="10.304" type="curve"/>
      <point x="356.608" y="10.304" type="line"/>
      <point x="283.392" y="146.653"/>
      <point x="258.24" y="294.528"/>
    </contour>
  </outline>
</glyph>
<glyph name="parenright" format="2">
  <advance width="582"/>
  <unicode hex="0029"/>
  <outline>
    <contour>
      <point x="417.856" y="974.144" type="curve" smooth="yes"/>
      <point x="417.856" y="629.568"/>
      <point x="219.392" y="250.304"/>
      <point x="-13.76" y="10.304" type="curve"/>
      <point x="75.904" y="10.304" type="line"/>
      <point x="335.232" y="242.112"/>
      <point x="508.672" y="639.296"/>
      <point x="508.672" y="981.504" type="curve" smooth="yes"/>
      <point x="508.672" y="1133.18"/>
      <point x="482.368" y="1306.94"/>
      <point x="397.12" y="1447.49" type="curve"/>
      <point x="321.344" y="1447.49" type="line"/>
      <point x="388.864" y="1301.95"/>
      <point x="417.856" y="1132.16"/>
    </contour>
  </outline>
</glyph>
<glyph name="asterisk" format="2">
  <advance width="890"/>
  <unicode hex="002A"/>
  <outline>
    <contour>
      <point x="402.313" y="880.125" type="line"/>
      <point x="589.25" y="1129.94" type="line"/>
      <point x="665.125" y="881.313" type="line"/>
      <point x="736.875" y="933.063" type="line"/>
      <point x="600.188" y="1152.88" type="line"/>
      <point x="879.188" y="1199.31" type="line"/>
      <point x="874" y="1285.81" type="line"/>
      <point x="601.438" y="1174.5" type="line"/>
      <point x="697.25" y="1447" type="line"/>
      <point x="621.75" y="1447" type="line"/>
      <point x="590.875" y="1174.5" type="line"/>
      <point x="369.125" y="1285.81" type="line"/>
      <point x="323.75" y="1199.31" type="line"/>
      <point x="579.813" y="1152.88" type="line"/>
      <point x="345.813" y="931.875" type="line"/>
    </contour>
  </outline>
</glyph>
<glyph name="plus" format="2">
  <advance width="1319"/>
  <unicode hex="002B"/>
  <outline>
    <contour>
      <point x="700.375" y="109" type="line"/>
      <point x="700.375" y="600.813" type="line"/>
      <point x="1169.56" y="600.813" type="line"/>
      <point x="1169.56" y="681.75" type="line"/>
      <point x="700.375" y="681.75" type="line"/>
      <point x="700.375" y="1168.81" type="line"/>
      <point x="616.875" y="1168.81" type="line"/>
      <point x="616.875" y="681.75" type="line"/>
      <point x="148.875" y="681.75" type="line"/>
      <point x="148.875" y="600.813" type="line"/>
      <point x="616.875" y="600.813" type="line"/>
      <point x="616.875" y="109" type="line"/>
    </contour>
  </outline>
</glyph>
<glyph name="comma" format="2">
  <advance width="614"/>
  <unicode hex="002C"/>
  <outline>
    <contour>
      <point x="45.578" y="-231.616" type="line"/>
      <point x="361.034" y="266.688" type="line"/>
      <point x="202.762" y="266.688" type="line"/>
      <point x="-17.782" y="-231.616" type="line"/>
    </contour>
  </outline>
</glyph>
<glyph name="hyphen" format="2">
  <advance width="882"/>
  <unicode hex="002D"/>
  <outline>
    <contour>
      <point x="706.935" y="598.384" type="line"/>
      <point x="728.139" y="688.943" type="line"/>
      <point x="235.915" y="688.943" type="line"/>
      <point x="214.519" y="598.384" type="line"/>
    </contour>
  </outline>
  <guideline angle="256.921" x="228" y="689"/>
  <guideline angle="76.9209" x="714" y="590"/>
  <guideline angle="0" x="0" y="590"/>
  <guideline angle="0" x="0" y="696"/>
</glyph>
<glyph name="period" format="2">
  <advance width="614"/>
  <unicode hex="002E"/>
  <outline>
    <contour>
      <point x="299.456" y="0" type="line"/>
      <point x="337.984" y="164.544" type="line"/>
      <point x="159.04" y="164.544" type="line"/>
      <point x="119.296" y="0" type="line"/>
    </contour>
  </outline>
</glyph>
<glyph name="slash" format="2">
  <advance width="963"/>
  <unicode hex="002F"/>
  <outline>
    <contour>
      <point x="-54.875" y="-441.188" type="line"/>
      <point x="1163.38" y="1552" type="line"/>
      <point x="1041.94" y="1552" type="line"/>
      <point x="-181.625" y="-441.188" type="line"/>
    </contour>
  </outline>
</glyph>
<glyph name="zero" format="2">
  <advance width="1229"/>
  <unicode hex="0030"/>
  <outline>
    <contour>
      <point x="446.688" y="-20" type="curve" smooth="yes"/>
      <point x="885.438" y="-20"/>
      <point x="1150.5" y="602.5"/>
      <point x="1150.5" y="963.25" type="curve" smooth="yes"/>
      <point x="1150.5" y="1203.19"/>
      <point x="1071" y="1470"/>
      <point x="776.125" y="1470" type="curve" smooth="yes"/>
      <point x="338.625" y="1470"/>
      <point x="68.125" y="858.25"/>
      <point x="68.125" y="483.813" type="curve" smooth="yes"/>
      <point x="68.125" y="231.563"/>
      <point x="138.063" y="-20"/>
    </contour>
    <contour>
      <point x="463.938" y="78.75" type="curve" smooth="yes"/>
      <point x="234.5" y="78.75"/>
      <point x="180.5" y="275.938"/>
      <point x="180.5" y="468.938" type="curve" smooth="yes"/>
      <point x="180.5" y="776.813"/>
      <point x="369.063" y="1365.06"/>
      <point x="752.5" y="1365.06" type="curve" smooth="yes"/>
      <point x="969" y="1365.06"/>
      <point x="1026.31" y="1166.81"/>
      <point x="1026.31" y="985" type="curve" smooth="yes"/>
      <point x="1026.31" y="685.25"/>
      <point x="837.625" y="78.75"/>
    </contour>
  </outline>
</glyph>
<glyph name="one" format="2">
  <advance width="1229"/>
  <unicode hex="0031"/>
  <outline>
    <contour>
      <point x="603.712" y="0" type="line"/>
      <point x="936.32" y="1446.91" type="line"/>
      <point x="834.048" y="1446.91" type="line"/>
      <point x="809.28" y="1325.76"/>
      <point x="717.888" y="1234.11"/>
      <point x="590.72" y="1234.11" type="curve" smooth="yes"/>
      <point x="381.291" y="1234.11" type="line"/>
      <point x="359.147" y="1136.19" type="line"/>
      <point x="748.288" y="1136.19" type="line"/>
      <point x="486.336" y="0" type="line"/>
    </contour>
  </outline>
</glyph>
<glyph name="two" format="2">
  <advance width="1229"/>
  <unicode hex="0032"/>
  <outline>
    <contour>
      <point x="-19.84" y="0" type="line"/>
      <point x="935.808" y="0" type="line"/>
      <point x="956.032" y="92.8" type="line"/>
      <point x="129.728" y="92.8" type="line"/>
      <point x="783.808" y="451.328"/>
      <point x="1171.9" y="842.112"/>
      <point x="1171.9" y="1154.11" type="curve" smooth="yes"/>
      <point x="1171.9" y="1337.66"/>
      <point x="1040.58" y="1468.42"/>
      <point x="819.904" y="1468.42" type="curve" smooth="yes"/>
      <point x="558.472" y="1468.42"/>
      <point x="349.218" y="1290.32"/>
      <point x="281.53" y="1009.38" type="curve"/>
      <point x="387.688" y="992.046" type="line"/>
      <point x="446.151" y="1216.48"/>
      <point x="617.282" y="1366.27"/>
      <point x="814.976" y="1366.27" type="curve" smooth="yes"/>
      <point x="958.08" y="1366.27"/>
      <point x="1048.83" y="1265.86"/>
      <point x="1048.83" y="1142.14" type="curve" smooth="yes"/>
      <point x="1048.83" y="851.392"/>
      <point x="642.88" y="454.08"/>
      <point x="5.952" y="114.688" type="curve"/>
    </contour>
  </outline>
</glyph>
<glyph name="three" format="2">
  <advance width="1229"/>
  <unicode hex="0033"/>
  <outline>
    <contour>
      <point x="445.5" y="-20" type="curve" smooth="yes"/>
      <point x="771.313" y="-20"/>
      <point x="1013.19" y="203.438"/>
      <point x="1013.19" y="504.313" type="curve" smooth="yes"/>
      <point x="1013.19" y="648.438"/>
      <point x="951.375" y="735.625"/>
      <point x="819.438" y="775.188" type="curve"/>
      <point x="991.563" y="854.75"/>
      <point x="1097.44" y="1014.31"/>
      <point x="1097.44" y="1192.88" type="curve" smooth="yes"/>
      <point x="1097.44" y="1356.19"/>
      <point x="965.563" y="1468"/>
      <point x="775.313" y="1468" type="curve" smooth="yes"/>
      <point x="546.688" y="1468"/>
      <point x="356.438" y="1324.19"/>
      <point x="306.688" y="1114.31" type="curve"/>
      <point x="402.375" y="1094.12" type="line"/>
      <point x="440.125" y="1251.44"/>
      <point x="594.688" y="1369.5"/>
      <point x="762.938" y="1369.5" type="curve" smooth="yes"/>
      <point x="892.875" y="1369.5"/>
      <point x="988.938" y="1281.75"/>
      <point x="988.938" y="1163.44" type="curve" smooth="yes"/>
      <point x="988.938" y="957.5"/>
      <point x="832.813" y="818.875"/>
      <point x="602.625" y="818.875" type="curve" smooth="yes"/>
      <point x="577.813" y="818.875" type="line"/>
      <point x="554.875" y="716.125" type="line"/>
      <point x="650.5" y="716.125" type="line" smooth="yes"/>
      <point x="797.438" y="716.125"/>
      <point x="911.125" y="618"/>
      <point x="911.125" y="488.813" type="curve" smooth="yes"/>
      <point x="911.125" y="265.313"/>
      <point x="702.938" y="74.313"/>
      <point x="458.25" y="74.313" type="curve" smooth="yes"/>
      <point x="284.188" y="74.313"/>
      <point x="163.563" y="174.375"/>
      <point x="163.563" y="319.25" type="curve" smooth="yes"/>
      <point x="163.563" y="344.438"/>
      <point x="166.75" y="371.563"/>
      <point x="172.938" y="396.125" type="curve"/>
      <point x="70.625" y="387.813" type="line"/>
      <point x="60.438" y="348.625"/>
      <point x="55.438" y="313.375"/>
      <point x="55.438" y="281.313" type="curve" smooth="yes"/>
      <point x="55.438" y="97.5"/>
      <point x="208.313" y="-20"/>
    </contour>
  </outline>
</glyph>
<glyph name="four" format="2">
  <advance width="1229"/>
  <unicode hex="0034"/>
  <outline>
    <contour>
      <point x="701.312" y="0" type="line"/>
      <point x="796.736" y="413.12" type="line"/>
      <point x="1027.65" y="413.12" type="line"/>
      <point x="1048.26" y="504.576" type="line"/>
      <point x="817.344" y="504.576" type="line"/>
      <point x="1035.2" y="1446.91" type="line"/>
      <point x="924.672" y="1446.91" type="line"/>
      <point x="27.904" y="476.48" type="line"/>
      <point x="12.992" y="413.12" type="line"/>
      <point x="684.416" y="413.12" type="line"/>
      <point x="588.8" y="0" type="line"/>
    </contour>
    <contour>
      <point x="705.024" y="504.576" type="line"/>
      <point x="157.632" y="504.576" type="line"/>
      <point x="882.816" y="1276.8" type="line"/>
    </contour>
  </outline>
</glyph>
<glyph name="five" format="2">
  <advance width="1229"/>
  <unicode hex="0035"/>
  <outline>
    <contour>
      <point x="455.68" y="-20.48" type="curve" smooth="yes"/>
      <point x="757.184" y="-20.48"/>
      <point x="1045.06" y="270.912"/>
      <point x="1045.06" y="577.472" type="curve" smooth="yes"/>
      <point x="1045.06" y="790.08"/>
      <point x="912" y="922.56"/>
      <point x="699.008" y="922.56" type="curve" smooth="yes"/>
      <point x="571.2" y="922.56"/>
      <point x="457.408" y="877.824"/>
      <point x="362.432" y="790.912" type="curve"/>
      <point x="583.36" y="1350.59" type="line"/>
      <point x="1171.26" y="1350.59" type="line"/>
      <point x="1193.92" y="1446.91" type="line"/>
      <point x="518.336" y="1446.91" type="line"/>
      <point x="234.368" y="732.288" type="line"/>
      <point x="315.136" y="662.656" type="line"/>
      <point x="399.424" y="764.096"/>
      <point x="540.224" y="830.144"/>
      <point x="672.384" y="830.144" type="curve" smooth="yes"/>
      <point x="835.648" y="830.144"/>
      <point x="930.688" y="736"/>
      <point x="930.688" y="572.672" type="curve" smooth="yes"/>
      <point x="930.688" y="320.064"/>
      <point x="708.544" y="76.608"/>
      <point x="478.464" y="76.608" type="curve" smooth="yes"/>
      <point x="286.72" y="76.608"/>
      <point x="204.096" y="174.208"/>
      <point x="204.096" y="399.552" type="curve"/>
      <point x="96.128" y="364.416" type="line"/>
      <point x="96.128" y="128.064"/>
      <point x="234.24" y="-20.48"/>
    </contour>
  </outline>
</glyph>
<glyph name="six" format="2">
  <advance width="1229"/>
  <unicode hex="0036"/>
  <outline>
    <contour>
      <point x="461.056" y="-20.48" type="curve" smooth="yes"/>
      <point x="758.4" y="-20.48"/>
      <point x="1036.42" y="261.824"/>
      <point x="1036.42" y="559.68" type="curve" smooth="yes"/>
      <point x="1036.42" y="812.032"/>
      <point x="845.312" y="899.648"/>
      <point x="651.584" y="899.648" type="curve" smooth="yes"/>
      <point x="597.888" y="899.648"/>
      <point x="527.168" y="885.248"/>
      <point x="470.016" y="855.232" type="curve"/>
      <point x="944.896" y="1446.91" type="line"/>
      <point x="824" y="1446.91" type="line"/>
      <point x="232.256" y="701.888" type="line" smooth="yes"/>
      <point x="152.64" y="600.832"/>
      <point x="98.24" y="476.16"/>
      <point x="98.24" y="343.488" type="curve" smooth="yes"/>
      <point x="98.24" y="131.52"/>
      <point x="246.592" y="-20.48"/>
    </contour>
    <contour>
      <point x="480.64" y="79.936" type="curve" smooth="yes"/>
      <point x="316.736" y="79.936"/>
      <point x="210.304" y="200.64"/>
      <point x="210.304" y="360.576" type="curve" smooth="yes"/>
      <point x="210.304" y="597.056"/>
      <point x="416.96" y="808.512"/>
      <point x="653.632" y="808.512" type="curve" smooth="yes"/>
      <point x="813.888" y="808.512"/>
      <point x="925.76" y="705.856"/>
      <point x="925.76" y="542.08" type="curve" smooth="yes"/>
      <point x="925.76" y="316.096"/>
      <point x="711.616" y="79.936"/>
    </contour>
  </outline>
</glyph>
<glyph name="seven" format="2">
  <advance width="1229"/>
  <unicode hex="0037"/>
  <outline>
    <contour>
      <point x="305.344" y="0" type="line"/>
      <point x="1243.58" y="1391.42" type="line"/>
      <point x="1255.04" y="1446.91" type="line"/>
      <point x="330.944" y="1446.91" type="line"/>
      <point x="308.288" y="1348.99" type="line"/>
      <point x="1104.64" y="1348.99" type="line"/>
      <point x="175.232" y="0" type="line"/>
    </contour>
  </outline>
</glyph>
<glyph name="eight" format="2">
  <advance width="1229"/>
  <unicode hex="0038"/>
  <outline>
    <contour>
      <point x="465" y="-20" type="curve" smooth="yes"/>
      <point x="761.938" y="-20"/>
      <point x="1030.31" y="175.813"/>
      <point x="1030.31" y="490.563" type="curve" smooth="yes"/>
      <point x="1030.31" y="628.125"/>
      <point x="964.125" y="725.625"/>
      <point x="835.313" y="778.313" type="curve"/>
      <point x="1002" y="855.5"/>
      <point x="1120.94" y="1002.19"/>
      <point x="1120.94" y="1195.88" type="curve" smooth="yes"/>
      <point x="1120.94" y="1377.5"/>
      <point x="969.125" y="1468"/>
      <point x="801.813" y="1468" type="curve" smooth="yes"/>
      <point x="552.063" y="1468"/>
      <point x="318.75" y="1283.5"/>
      <point x="318.75" y="1023.56" type="curve" smooth="yes"/>
      <point x="318.75" y="918.75"/>
      <point x="361.375" y="835.313"/>
      <point x="457.313" y="780.75" type="curve"/>
      <point x="240.188" y="701.188"/>
      <point x="77.5" y="527.125"/>
      <point x="77.5" y="287.5" type="curve" smooth="yes"/>
      <point x="77.5" y="66.188"/>
      <point x="270.875" y="-20"/>
    </contour>
    <contour>
      <point x="653.188" y="807.75" type="curve" smooth="yes"/>
      <point x="527.563" y="807.75"/>
      <point x="430" y="875.313"/>
      <point x="430" y="1016.25" type="curve" smooth="yes"/>
      <point x="430" y="1208.88"/>
      <point x="598.375" y="1372.31"/>
      <point x="791.063" y="1372.31" type="curve" smooth="yes"/>
      <point x="913" y="1372.31"/>
      <point x="1011.69" y="1300.44"/>
      <point x="1011.69" y="1165.44" type="curve" smooth="yes"/>
      <point x="1011.69" y="973.813"/>
      <point x="845.688" y="807.75"/>
    </contour>
    <contour>
      <point x="475.375" y="69.5" type="curve" smooth="yes"/>
      <point x="332.938" y="69.5"/>
      <point x="192.188" y="147"/>
      <point x="192.188" y="312.188" type="curve" smooth="yes"/>
      <point x="192.188" y="554"/>
      <point x="402.375" y="732.813"/>
      <point x="638.625" y="732.813" type="curve" smooth="yes"/>
      <point x="784.125" y="732.813"/>
      <point x="917.063" y="647"/>
      <point x="917.063" y="489.188" type="curve" smooth="yes"/>
      <point x="917.063" y="251.563"/>
      <point x="706.875" y="69.5"/>
    </contour>
  </outline>
</glyph>
<glyph name="nine" format="2">
  <advance width="1229"/>
  <unicode hex="0039"/>
  <outline>
    <contour>
      <point x="375.424" y="0" type="line"/>
      <point x="1025.54" y="745.024" type="line" smooth="yes"/>
      <point x="1106.37" y="837.568"/>
      <point x="1157.12" y="978.048"/>
      <point x="1157.12" y="1104.64" type="curve" smooth="yes"/>
      <point x="1157.12" y="1313.6"/>
      <point x="1004.74" y="1468.42"/>
      <point x="795.52" y="1468.42" type="curve" smooth="yes"/>
      <point x="496.128" y="1468.42"/>
      <point x="218.944" y="1184.7"/>
      <point x="218.944" y="886.016" type="curve" smooth="yes"/>
      <point x="218.944" y="650.176"/>
      <point x="388.928" y="540.288"/>
      <point x="609.856" y="540.288" type="curve" smooth="yes"/>
      <point x="657.472" y="540.288"/>
      <point x="699.712" y="543.552"/>
      <point x="749.888" y="549.632" type="curve"/>
      <point x="257.344" y="0" type="line"/>
    </contour>
    <contour>
      <point x="601.92" y="638.4" type="curve" smooth="yes"/>
      <point x="436.8" y="638.4"/>
      <point x="329.984" y="738.24"/>
      <point x="329.984" y="905.856" type="curve" smooth="yes"/>
      <point x="329.984" y="1134.27"/>
      <point x="547.392" y="1366.98"/>
      <point x="779.584" y="1366.98" type="curve" smooth="yes"/>
      <point x="933.568" y="1366.98"/>
      <point x="1045.06" y="1241.41"/>
      <point x="1045.06" y="1088.58" type="curve" smooth="yes"/>
      <point x="1045.06" y="852.032"/>
      <point x="838.592" y="638.4"/>
    </contour>
  </outline>
</glyph>
<glyph name="colon" format="2">
  <advance width="614"/>
  <unicode hex="003A"/>
  <outline>
    <contour>
      <point x="457.894" y="811.136" type="line"/>
      <point x="496.038" y="975.68" type="line"/>
      <point x="329.446" y="975.68" type="line"/>
      <point x="291.302" y="811.136" type="line"/>
    </contour>
    <contour>
      <point x="271.782" y="0" type="line"/>
      <point x="310.118" y="164.544" type="line"/>
      <point x="144.742" y="164.544" type="line"/>
      <point x="106.406" y="0" type="line"/>
    </contour>
  </outline>
</glyph>
<glyph name="semicolon" format="2">
  <advance width="614"/>
  <unicode hex="003B"/>
  <outline>
    <contour>
      <point x="461.686" y="811.136" type="line"/>
      <point x="499.83" y="975.68" type="line"/>
      <point x="334.454" y="975.68" type="line"/>
      <point x="295.286" y="811.136" type="line"/>
    </contour>
    <contour>
      <point x="32.694" y="-231.616" type="line"/>
      <point x="345.526" y="266.688" type="line"/>
      <point x="187.446" y="266.688" type="line"/>
      <point x="-30.666" y="-231.616" type="line"/>
    </contour>
  </outline>
</glyph>
<glyph name="less" format="2">
  <advance width="1248"/>
  <unicode hex="003C"/>
  <outline>
    <contour>
      <point x="1023.1" y="182.4" type="line"/>
      <point x="1076.29" y="272.256" type="line"/>
      <point x="327.744" y="690.176" type="line"/>
      <point x="1076.29" y="1105.66" type="line"/>
      <point x="1023.1" y="1196.74" type="line"/>
      <point x="143.36" y="690.176" type="line"/>
    </contour>
  </outline>
</glyph>
<glyph name="equal" format="2">
  <advance width="1304"/>
  <unicode hex="003D"/>
  <outline>
    <contour>
      <point x="1024.32" y="804.096" type="line"/>
      <point x="1024.32" y="910.464" type="line"/>
      <point x="278.976" y="910.464" type="line"/>
      <point x="278.976" y="804.096" type="line"/>
    </contour>
    <contour>
      <point x="1024.32" y="464.768" type="line"/>
      <point x="1024.32" y="569.728" type="line"/>
      <point x="278.976" y="569.728" type="line"/>
      <point x="278.976" y="464.768" type="line"/>
    </contour>
  </outline>
</glyph>
<glyph name="greater" format="2">
  <advance width="1246"/>
  <unicode hex="003E"/>
  <outline>
    <contour>
      <point x="224.128" y="182.4" type="line"/>
      <point x="1105.09" y="690.176" type="line"/>
      <point x="224.128" y="1196.74" type="line"/>
      <point x="172.16" y="1105.66" type="line"/>
      <point x="919.488" y="690.176" type="line"/>
      <point x="172.16" y="272.256" type="line"/>
    </contour>
  </outline>
</glyph>
<glyph name="question" format="2">
  <advance width="1072"/>
  <unicode hex="003F"/>
  <outline>
    <contour>
      <point x="548.672" y="366.08" type="line"/>
      <point x="576.768" y="490.112" type="line" smooth="yes"/>
      <point x="626.944" y="715.136"/>
      <point x="658.176" y="746.048"/>
      <point x="817.6" y="819.648" type="curve" smooth="yes"/>
      <point x="981.568" y="896"/>
      <point x="1077.18" y="1008.58"/>
      <point x="1077.18" y="1192.83" type="curve" smooth="yes"/>
      <point x="1077.18" y="1387.14"/>
      <point x="903.36" y="1468.42"/>
      <point x="732.032" y="1468.42" type="curve" smooth="yes"/>
      <point x="529.856" y="1468.42"/>
      <point x="313.088" y="1321.53"/>
      <point x="266.816" y="1115.45" type="curve"/>
      <point x="379.904" y="1115.2" type="line"/>
      <point x="418.56" y="1267.01"/>
      <point x="589.824" y="1366.34"/>
      <point x="737.984" y="1366.34" type="curve" smooth="yes"/>
      <point x="848" y="1366.34"/>
      <point x="970.176" y="1325.63"/>
      <point x="970.176" y="1187.9" type="curve" smooth="yes"/>
      <point x="970.176" y="1041.79"/>
      <point x="868.032" y="938.176"/>
      <point x="742.272" y="876.8" type="curve" smooth="yes"/>
      <point x="557.184" y="787.072"/>
      <point x="519.936" y="727.232"/>
      <point x="474.112" y="511.232" type="curve" smooth="yes"/>
      <point x="443.52" y="366.08" type="line"/>
    </contour>
    <contour>
      <point x="497.536" y="0" type="line"/>
      <point x="536.064" y="164.544" type="line"/>
      <point x="369.472" y="164.544" type="line"/>
      <point x="330.944" y="0" type="line"/>
    </contour>
  </outline>
</glyph>
<glyph name="at" format="2">
  <advance width="2135"/>
  <unicode hex="0040"/>
  <outline>
    <contour>
      <point x="868.992" y="-357.568" type="curve" smooth="yes"/>
      <point x="973.76" y="-357.568"/>
      <point x="1077.63" y="-339.968"/>
      <point x="1180.61" y="-307.392" type="curve"/>
      <point x="1147.78" y="-188.224" type="line"/>
      <point x="1060.54" y="-215.488"/>
      <point x="968.64" y="-228.608"/>
      <point x="877.12" y="-228.608" type="curve" smooth="yes"/>
      <point x="540.032" y="-228.608"/>
      <point x="269.76" y="-45.888"/>
      <point x="269.76" y="314.688" type="curve" smooth="yes"/>
      <point x="269.76" y="851.072"/>
      <point x="740.672" y="1347.84"/>
      <point x="1282.69" y="1347.84" type="curve" smooth="yes"/>
      <point x="1629.95" y="1347.84"/>
      <point x="1883.71" y="1146.56"/>
      <point x="1883.71" y="787.264" type="curve" smooth="yes"/>
      <point x="1883.71" y="516.224"/>
      <point x="1734.78" y="62.144"/>
      <point x="1405.57" y="62.144" type="curve" smooth="yes"/>
      <point x="1334.59" y="62.144"/>
      <point x="1288.19" y="113.92"/>
      <point x="1288.19" y="211.136" type="curve" smooth="yes"/>
      <point x="1288.19" y="280.64"/>
      <point x="1301.25" y="312.768"/>
      <point x="1348.54" y="413.312" type="curve" smooth="yes"/>
      <point x="1620.35" y="995.84" type="line"/>
      <point x="1491.58" y="1001.02" type="line"/>
      <point x="1414.72" y="819.008" type="line"/>
      <point x="1420.29" y="974.336"/>
      <point x="1319.55" y="1051.2"/>
      <point x="1180.16" y="1051.2" type="curve" smooth="yes"/>
      <point x="868.544" y="1051.2"/>
      <point x="577.024" y="628.992"/>
      <point x="577.024" y="338.176" type="curve" smooth="yes"/>
      <point x="577.024" y="180.096"/>
      <point x="657.216" y="78.08"/>
      <point x="822.272" y="78.08" type="curve" smooth="yes"/>
      <point x="965.952" y="78.08"/>
      <point x="1103.87" y="157.952"/>
      <point x="1196.1" y="262.784" type="curve"/>
      <point x="1145.43" y="103.313"/>
      <point x="1239.55" y="-43.776"/>
      <point x="1398.59" y="-43.776" type="curve" smooth="yes"/>
      <point x="1795.97" y="-43.776"/>
      <point x="2004.67" y="460.864"/>
      <point x="2004.67" y="797.696" type="curve" smooth="yes"/>
      <point x="2004.67" y="1227.2"/>
      <point x="1693.31" y="1466.37"/>
      <point x="1299.07" y="1466.37" type="curve" smooth="yes"/>
      <point x="679.616" y="1466.37"/>
      <point x="147.776" y="922.048"/>
      <point x="147.776" y="299.712" type="curve" smooth="yes"/>
      <point x="147.776" y="-128.192"/>
      <point x="466.112" y="-357.568"/>
    </contour>
    <contour>
      <point x="850.816" y="206.016" type="curve" smooth="yes"/>
      <point x="748.672" y="206.016"/>
      <point x="689.408" y="248.064"/>
      <point x="689.408" y="354.112" type="curve" smooth="yes"/>
      <point x="689.408" y="588.928"/>
      <point x="936.064" y="956.096"/>
      <point x="1185.6" y="956.096" type="curve" smooth="yes"/>
      <point x="1282.69" y="956.096"/>
      <point x="1353.22" y="880.128"/>
      <point x="1353.22" y="776.832" type="curve" smooth="yes"/>
      <point x="1353.22" y="533.184"/>
      <point x="1099.71" y="206.016"/>
    </contour>
  </outline>
</glyph>
<glyph name="A" format="2">
  <advance width="1323"/>
  <unicode hex="0041"/>
  <anchor x="836.313" y="1620" name="top"/>
  <anchor x="1114.75" y="0" name="ogonek"/>
  <anchor x="541.875" y="-120" name="bottom"/>
  <outline>
    <contour>
      <point x="1114.24" y="0" type="line"/>
      <point x="923.84" y="1447.94" type="line"/>
      <point x="832.832" y="1447.94" type="line"/>
      <point x="-29.888" y="0" type="line"/>
      <point x="99.968" y="0" type="line"/>
      <point x="844.16" y="1276.54" type="line"/>
      <point x="992.192" y="0" type="line"/>
    </contour>
    <contour>
      <point x="972.193" y="428.352" type="line"/>
      <point x="315.103" y="428.352" type="line"/>
      <point x="251.615" y="320.306" type="line"/>
      <point x="986.145" y="320.306" type="line"/>
    </contour>
  </outline>
  <guideline angle="90" name="vertical" x="841" y="0"/>
</glyph>
<glyph name="B" format="2">
  <advance width="1271"/>
  <unicode hex="0042"/>
  <outline>
    <contour>
      <point x="559.25" y="0" type="line" smooth="yes"/>
      <point x="863.125" y="0"/>
      <point x="1107.62" y="148"/>
      <point x="1107.62" y="476.875" type="curve" smooth="yes"/>
      <point x="1107.62" y="616.563"/>
      <point x="1033.5" y="696.438"/>
      <point x="912.438" y="755.875" type="curve"/>
      <point x="1080.75" y="843.688"/>
      <point x="1200.5" y="977.25"/>
      <point x="1200.5" y="1175.62" type="curve" smooth="yes"/>
      <point x="1200.5" y="1410.5"/>
      <point x="938.438" y="1448"/>
      <point x="756.688" y="1448" type="curve" smooth="yes"/>
      <point x="453.063" y="1448" type="line"/>
      <point x="119.875" y="0" type="line"/>
    </contour>
    <contour>
      <point x="641.938" y="785.625" type="curve" smooth="yes"/>
      <point x="412.813" y="785.625" type="line"/>
      <point x="541.5" y="1343.62" type="line"/>
      <point x="792.313" y="1343.62" type="line" smooth="yes"/>
      <point x="911.875" y="1343.62"/>
      <point x="1064.19" y="1327.81"/>
      <point x="1064.19" y="1170.44" type="curve" smooth="yes"/>
      <point x="1064.19" y="932.875"/>
      <point x="867.75" y="785.625"/>
    </contour>
    <contour>
      <point x="578.75" y="105.5" type="curve" smooth="yes"/>
      <point x="257.75" y="105.5" type="line"/>
      <point x="389.313" y="676.813" type="line"/>
      <point x="728.938" y="676.813" type="line" smooth="yes"/>
      <point x="859.625" y="676.813"/>
      <point x="993.875" y="651.25"/>
      <point x="993.875" y="481.25" type="curve" smooth="yes"/>
      <point x="993.875" y="231.313"/>
      <point x="823.25" y="105.5"/>
    </contour>
  </outline>
</glyph>
<glyph name="C" format="2">
  <advance width="1458"/>
  <unicode hex="0043"/>
  <anchor x="988.875" y="1620" name="top"/>
  <anchor x="641.125" y="0" name="cedilla"/>
  <outline>
    <contour>
      <point x="640.768" y="-20.48" type="curve" smooth="yes"/>
      <point x="913.28" y="-20.48"/>
      <point x="1135.74" y="128.896"/>
      <point x="1286.02" y="348.352" type="curve"/>
      <point x="1189.5" y="402.496" type="line"/>
      <point x="1070.98" y="204.8"/>
      <point x="889.856" y="94.976"/>
      <point x="655.872" y="94.976" type="curve" smooth="yes"/>
      <point x="392.64" y="94.976"/>
      <point x="265.472" y="234.048"/>
      <point x="265.472" y="494.912" type="curve" smooth="yes"/>
      <point x="265.472" y="885.888"/>
      <point x="499.648" y="1357.44"/>
      <point x="940.224" y="1357.44" type="curve" smooth="yes"/>
      <point x="1138.5" y="1357.44"/>
      <point x="1320.19" y="1274.11"/>
      <point x="1340.99" y="1055.04" type="curve"/>
      <point x="1447.04" y="1097.98" type="line"/>
      <point x="1401.15" y="1351.87"/>
      <point x="1204.29" y="1470.46"/>
      <point x="957.376" y="1470.46" type="curve" smooth="yes"/>
      <point x="440.448" y="1470.46"/>
      <point x="144.448" y="948.224"/>
      <point x="144.448" y="487.808" type="curve" smooth="yes"/>
      <point x="144.448" y="170.944"/>
      <point x="316.608" y="-20.48"/>
    </contour>
  </outline>
  <guideline angle="90" name="vertical" x="993" y="0"/>
</glyph>
<glyph name="D" format="2">
  <advance width="1450"/>
  <unicode hex="0044"/>
  <anchor x="896" y="1620" name="top"/>
  <outline>
    <contour>
      <point x="468.224" y="0" type="line" smooth="yes"/>
      <point x="1027.46" y="0"/>
      <point x="1377.02" y="412.928"/>
      <point x="1377.02" y="939.904" type="curve" smooth="yes"/>
      <point x="1377.02" y="1351.62"/>
      <point x="1074.24" y="1446.91"/>
      <point x="739.52" y="1446.91" type="curve" smooth="yes"/>
      <point x="453.504" y="1446.91" type="line"/>
      <point x="119.488" y="0" type="line"/>
    </contour>
    <contour>
      <point x="458.88" y="106.048" type="curve" smooth="yes"/>
      <point x="262.4" y="106.048" type="line"/>
      <point x="548.672" y="1344.51" type="line"/>
      <point x="776.128" y="1344.51" type="line" smooth="yes"/>
      <point x="1053.5" y="1344.51"/>
      <point x="1260.48" y="1230.66"/>
      <point x="1260.48" y="927.104" type="curve" smooth="yes"/>
      <point x="1260.48" y="477.44"/>
      <point x="923.712" y="106.048"/>
    </contour>
  </outline>
  <guideline angle="90" name="vertical" x="896" y="0"/>
</glyph>
<glyph name="E" format="2">
  <advance width="1279"/>
  <unicode hex="0045"/>
  <anchor x="876.625" y="1620" name="top"/>
  <anchor x="1045.06" y="0" name="ogonek"/>
  <anchor x="554.25" y="-120" name="bottom"/>
  <outline>
    <contour>
      <point x="1045.06" y="0" type="line"/>
      <point x="1067.62" y="103.5" type="line"/>
      <point x="260.125" y="103.5" type="line"/>
      <point x="392" y="680" type="line"/>
      <point x="1075.69" y="680" type="line"/>
      <point x="1097.44" y="768.188" type="line"/>
      <point x="416.313" y="768.188" type="line"/>
      <point x="548.625" y="1352.69" type="line"/>
      <point x="1356.12" y="1352.69" type="line"/>
      <point x="1378.06" y="1448" type="line"/>
      <point x="453.063" y="1448" type="line"/>
      <point x="119.875" y="0" type="line"/>
    </contour>
  </outline>
  <guideline angle="90" name="vertical" x="871" y="0"/>
</glyph>
<glyph name="F" format="2">
  <advance width="1221"/>
  <unicode hex="0046"/>
  <outline>
    <contour>
      <point x="237.312" y="0" type="line"/>
      <point x="392.576" y="679.552" type="line"/>
      <point x="1069.82" y="679.552" type="line"/>
      <point x="1092.48" y="768.576" type="line"/>
      <point x="416.448" y="768.576" type="line"/>
      <point x="548.672" y="1352.81" type="line"/>
      <point x="1316.03" y="1352.81" type="line"/>
      <point x="1338.5" y="1447.91" type="line"/>
      <point x="453.504" y="1447.91" type="line"/>
      <point x="119.488" y="0" type="line"/>
    </contour>
  </outline>
</glyph>
<glyph name="G" format="2">
  <advance width="1538"/>
  <unicode hex="0047"/>
  <anchor x="994.25" y="1620" name="top"/>
  <anchor x="673.813" y="-120" name="bottom"/>
  <outline>
    <contour>
      <point x="665.088" y="-20.48" type="curve" smooth="yes"/>
      <point x="892.544" y="-20.48"/>
      <point x="1110.78" y="95.168"/>
      <point x="1225.47" y="295.872" type="curve"/>
      <point x="1146.18" y="0" type="line"/>
      <point x="1248.83" y="0" type="line"/>
      <point x="1412.03" y="708.16" type="line"/>
      <point x="872.48" y="708.16" type="line"/>
      <point x="852.292" y="626.005" type="line"/>
      <point x="1285.31" y="626.176" type="line"/>
      <point x="1219.2" y="326.912"/>
      <point x="983.104" y="92.8"/>
      <point x="668.416" y="92.8" type="curve" smooth="yes"/>
      <point x="408.192" y="92.8"/>
      <point x="285.12" y="247.808"/>
      <point x="285.12" y="499.136" type="curve" smooth="yes"/>
      <point x="285.12" y="896"/>
      <point x="536.576" y="1352.58"/>
      <point x="977.152" y="1352.58" type="curve" smooth="yes"/>
      <point x="1176.7" y="1352.58"/>
      <point x="1311.1" y="1252.99"/>
      <point x="1360.77" y="1056.26" type="curve"/>
      <point x="1476.61" y="1094.34" type="line"/>
      <point x="1419.84" y="1341.89"/>
      <point x="1233.73" y="1470.46"/>
      <point x="985.344" y="1470.46" type="curve" smooth="yes"/>
      <point x="477.568" y="1470.46"/>
      <point x="168.768" y="940.16"/>
      <point x="168.768" y="485.376" type="curve" smooth="yes"/>
      <point x="168.768" y="167.296"/>
      <point x="340.928" y="-20.48"/>
    </contour>
  </outline>
  <guideline angle="90" name="vertical" x="986" y="0"/>
</glyph>
<glyph name="H" format="2">
  <advance width="1487"/>
  <unicode hex="0048"/>
  <anchor x="942" y="1620" name="top"/>
  <outline>
    <contour>
      <point x="1132.75" y="0" type="line"/>
      <point x="1466.94" y="1448" type="line"/>
      <point x="1348.25" y="1448" type="line"/>
      <point x="1194.19" y="768.188" type="line"/>
      <point x="416.313" y="768.188" type="line"/>
      <point x="570.375" y="1448" type="line"/>
      <point x="453.063" y="1448" type="line"/>
      <point x="119.875" y="0" type="line"/>
      <point x="237.375" y="0" type="line"/>
      <point x="392" y="680" type="line"/>
      <point x="1169.88" y="680" type="line"/>
      <point x="1016.44" y="0" type="line"/>
    </contour>
  </outline>
  <guideline angle="90" name="vertical" x="942" y="0"/>
</glyph>
<glyph name="I" format="2">
  <advance width="591"/>
  <unicode hex="0049"/>
  <anchor x="522" y="1620" name="top"/>
  <anchor x="239.75" y="0" name="ogonek"/>
  <anchor x="161.875" y="-120" name="bottom"/>
  <outline>
    <contour>
      <point x="237.375" y="0" type="line"/>
      <point x="570.375" y="1448" type="line"/>
      <point x="453.063" y="1448" type="line"/>
      <point x="119.875" y="0" type="line"/>
    </contour>
  </outline>
  <guideline angle="90" name="vertical" x="522" y="0"/>
</glyph>
<glyph name="J" format="2">
  <advance width="1152"/>
  <unicode hex="004A"/>
  <anchor x="1082.44" y="1620" name="top"/>
  <outline>
    <contour>
      <point x="428.864" y="-20.48" type="curve" smooth="yes"/>
      <point x="798.848" y="-20.48"/>
      <point x="889.728" y="303.808"/>
      <point x="1001.34" y="786.816" type="curve" smooth="yes"/>
      <point x="1152.96" y="1446.91" type="line"/>
      <point x="1033.73" y="1446.91" type="line"/>
      <point x="813.44" y="490.688" type="line" smooth="yes"/>
      <point x="761.728" y="264.256"/>
      <point x="651.392" y="76.672"/>
      <point x="392.896" y="76.672" type="curve" smooth="yes"/>
      <point x="246.336" y="76.672"/>
      <point x="180.352" y="179.136"/>
      <point x="180.352" y="316.672" type="curve" smooth="yes"/>
      <point x="180.352" y="342.848"/>
      <point x="182.4" y="368.832"/>
      <point x="186.496" y="395.392" type="curve"/>
      <point x="72.768" y="388.096" type="line"/>
      <point x="67.648" y="362.56"/>
      <point x="65.6" y="336.512"/>
      <point x="65.6" y="308.096" type="curve" smooth="yes"/>
      <point x="65.6" y="70.016"/>
      <point x="217.024" y="-20.48"/>
    </contour>
  </outline>
  <guideline angle="90" name="vertical" x="1083" y="0"/>
</glyph>
<glyph name="K" format="2">
  <advance width="1478"/>
  <unicode hex="004B"/>
  <anchor x="643.75" y="-120" name="bottom"/>
  <outline>
    <contour>
      <point x="1234.11" y="0" type="line"/>
      <point x="867.904" y="886.848" type="line"/>
      <point x="1529.98" y="1446.91" type="line"/>
      <point x="1377.15" y="1446.91" type="line"/>
      <point x="333.184" y="558.464" type="line"/>
      <point x="538.496" y="1446.91" type="line"/>
      <point x="420.672" y="1446.91" type="line"/>
      <point x="86.656" y="0" type="line"/>
      <point x="204.48" y="0" type="line"/>
      <point x="299.84" y="408.64" type="line"/>
      <point x="772.224" y="803.968" type="line"/>
      <point x="1102.53" y="0" type="line"/>
    </contour>
  </outline>
</glyph>
<glyph name="L" format="2">
  <advance width="1062"/>
  <unicode hex="004C"/>
  <anchor x="498.5" y="1620" name="top"/>
  <anchor x="499" y="-120" name="bottom"/>
  <anchor x="818.563" y="774" name="center"/>
  <outline>
    <contour>
      <point x="857.024" y="0" type="line"/>
      <point x="879.296" y="103.488" type="line"/>
      <point x="259.584" y="103.488" type="line"/>
      <point x="570.112" y="1447.94" type="line"/>
      <point x="453.504" y="1447.94" type="line"/>
      <point x="119.488" y="0" type="line"/>
    </contour>
  </outline>
  <guideline angle="90" name="vertical" x="506" y="0"/>
</glyph>
<glyph name="M" format="2">
  <advance width="1797"/>
  <unicode hex="004D"/>
  <outline>
    <contour>
      <point x="1415.42" y="0" type="line"/>
      <point x="1750.46" y="1446.91" type="line"/>
      <point x="1535.62" y="1446.91" type="line"/>
      <point x="796.48" y="220.8" type="line"/>
      <point x="633.856" y="1446.91" type="line"/>
      <point x="420.672" y="1446.91" type="line"/>
      <point x="86.656" y="0" type="line"/>
      <point x="207.808" y="0" type="line"/>
      <point x="529.024" y="1383.94" type="line"/>
      <point x="708.992" y="125.952" type="line"/>
      <point x="851.456" y="125.952" type="line"/>
      <point x="1616.9" y="1383.94" type="line"/>
      <point x="1296.9" y="0" type="line"/>
    </contour>
  </outline>
</glyph>
<glyph name="N" format="2">
  <advance width="1444"/>
  <unicode hex="004E"/>
  <anchor x="933.625" y="1620" name="top"/>
  <anchor x="625.188" y="-120" name="bottom"/>
  <outline>
    <contour>
      <point x="1063.17" y="0" type="line"/>
      <point x="1395.78" y="1446.91" type="line"/>
      <point x="1277.25" y="1446.91" type="line"/>
      <point x="962.88" y="90.048" type="line"/>
      <point x="625.6" y="1446.91" type="line"/>
      <point x="420.672" y="1446.91" type="line"/>
      <point x="86.656" y="0" type="line"/>
      <point x="207.808" y="0" type="line"/>
      <point x="521.984" y="1358.91" type="line"/>
      <point x="853.76" y="0" type="line"/>
    </contour>
  </outline>
  <guideline angle="90" name="vertical" x="940" y="0"/>
</glyph>
<glyph name="O" format="2">
  <advance width="1497"/>
  <unicode hex="004F"/>
  <anchor x="933" y="1620" name="top"/>
  <anchor x="710.938" y="0" name="ogonek"/>
  <anchor x="1694.31" y="1447" name="pos"/>
  <anchor x="563.75" y="-120" name="bottom"/>
  <outline>
    <contour>
      <point x="637.375" y="-20" type="curve" smooth="yes"/>
      <point x="1151.81" y="-20"/>
      <point x="1453.62" y="492.438"/>
      <point x="1453.62" y="953.688" type="curve" smooth="yes"/>
      <point x="1453.62" y="1269.94"/>
      <point x="1283.69" y="1468"/>
      <point x="959.125" y="1468" type="curve" smooth="yes"/>
      <point x="446.688" y="1468"/>
      <point x="143.063" y="950.438"/>
      <point x="143.063" y="492.313" type="curve" smooth="yes"/>
      <point x="143.063" y="177.063"/>
      <point x="311.25" y="-20"/>
    </contour>
    <contour>
      <point x="652.875" y="92.438" type="curve" smooth="yes"/>
      <point x="403.938" y="92.438"/>
      <point x="263.438" y="245"/>
      <point x="263.438" y="493.938" type="curve" smooth="yes"/>
      <point x="263.438" y="891.25"/>
      <point x="486.313" y="1353.38"/>
      <point x="938.063" y="1353.38" type="curve" smooth="yes"/>
      <point x="1205.44" y="1353.38"/>
      <point x="1336.62" y="1198.06"/>
      <point x="1336.62" y="937.813" type="curve" smooth="yes"/>
      <point x="1336.62" y="546.438"/>
      <point x="1095.12" y="92.438"/>
    </contour>
  </outline>
  <guideline angle="90" name="vertical" x="942" y="0"/>
</glyph>
<glyph name="P" format="2">
  <advance width="1182"/>
  <unicode hex="0050"/>
  <outline>
    <contour>
      <point x="237.888" y="0" type="line"/>
      <point x="392.96" y="676.672" type="line"/>
      <point x="585.152" y="676.672" type="line" smooth="yes"/>
      <point x="894.4" y="676.672"/>
      <point x="1200.51" y="793.728"/>
      <point x="1200.51" y="1154.37" type="curve" smooth="yes"/>
      <point x="1200.51" y="1364.67"/>
      <point x="1016.9" y="1446.91"/>
      <point x="831.872" y="1446.91" type="curve" smooth="yes"/>
      <point x="453.504" y="1446.91" type="line"/>
      <point x="119.488" y="0" type="line"/>
    </contour>
    <contour>
      <point x="680.64" y="775.872" type="curve" smooth="yes"/>
      <point x="415.616" y="775.872" type="line"/>
      <point x="549.44" y="1347.71" type="line"/>
      <point x="820.544" y="1347.71" type="line" smooth="yes"/>
      <point x="944" y="1347.71"/>
      <point x="1085.38" y="1310.21"/>
      <point x="1085.38" y="1146.24" type="curve" smooth="yes"/>
      <point x="1085.38" y="911.552"/>
      <point x="903.936" y="775.872"/>
    </contour>
  </outline>
</glyph>
<glyph name="Q" format="2">
  <advance width="1587"/>
  <unicode hex="0051"/>
  <outline>
    <contour>
      <point x="1238.59" y="-90.24" type="line"/>
      <point x="1326.02" y="-11.584" type="line"/>
      <point x="1164.61" y="204.8" type="line"/>
      <point x="1346.18" y="384.64"/>
      <point x="1454.08" y="702.528"/>
      <point x="1454.08" y="954.432" type="curve" smooth="yes"/>
      <point x="1454.08" y="1269.89"/>
      <point x="1282.37" y="1469.63"/>
      <point x="958.592" y="1469.63" type="curve" smooth="yes"/>
      <point x="452.224" y="1469.63"/>
      <point x="143.424" y="958.4"/>
      <point x="143.424" y="491.84" type="curve" smooth="yes"/>
      <point x="143.424" y="176"/>
      <point x="311.744" y="-20.48"/>
      <point x="637.504" y="-20.48" type="curve" smooth="yes"/>
      <point x="799.808" y="-20.48"/>
      <point x="949.76" y="19.392"/>
      <point x="1079.87" y="123.648" type="curve"/>
    </contour>
    <contour>
      <point x="653.824" y="88.064" type="curve" smooth="yes"/>
      <point x="400.96" y="88.064"/>
      <point x="267.904" y="242.56"/>
      <point x="267.904" y="489.408" type="curve" smooth="yes"/>
      <point x="267.904" y="883.648"/>
      <point x="489.152" y="1358.85"/>
      <point x="941.056" y="1358.85" type="curve" smooth="yes"/>
      <point x="1206.91" y="1358.85"/>
      <point x="1332.03" y="1199.49"/>
      <point x="1332.03" y="944.32" type="curve" smooth="yes"/>
      <point x="1332.03" y="728.384"/>
      <point x="1242.18" y="456.576"/>
      <point x="1099.26" y="292.288" type="curve"/>
      <point x="953.344" y="488.192" type="line"/>
      <point x="870.208" y="406.336" type="line"/>
      <point x="1014.27" y="208.32" type="line"/>
      <point x="908.096" y="126.528"/>
      <point x="787.136" y="88.064"/>
    </contour>
  </outline>
</glyph>
<glyph name="R" format="2">
  <advance width="1241"/>
  <unicode hex="0052"/>
  <anchor x="790.375" y="1620" name="top"/>
  <anchor x="586.25" y="-120" name="bottom"/>
  <outline>
    <contour>
      <point x="1005.89" y="-2.048" type="line"/>
      <point x="782.208" y="678.912" type="line"/>
      <point x="1012.35" y="711.808"/>
      <point x="1194.69" y="902.08"/>
      <point x="1194.69" y="1139.33" type="curve" smooth="yes"/>
      <point x="1194.69" y="1342.46"/>
      <point x="1022.91" y="1444.48"/>
      <point x="836.288" y="1444.48" type="curve" smooth="yes"/>
      <point x="452.288" y="1444.48" type="line"/>
      <point x="116.224" y="-2.048" type="line"/>
      <point x="234.24" y="-2.048" type="line"/>
      <point x="389.376" y="661.056" type="line"/>
      <point x="670.592" y="661.056" type="line"/>
      <point x="879.744" y="-2.048" type="line"/>
    </contour>
    <contour>
      <point x="729.856" y="776.96" type="curve" smooth="yes"/>
      <point x="416.448" y="776.96" type="line"/>
      <point x="547.072" y="1342.14" type="line"/>
      <point x="825.152" y="1342.14" type="line" smooth="yes"/>
      <point x="947.52" y="1342.14"/>
      <point x="1083.58" y="1292.74"/>
      <point x="1083.58" y="1137.28" type="curve" smooth="yes"/>
      <point x="1083.58" y="960.192"/>
      <point x="911.872" y="776.96"/>
    </contour>
  </outline>
  <guideline angle="90" name="vertical" x="802" y="0"/>
</glyph>
<glyph name="S" format="2">
  <advance width="1138"/>
  <unicode hex="0053"/>
  <anchor x="742.375" y="1620" name="top"/>
  <anchor x="510" y="0" name="cedilla"/>
  <anchor x="455.063" y="-120" name="bottom"/>
  <outline>
    <contour>
      <point x="485.888" y="-16.384" type="curve" smooth="yes"/>
      <point x="746.112" y="-16.384"/>
      <point x="988.416" y="170.88"/>
      <point x="988.416" y="443.584" type="curve" smooth="yes"/>
      <point x="988.416" y="828.224"/>
      <point x="451.392" y="745.984"/>
      <point x="451.392" y="1058.05" type="curve" smooth="yes"/>
      <point x="451.392" y="1241.41"/>
      <point x="624.384" y="1362.56"/>
      <point x="795.456" y="1362.56" type="curve" smooth="yes"/>
      <point x="904.512" y="1362.56"/>
      <point x="993.088" y="1307.9"/>
      <point x="1031.1" y="1203.71" type="curve"/>
      <point x="1124.03" y="1251.65" type="line"/>
      <point x="1072.45" y="1395.46"/>
      <point x="948.608" y="1468.42"/>
      <point x="799.936" y="1468.42" type="curve" smooth="yes"/>
      <point x="559.296" y="1468.42"/>
      <point x="335.936" y="1281.98"/>
      <point x="335.936" y="1033.79" type="curve" smooth="yes"/>
      <point x="335.936" y="670.848"/>
      <point x="872.96" y="736.64"/>
      <point x="872.96" y="413.888" type="curve" smooth="yes"/>
      <point x="872.96" y="200.128"/>
      <point x="678.08" y="91.712"/>
      <point x="485.184" y="91.712" type="curve" smooth="yes"/>
      <point x="298.944" y="91.712"/>
      <point x="182.4" y="199.488"/>
      <point x="182.4" y="381.184" type="curve"/>
      <point x="71.808" y="356.608" type="line"/>
      <point x="71.808" y="114.432"/>
      <point x="258.752" y="-16.384"/>
    </contour>
  </outline>
  <guideline angle="90" name="vertical" x="742" y="0"/>
</glyph>
<glyph name="T" format="2">
  <advance width="1075"/>
  <unicode hex="0054"/>
  <anchor x="654.125" y="1620" name="top"/>
  <anchor x="296.813" y="0" name="cedilla"/>
  <anchor x="379.125" y="-120" name="bottom"/>
  <outline>
    <contour>
      <point x="481.438" y="0" type="line"/>
      <point x="794.875" y="1352.69" type="line"/>
      <point x="1298.75" y="1352.69" type="line"/>
      <point x="1319.5" y="1448" type="line"/>
      <point x="190.312" y="1448" type="line"/>
      <point x="169.75" y="1352.69" type="line"/>
      <point x="674.812" y="1352.69" type="line"/>
      <point x="361.562" y="0" type="line"/>
    </contour>
  </outline>
  <guideline angle="90" name="vertical" x="683" y="0"/>
</glyph>
<glyph name="U" format="2">
  <advance width="1381"/>
  <unicode hex="0055"/>
  <anchor x="867.313" y="1620" name="top"/>
  <anchor x="655.375" y="0" name="ogonek"/>
  <anchor x="1633.12" y="1447" name="pos"/>
  <anchor x="538.25" y="-120" name="bottom"/>
  <outline>
    <contour>
      <point x="577.344" y="-20.48" type="curve" smooth="yes"/>
      <point x="928.256" y="-20.48"/>
      <point x="1118.27" y="256.768"/>
      <point x="1187.71" y="559.36" type="curve" smooth="yes"/>
      <point x="1391.49" y="1446.91" type="line"/>
      <point x="1273.66" y="1446.91" type="line"/>
      <point x="1072" y="573.76" type="line" smooth="yes"/>
      <point x="1013.7" y="318.912"/>
      <point x="879.808" y="86.912"/>
      <point x="580.096" y="86.912" type="curve" smooth="yes"/>
      <point x="395.712" y="86.912"/>
      <point x="311.68" y="177.856"/>
      <point x="311.68" y="366.08" type="curve" smooth="yes"/>
      <point x="311.68" y="446.208"/>
      <point x="360" y="662.016"/>
      <point x="393.6" y="805.184" type="curve" smooth="yes"/>
      <point x="542.4" y="1446.91" type="line"/>
      <point x="424.576" y="1446.91" type="line"/>
      <point x="272.512" y="794.56" type="line" smooth="yes"/>
      <point x="239.104" y="651.968"/>
      <point x="192" y="439.296"/>
      <point x="192" y="361.856" type="curve" smooth="yes"/>
      <point x="192" y="108.224"/>
      <point x="342.592" y="-20.48"/>
    </contour>
  </outline>
  <guideline angle="90" name="vertical" x="869" y="0"/>
</glyph>
<glyph name="V" format="2">
  <advance width="1304"/>
  <unicode hex="0056"/>
  <outline>
    <contour>
      <point x="590.464" y="0" type="line"/>
      <point x="1450.94" y="1447.91" type="line"/>
      <point x="1331.2" y="1447.91" type="line"/>
      <point x="560" y="125.184" type="line"/>
      <point x="399.744" y="1447.91" type="line"/>
      <point x="280.256" y="1447.91" type="line"/>
      <point x="476.16" y="0" type="line"/>
    </contour>
  </outline>
</glyph>
<glyph name="W" format="2">
  <advance width="2012"/>
  <unicode hex="0057"/>
  <anchor x="1188.88" y="1620" name="top"/>
  <outline>
    <contour>
      <point x="1350.21" y="0" type="line"/>
      <point x="2080.51" y="1446.91" type="line"/>
      <point x="1960.96" y="1446.91" type="line"/>
      <point x="1296.32" y="118.08" type="line"/>
      <point x="1221.57" y="1446.91" type="line"/>
      <point x="1124.42" y="1446.91" type="line"/>
      <point x="438.976" y="118.08" type="line"/>
      <point x="383.808" y="1446.91" type="line"/>
      <point x="266.688" y="1446.91" type="line"/>
      <point x="326.912" y="0" type="line"/>
      <point x="478.08" y="0" type="line"/>
      <point x="1129.34" y="1250.3" type="line"/>
      <point x="1200.26" y="0" type="line"/>
    </contour>
  </outline>
  <guideline angle="90" name="vertical" x="1196" y="0"/>
</glyph>
<glyph name="X" format="2">
  <advance width="1170"/>
  <unicode hex="0058"/>
  <outline>
    <contour>
      <point x="988.213" y="0" type="line"/>
      <point x="682.356" y="723.968" type="line"/>
      <point x="1322.48" y="1446.91" type="line"/>
      <point x="1185.65" y="1446.91" type="line"/>
      <point x="647.412" y="825.6" type="line"/>
      <point x="401.332" y="1446.91" type="line"/>
      <point x="266.612" y="1446.91" type="line"/>
      <point x="571.637" y="723.968" type="line"/>
      <point x="-71.756" y="0" type="line"/>
      <point x="69.556" y="0" type="line"/>
      <point x="603.316" y="609.472" type="line"/>
      <point x="857.972" y="0" type="line"/>
    </contour>
  </outline>
</glyph>
<glyph name="Y" format="2">
  <advance width="1351"/>
  <unicode hex="0059"/>
  <anchor x="845.75" y="1620" name="top"/>
  <anchor x="529.875" y="-120" name="bottom"/>
  <outline>
    <contour>
      <point x="614.976" y="0" type="line"/>
      <point x="747.072" y="566.656" type="line"/>
      <point x="1481.66" y="1446.91" type="line"/>
      <point x="1346.5" y="1446.91" type="line"/>
      <point x="714.176" y="694.528" type="line"/>
      <point x="435.84" y="1446.91" type="line"/>
      <point x="305.216" y="1446.91" type="line"/>
      <point x="635.328" y="566.656" type="line"/>
      <point x="504.448" y="0" type="line"/>
    </contour>
  </outline>
  <guideline angle="90" name="vertical" x="848" y="0"/>
</glyph>
<glyph name="Z" format="2">
  <advance width="1322"/>
  <unicode hex="005A"/>
  <anchor x="883.125" y="1620" name="top"/>
  <outline>
    <contour>
      <point x="1083.46" y="0" type="line"/>
      <point x="1109.57" y="95.191" type="line"/>
      <point x="156.992" y="95.191" type="line"/>
      <point x="1394.75" y="1339.75" type="line"/>
      <point x="1417.28" y="1447.91" type="line"/>
      <point x="372.416" y="1447.91" type="line"/>
      <point x="349.76" y="1352.81" type="line"/>
      <point x="1258.5" y="1352.81" type="line"/>
      <point x="13.184" y="89.559" type="line"/>
      <point x="-6.464" y="0" type="line"/>
    </contour>
  </outline>
  <guideline angle="90" name="vertical" x="876" y="0"/>
</glyph>
<glyph name="bracketleft" format="2">
  <advance width="657"/>
  <unicode hex="005B"/>
  <outline>
    <contour>
      <point x="431.872" y="-64.576" type="line"/>
      <point x="446.272" y="-3.648" type="line"/>
      <point x="204.608" y="-3.648" type="line"/>
      <point x="539.648" y="1450.94" type="line"/>
      <point x="781.504" y="1450.94" type="line"/>
      <point x="793.856" y="1509.82" type="line"/>
      <point x="457.28" y="1509.82" type="line"/>
      <point x="94.08" y="-64.576" type="line"/>
    </contour>
  </outline>
</glyph>
<glyph name="backslash" format="2">
  <advance width="962"/>
  <unicode hex="005C"/>
  <outline>
    <contour>
      <point x="697.92" y="-441.536" type="line"/>
      <point x="401.728" y="1552.38" type="line"/>
      <point x="281.216" y="1552.38" type="line"/>
      <point x="584.064" y="-441.536" type="line"/>
    </contour>
  </outline>
</glyph>
<glyph name="bracketright" format="2">
  <advance width="657"/>
  <unicode hex="005D"/>
  <outline>
    <contour>
      <point x="296.576" y="-64.576" type="line"/>
      <point x="658.368" y="1509.82" type="line"/>
      <point x="323.008" y="1509.82" type="line"/>
      <point x="309.44" y="1450.94" type="line"/>
      <point x="551.296" y="1450.94" type="line"/>
      <point x="216.064" y="-3.648" type="line"/>
      <point x="-25.6" y="-3.648" type="line"/>
      <point x="-40" y="-64.576" type="line"/>
    </contour>
  </outline>
</glyph>
<glyph name="asciicircum" format="2">
  <advance width="1011"/>
  <unicode hex="005E"/>
  <outline>
    <contour>
      <point x="932.032" y="876.608" type="line"/>
      <point x="712.704" y="1429.57" type="line"/>
      <point x="246.016" y="876.608" type="line"/>
      <point x="369.856" y="876.608" type="line"/>
      <point x="674.56" y="1234.69" type="line"/>
      <point x="812.992" y="876.608" type="line"/>
    </contour>
  </outline>
</glyph>
<glyph name="underscore" format="2">
  <advance width="1273"/>
  <unicode hex="005F"/>
  <outline>
    <contour>
      <point x="881.984" y="-86.272" type="line"/>
      <point x="900.48" y="-3.648" type="line"/>
      <point x="135.872" y="-3.648" type="line"/>
      <point x="116.16" y="-86.272" type="line"/>
    </contour>
  </outline>
</glyph>
<glyph name="grave" format="2">
  <advance width="555"/>
  <unicode hex="0060"/>
  <outline>
    <contour>
      <point x="598.976" y="1191.94" type="line"/>
      <point x="443.072" y="1482.82" type="line"/>
      <point x="291.584" y="1482.82" type="line"/>
      <point x="486.464" y="1191.94" type="line"/>
    </contour>
  </outline>
</glyph>
<glyph name="a" format="2">
  <advance width="1151"/>
  <unicode hex="0061"/>
  <anchor x="634.313" y="1192" name="top"/>
  <anchor x="857.625" y="0" name="ogonek"/>
  <anchor x="402.813" y="-120" name="bottom"/>
  <outline>
    <contour>
      <point x="405.617" y="-20.48" type="curve" smooth="yes"/>
      <point x="545.393" y="-20.48"/>
      <point x="682.097" y="44.8"/>
      <point x="778.225" y="149.824" type="curve"/>
      <point x="744.433" y="0" type="line"/>
      <point x="857.201" y="0" type="line"/>
      <point x="1100.53" y="1063.94" type="line"/>
      <point x="990.769" y="1063.94" type="line"/>
      <point x="950.321" y="896.576" type="line"/>
      <point x="888.305" y="1030.34"/>
      <point x="781.553" y="1084.42"/>
      <point x="637.745" y="1084.42" type="curve" smooth="yes"/>
      <point x="292.336" y="1084.42"/>
      <point x="90.8" y="652.8"/>
      <point x="90.8" y="354.368" type="curve" smooth="yes"/>
      <point x="90.8" y="151.936"/>
      <point x="181.808" y="-20.48"/>
    </contour>
    <contour>
      <point x="434.673" y="76.16" type="curve" smooth="yes"/>
      <point x="263.345" y="76.16"/>
      <point x="200.241" y="196.864"/>
      <point x="200.241" y="352.576" type="curve" smooth="yes"/>
      <point x="200.241" y="614.336"/>
      <point x="360.944" y="983.36"/>
      <point x="665.713" y="983.36" type="curve" smooth="yes"/>
      <point x="834.289" y="983.36"/>
      <point x="900.337" y="869.248"/>
      <point x="900.337" y="712.192" type="curve" smooth="yes"/>
      <point x="900.337" y="449.6"/>
      <point x="742.129" y="76.16"/>
    </contour>
  </outline>
  <guideline angle="90" name="vertical" x="636" y="0"/>
</glyph>
<glyph name="b" format="2">
  <advance width="1164"/>
  <unicode hex="0062"/>
  <outline>
    <contour>
      <point x="539.392" y="-20.48" type="curve" smooth="yes"/>
      <point x="885.632" y="-20.48"/>
      <point x="1082.88" y="415.36"/>
      <point x="1082.88" y="710.976" type="curve" smooth="yes"/>
      <point x="1082.88" y="914.24"/>
      <point x="991.68" y="1087.87"/>
      <point x="765.632" y="1087.87" type="curve" smooth="yes"/>
      <point x="612.544" y="1087.87"/>
      <point x="489.664" y="1017.34"/>
      <point x="387.456" y="904.064" type="curve"/>
      <point x="530.048" y="1447.3" type="line"/>
      <point x="422.272" y="1447.3" type="line"/>
      <point x="74.944" y="0" type="line"/>
      <point x="182.72" y="0" type="line"/>
      <point x="223.168" y="168.768" type="line"/>
      <point x="280.512" y="25.92"/>
      <point x="393.792" y="-20.48"/>
    </contour>
    <contour>
      <point x="502.336" y="68.864" type="curve" smooth="yes"/>
      <point x="331.2" y="68.864"/>
      <point x="270.912" y="193.216"/>
      <point x="270.912" y="346.112" type="curve" smooth="yes"/>
      <point x="270.912" y="607.872"/>
      <point x="429.632" y="995.328"/>
      <point x="738.432" y="995.328" type="curve" smooth="yes"/>
      <point x="912.64" y="995.328"/>
      <point x="975.296" y="859.008"/>
      <point x="975.296" y="703.68" type="curve" smooth="yes"/>
      <point x="975.296" y="439.68"/>
      <point x="809.152" y="68.864"/>
    </contour>
  </outline>
</glyph>
<glyph name="c" format="2">
  <advance width="1015"/>
  <unicode hex="0063"/>
  <anchor x="663.188" y="1192" name="top"/>
  <anchor x="449.688" y="0" name="cedilla"/>
  <outline>
    <contour>
      <point x="439.488" y="-20.48" type="curve" smooth="yes"/>
      <point x="622.528" y="-20.48"/>
      <point x="779.776" y="84.48"/>
      <point x="869.696" y="241.216" type="curve"/>
      <point x="785.984" y="291.456" type="line"/>
      <point x="723.456" y="168.192"/>
      <point x="586.624" y="72.96"/>
      <point x="445.184" y="72.96" type="curve" smooth="yes"/>
      <point x="264.96" y="72.96"/>
      <point x="207.168" y="202.368"/>
      <point x="207.168" y="362.304" type="curve" smooth="yes"/>
      <point x="207.168" y="613.056"/>
      <point x="358.08" y="985.664"/>
      <point x="653.056" y="985.664" type="curve" smooth="yes"/>
      <point x="780.736" y="985.664"/>
      <point x="883.136" y="902.272"/>
      <point x="891.904" y="772.672" type="curve"/>
      <point x="1000" y="819.072" type="line"/>
      <point x="957.44" y="992.448"/>
      <point x="834.432" y="1081.34"/>
      <point x="662.72" y="1081.34" type="curve" smooth="yes"/>
      <point x="307.904" y="1081.34"/>
      <point x="96.96" y="681.472"/>
      <point x="96.96" y="368.32" type="curve" smooth="yes"/>
      <point x="96.96" y="148.928"/>
      <point x="201.728" y="-20.48"/>
    </contour>
  </outline>
  <guideline angle="90" name="vertical" x="666" y="0"/>
</glyph>
<glyph name="d" format="2">
  <advance width="1173"/>
  <unicode hex="0064"/>
  <outline>
    <contour>
      <point x="405.616" y="-20.48" type="curve" smooth="yes"/>
      <point x="557.553" y="-20.48"/>
      <point x="676.016" y="35.072"/>
      <point x="778.225" y="149.824" type="curve"/>
      <point x="744.433" y="0" type="line"/>
      <point x="857.201" y="0" type="line"/>
      <point x="1205.08" y="1446.91" type="line"/>
      <point x="1083.45" y="1446.91" type="line"/>
      <point x="948.446" y="897.408" type="line"/>
      <point x="889.255" y="1031.17"/>
      <point x="778.389" y="1085.44"/>
      <point x="637.745" y="1085.44" type="curve" smooth="yes"/>
      <point x="292.337" y="1085.44"/>
      <point x="90.8005" y="654.016"/>
      <point x="90.8005" y="354.368" type="curve" smooth="yes"/>
      <point x="90.8005" y="151.936"/>
      <point x="178.161" y="-20.48"/>
    </contour>
    <contour>
      <point x="435.889" y="76.16" type="curve" smooth="yes"/>
      <point x="264.56" y="76.16"/>
      <point x="200.24" y="196.864"/>
      <point x="200.24" y="352.576" type="curve" smooth="yes"/>
      <point x="200.24" y="614.336"/>
      <point x="360.945" y="984.384"/>
      <point x="665.712" y="984.384" type="curve" smooth="yes"/>
      <point x="834.288" y="984.384"/>
      <point x="901.553" y="868.864"/>
      <point x="901.553" y="711.808" type="curve" smooth="yes"/>
      <point x="901.553" y="451.648"/>
      <point x="740.913" y="76.16"/>
    </contour>
  </outline>
</glyph>
<glyph name="e" format="2">
  <advance width="1076"/>
  <unicode hex="0065"/>
  <anchor x="701.625" y="1192" name="top"/>
  <anchor x="542.563" y="0" name="ogonek"/>
  <anchor x="451.5" y="-120" name="bottom"/>
  <outline>
    <contour>
      <point x="451.132" y="-20.48" type="curve" smooth="yes"/>
      <point x="601.788" y="-20.48"/>
      <point x="753.788" y="27.328"/>
      <point x="870.844" y="128" type="curve"/>
      <point x="802.236" y="187.2" type="line"/>
      <point x="707.068" y="101.632"/>
      <point x="582.14" y="72.128"/>
      <point x="457.852" y="72.128" type="curve" smooth="yes"/>
      <point x="289.276" y="72.128"/>
      <point x="202.748" y="187.2"/>
      <point x="202.748" y="358.464" type="curve" smooth="yes"/>
      <point x="202.748" y="402.56"/>
      <point x="210.3" y="449.216"/>
      <point x="219.708" y="494.016" type="curve"/>
      <point x="963.772" y="494.016" type="line"/>
      <point x="987.388" y="578.112"/>
      <point x="1003.96" y="649.472"/>
      <point x="1003.96" y="743.552" type="curve" smooth="yes"/>
      <point x="1003.96" y="968.768"/>
      <point x="882.62" y="1084.42"/>
      <point x="660.924" y="1084.42" type="curve" smooth="yes"/>
      <point x="304.316" y="1084.42"/>
      <point x="92.412" y="676.992"/>
      <point x="92.412" y="359.424" type="curve" smooth="yes"/>
      <point x="92.412" y="132.672"/>
      <point x="217.852" y="-20.48"/>
    </contour>
    <contour>
      <point x="884.348" y="593.984" type="curve"/>
      <point x="241.66" y="593.984" type="line"/>
      <point x="290.236" y="790.4"/>
      <point x="428.54" y="982.72"/>
      <point x="647.548" y="982.72" type="curve" smooth="yes"/>
      <point x="800.06" y="982.72"/>
      <point x="911.74" y="913.792"/>
      <point x="911.74" y="748.416" type="curve" smooth="yes"/>
      <point x="911.74" y="694.528"/>
      <point x="898.556" y="643.456"/>
    </contour>
  </outline>
  <guideline angle="90" name="vertical" x="705" y="0"/>
  <guideline angle="136.081" x="883" y="131"/>
</glyph>
<glyph name="f" format="2">
  <advance width="726"/>
  <unicode hex="0066"/>
  <outline>
    <contour>
      <point x="194.688" y="0" type="line"/>
      <point x="433.28" y="977.856" type="line"/>
      <point x="747.712" y="977.856" type="line"/>
      <point x="768.704" y="1063.94" type="line"/>
      <point x="450.624" y="1063.94" type="line"/>
      <point x="464.32" y="1116.86" type="line" smooth="yes"/>
      <point x="518.208" y="1318.72"/>
      <point x="557.312" y="1376"/>
      <point x="687.808" y="1376" type="curve" smooth="yes"/>
      <point x="732.288" y="1376"/>
      <point x="775.936" y="1364.99"/>
      <point x="818.752" y="1349.25" type="curve"/>
      <point x="855.36" y="1429.63" type="line"/>
      <point x="808.064" y="1456.7"/>
      <point x="752.896" y="1468.42"/>
      <point x="695.936" y="1468.42" type="curve" smooth="yes"/>
      <point x="536.96" y="1468.42"/>
      <point x="425.364" y="1384.72"/>
      <point x="387.84" y="1245.5" type="curve" smooth="yes"/>
      <point x="338.816" y="1063.89" type="line"/>
      <point x="133.632" y="1063.89" type="line"/>
      <point x="112.448" y="977.856" type="line"/>
      <point x="319.424" y="977.856" type="line"/>
      <point x="83.264" y="0" type="line"/>
    </contour>
  </outline>
</glyph>
<glyph name="g" format="2">
  <advance width="1154"/>
  <unicode hex="0067"/>
  <anchor x="705.75" y="1192" name="top"/>
  <outline>
    <contour>
      <point x="337.904" y="-442.432" type="curve" smooth="yes"/>
      <point x="652.337" y="-442.432"/>
      <point x="798.448" y="-243.84"/>
      <point x="864.433" y="38.528" type="curve" smooth="yes"/>
      <point x="1106.16" y="1063.94" type="line"/>
      <point x="991.153" y="1063.94" type="line"/>
      <point x="950.705" y="894.976" type="line"/>
      <point x="893.168" y="1028.86"/>
      <point x="788.081" y="1085.44"/>
      <point x="649.072" y="1085.44" type="curve" smooth="yes"/>
      <point x="289.137" y="1085.44"/>
      <point x="90.4165" y="661.056"/>
      <point x="90.4165" y="348.864" type="curve" smooth="yes"/>
      <point x="90.4165" y="139.392"/>
      <point x="186.288" y="-24.32"/>
      <point x="414.961" y="-24.32" type="curve" smooth="yes"/>
      <point x="560.177" y="-24.32"/>
      <point x="690.16" y="48.64"/>
      <point x="786.865" y="157.056" type="curve"/>
      <point x="748.273" y="5.376" type="line" smooth="yes"/>
      <point x="697.777" y="-188.864"/>
      <point x="552.304" y="-350.784"/>
      <point x="336.752" y="-350.784" type="curve" smooth="yes"/>
      <point x="228.337" y="-350.784"/>
      <point x="126" y="-307.648"/>
      <point x="80.5605" y="-191.552" type="curve"/>
      <point x="-16.3355" y="-244.48" type="line"/>
      <point x="39.4725" y="-391.168"/>
      <point x="193.137" y="-442.432"/>
    </contour>
    <contour>
      <point x="435.12" y="66.24" type="curve" smooth="yes"/>
      <point x="263.601" y="66.24"/>
      <point x="200.048" y="190.976"/>
      <point x="200.048" y="346.687" type="curve" smooth="yes"/>
      <point x="200.048" y="609.215"/>
      <point x="363.44" y="991.678"/>
      <point x="670.961" y="991.678" type="curve" smooth="yes"/>
      <point x="839.472" y="991.678"/>
      <point x="902.769" y="867.518"/>
      <point x="902.769" y="715.646" type="curve" smooth="yes"/>
      <point x="902.769" y="456.767"/>
      <point x="738.992" y="66.24"/>
    </contour>
  </outline>
  <guideline angle="77" name="vertical" x="434.009" y="0"/>
</glyph>
<glyph name="h" format="2">
  <advance width="1159"/>
  <unicode hex="0068"/>
  <anchor x="451.375" y="1620" name="top"/>
  <outline>
    <contour>
      <point x="758.625" y="0" type="line"/>
      <point x="872.75" y="0" type="line"/>
      <point x="1021.44" y="657.688" type="line"/>
      <point x="1031.4" y="704.794"/>
      <point x="1037.25" y="753.438"/>
      <point x="1037.25" y="798.625" type="curve" smooth="yes"/>
      <point x="1037.25" y="951.25"/>
      <point x="969.812" y="1084"/>
      <point x="765.812" y="1084" type="curve" smooth="yes"/>
      <point x="624.375" y="1084"/>
      <point x="479.062" y="973.313"/>
      <point x="377.75" y="861.563" type="curve"/>
      <point x="317.5" y="861.563" type="line"/>
      <point x="245.063" y="579.188" type="line"/>
      <point x="292.876" y="579.188" type="line"/>
      <point x="344.876" y="778"/>
      <point x="533.25" y="980.625"/>
      <point x="748.938" y="980.625" type="curve" smooth="yes"/>
      <point x="874.438" y="980.625"/>
      <point x="925.312" y="906.188"/>
      <point x="925.312" y="787.625" type="curve" smooth="yes"/>
      <point x="925.312" y="735.813"/>
      <point x="922.899" y="696.199"/>
      <point x="881.812" y="524.25" type="curve" smooth="yes"/>
    </contour>
    <contour>
      <point x="57.4375" y="0" type="line"/>
      <point x="164.688" y="0" type="line"/>
      <point x="511.875" y="1448" type="line"/>
      <point x="404.625" y="1448" type="line"/>
    </contour>
  </outline>
  <guideline angle="256.888" x="825" y="322"/>
  <guideline angle="90" name="vertical" x="460" y="0"/>
</glyph>
<glyph name="i" format="2">
  <advance width="487"/>
  <unicode hex="0069"/>
  <anchor x="196.688" y="0" name="ogonek"/>
  <anchor x="124.375" y="-120" name="bottom"/>
  <outline>
    <contour>
      <point x="465.5" y="1268.06" type="line"/>
      <point x="507.625" y="1447" type="line"/>
      <point x="393" y="1447" type="line"/>
      <point x="350.688" y="1268.06" type="line"/>
    </contour>
    <contour>
      <point x="196.688" y="0" type="line"/>
      <point x="430.5" y="1064" type="line"/>
      <point x="315.875" y="1064" type="line"/>
      <point x="81.875" y="0" type="line"/>
    </contour>
  </outline>
</glyph>
<glyph name="j" format="2">
  <advance width="520"/>
  <unicode hex="006A"/>
  <outline>
    <contour>
      <point x="489.728" y="1267.58" type="line"/>
      <point x="534.464" y="1454.21" type="line"/>
      <point x="408.448" y="1454.21" type="line"/>
      <point x="364.928" y="1267.58" type="line"/>
    </contour>
    <contour>
      <point x="-161.792" y="-449.728" type="curve" smooth="yes"/>
      <point x="13.248" y="-449.728"/>
      <point x="117.696" y="-338.24"/>
      <point x="155.456" y="-173.504" type="curve" smooth="yes"/>
      <point x="444.096" y="1063.94" type="line"/>
      <point x="319.296" y="1063.94" type="line"/>
      <point x="26.432" y="-189.248" type="line" smooth="yes"/>
      <point x="6.592" y="-276.16"/>
      <point x="-47.68" y="-340.992"/>
      <point x="-144.96" y="-340.992" type="curve" smooth="yes"/>
      <point x="-185.664" y="-340.992"/>
      <point x="-226.56" y="-336.896"/>
      <point x="-267.84" y="-325.056" type="curve"/>
      <point x="-308.736" y="-419.136" type="line"/>
      <point x="-262.912" y="-437.44"/>
      <point x="-213.248" y="-449.728"/>
    </contour>
  </outline>
</glyph>
<glyph name="k" format="2">
  <advance width="1088"/>
  <unicode hex="006B"/>
  <anchor x="459.875" y="-120" name="bottom"/>
  <outline>
    <contour>
      <point x="1081.32" y="1063.94" type="line"/>
      <point x="944.809" y="1063.94" type="line"/>
      <point x="272.745" y="441.792" type="line"/>
      <point x="240.041" y="289.408" type="line"/>
    </contour>
    <contour>
      <point x="909.737" y="0" type="line"/>
      <point x="654.889" y="706.688" type="line"/>
      <point x="568.425" y="613.248" type="line"/>
      <point x="777.705" y="0" type="line"/>
    </contour>
    <contour>
      <point x="67.625" y="0" type="line"/>
      <point x="174.875" y="0" type="line"/>
      <point x="522.063" y="1448" type="line"/>
      <point x="414.813" y="1448" type="line"/>
    </contour>
  </outline>
</glyph>
<glyph name="l" format="2">
  <advance width="523"/>
  <unicode hex="006C"/>
  <anchor x="434.438" y="1620" name="top"/>
  <anchor x="140.5" y="-120" name="bottom"/>
  <anchor x="629.875" y="774" name="center"/>
  <outline>
    <contour>
      <point x="187.328" y="-20.48" type="curve" smooth="yes"/>
      <point x="230.208" y="-20.48"/>
      <point x="269.952" y="-14.336"/>
      <point x="306.944" y="-2.048" type="curve"/>
      <point x="324.16" y="85.504" type="line"/>
      <point x="293.312" y="74.304"/>
      <point x="258.56" y="68.8"/>
      <point x="219.904" y="68.8" type="curve" smooth="yes"/>
      <point x="199.04" y="68.8"/>
      <point x="178.368" y="83.52"/>
      <point x="178.368" y="108.096" type="curve"/>
      <point x="499.127" y="1447.94" type="line"/>
      <point x="384.293" y="1447.94" type="line"/>
      <point x="85.693" y="171.456" type="line" smooth="yes"/>
      <point x="78.511" y="142.979"/>
      <point x="70.781" y="113.92"/>
      <point x="70.781" y="83.264" type="curve" smooth="yes"/>
      <point x="70.781" y="0.64"/>
      <point x="117.901" y="-20.48"/>
    </contour>
  </outline>
  <guideline angle="90" name="vertical" x="441" y="0"/>
</glyph>
<glyph name="m" format="2">
  <advance width="1780"/>
  <unicode hex="006D"/>
  <outline>
    <contour>
      <point x="1493.39" y="0" type="line"/>
      <point x="1637.52" y="642.304" type="line" smooth="yes"/>
      <point x="1648.97" y="693.632"/>
      <point x="1655.31" y="743.744"/>
      <point x="1655.31" y="793.024" type="curve" smooth="yes"/>
      <point x="1655.31" y="982.4"/>
      <point x="1557.01" y="1084.42"/>
      <point x="1368.91" y="1084.42" type="curve" smooth="yes"/>
      <point x="1192.65" y="1084.42"/>
      <point x="1084.24" y="981.568"/>
      <point x="998.543" y="843.008" type="curve"/>
      <point x="995.215" y="993.856"/>
      <point x="887.438" y="1084.42"/>
      <point x="712.783" y="1084.42" type="curve" smooth="yes"/>
      <point x="578.126" y="1084.42"/>
      <point x="510.862" y="1043.26"/>
      <point x="389.454" y="909.376" type="curve"/>
      <point x="380.43" y="909.376" type="line"/>
      <point x="416.462" y="1063.94" type="line"/>
      <point x="302.671" y="1063.94" type="line"/>
      <point x="58.9585" y="0" type="line"/>
      <point x="171.726" y="0" type="line"/>
      <point x="312.526" y="613.632" type="line" smooth="yes"/>
      <point x="353.615" y="795.264"/>
      <point x="505.359" y="999.296"/>
      <point x="706.831" y="999.296" type="curve" smooth="yes"/>
      <point x="836.942" y="999.296"/>
      <point x="885.582" y="922.688"/>
      <point x="885.582" y="801.28" type="curve" smooth="yes"/>
      <point x="885.582" y="751.744"/>
      <point x="879.246" y="701.12"/>
      <point x="867.598" y="651.84" type="curve" smooth="yes"/>
      <point x="716.942" y="0" type="line"/>
      <point x="830.351" y="0" type="line"/>
      <point x="972.366" y="613.632" type="line" smooth="yes"/>
      <point x="1015.05" y="795.264"/>
      <point x="1160.33" y="999.296"/>
      <point x="1362" y="999.296" type="curve" smooth="yes"/>
      <point x="1496.97" y="999.296"/>
      <point x="1546.83" y="918.208"/>
      <point x="1546.83" y="792.32" type="curve" smooth="yes"/>
      <point x="1546.83" y="755.52"/>
      <point x="1547.6" y="720.704"/>
      <point x="1515.28" y="583.488" type="curve" smooth="yes"/>
      <point x="1377.61" y="0" type="line"/>
    </contour>
  </outline>
  <guideline angle="256.769" x="1451" y="353"/>
</glyph>
<glyph name="n" format="2">
  <advance width="1163"/>
  <unicode hex="006E"/>
  <anchor x="769.625" y="1192" name="top"/>
  <anchor x="441.875" y="-120" name="bottom"/>
  <outline>
    <component base="dotlessi" xOffset="-8"/>
    <contour>
      <point x="762.438" y="0" type="line"/>
      <point x="876.563" y="0" type="line"/>
      <point x="1025.25" y="657.688" type="line"/>
      <point x="1035.21" y="704.794"/>
      <point x="1041.06" y="753.438"/>
      <point x="1041.06" y="798.625" type="curve" smooth="yes"/>
      <point x="1041.06" y="951.25"/>
      <point x="973.625" y="1084"/>
      <point x="769.625" y="1084" type="curve" smooth="yes"/>
      <point x="628.188" y="1084"/>
      <point x="482.875" y="973.313"/>
      <point x="381.563" y="861.563" type="curve"/>
      <point x="321.313" y="861.563" type="line"/>
      <point x="248.875" y="579.188" type="line"/>
      <point x="296.688" y="579.188" type="line"/>
      <point x="348.688" y="778"/>
      <point x="537.063" y="980.625"/>
      <point x="752.75" y="980.625" type="curve" smooth="yes"/>
      <point x="878.25" y="980.625"/>
      <point x="929.125" y="906.188"/>
      <point x="929.125" y="787.625" type="curve" smooth="yes"/>
      <point x="929.125" y="735.813"/>
      <point x="926.711" y="696.199"/>
      <point x="885.625" y="524.25" type="curve" smooth="yes"/>
    </contour>
  </outline>
  <guideline angle="257.135" x="302" y="1064"/>
  <guideline angle="77.2698" x="193" y="0"/>
  <guideline angle="257.161" x="908" y="645"/>
  <guideline angle="77.3441" x="895" y="0"/>
  <guideline angle="90" name="vertical" x="770" y="0"/>
</glyph>
<glyph name="o" format="2">
  <advance width="1175"/>
  <unicode hex="006F"/>
  <anchor x="745.5" y="1192" name="top"/>
  <anchor x="553.688" y="0" name="ogonek"/>
  <anchor x="1352.75" y="1064" name="pos"/>
  <anchor x="455.875" y="-120" name="bottom"/>
  <outline>
    <contour>
      <point x="474.901" y="-20.48" type="curve" smooth="yes"/>
      <point x="819.093" y="-20.48"/>
      <point x="1087.32" y="341.888"/>
      <point x="1087.32" y="665.408" type="curve" smooth="yes"/>
      <point x="1087.32" y="891.968"/>
      <point x="942.805" y="1084.42"/>
      <point x="704.597" y="1084.42" type="curve" smooth="yes"/>
      <point x="354.133" y="1084.42"/>
      <point x="94.613" y="710.208"/>
      <point x="94.613" y="382.656" type="curve" smooth="yes"/>
      <point x="94.613" y="154.304"/>
      <point x="237.525" y="-20.48"/>
    </contour>
    <contour>
      <point x="478.165" y="82.686" type="curve" smooth="yes"/>
      <point x="305.749" y="82.686"/>
      <point x="208.725" y="207.87"/>
      <point x="208.725" y="372.798" type="curve" smooth="yes"/>
      <point x="208.725" y="642.367"/>
      <point x="404.373" y="981.248"/>
      <point x="701.525" y="981.248" type="curve" smooth="yes"/>
      <point x="877.013" y="981.248"/>
      <point x="971.989" y="857.216"/>
      <point x="971.989" y="687.807" type="curve" smooth="yes"/>
      <point x="971.989" y="413.183"/>
      <point x="783.637" y="82.686"/>
    </contour>
  </outline>
  <guideline angle="90" name="vertical" x="744" y="0"/>
</glyph>
<glyph name="p" format="2">
  <advance width="1157"/>
  <unicode hex="0070"/>
  <outline>
    <contour>
      <point x="64.4145" y="-449.728" type="line"/>
      <point x="214.623" y="169.984" type="line"/>
      <point x="271.774" y="32.192"/>
      <point x="379.55" y="-20.48"/>
      <point x="523.551" y="-20.48" type="curve" smooth="yes"/>
      <point x="875.231" y="-20.48"/>
      <point x="1075.36" y="407.04"/>
      <point x="1075.36" y="711.168" type="curve" smooth="yes"/>
      <point x="1075.36" y="914.624"/>
      <point x="979.486" y="1084.42"/>
      <point x="755.678" y="1084.42" type="curve" smooth="yes"/>
      <point x="602.975" y="1084.42"/>
      <point x="478.878" y="1020.99"/>
      <point x="377.695" y="905.28" type="curve"/>
      <point x="418.846" y="1063.94" type="line"/>
      <point x="307.935" y="1063.94" type="line"/>
      <point x="-46.5615" y="-449.728" type="line"/>
    </contour>
    <contour>
      <point x="491.743" y="68.864" type="curve" smooth="yes"/>
      <point x="317.983" y="68.864"/>
      <point x="260.959" y="199.104"/>
      <point x="260.959" y="352.576" type="curve" smooth="yes"/>
      <point x="260.959" y="608.64"/>
      <point x="425.118" y="991.296"/>
      <point x="725.407" y="991.296" type="curve" smooth="yes"/>
      <point x="899.615" y="991.296"/>
      <point x="969.375" y="863.488"/>
      <point x="969.375" y="705.92" type="curve" smooth="yes"/>
      <point x="969.375" y="443.712"/>
      <point x="794.335" y="68.864"/>
    </contour>
  </outline>
</glyph>
<glyph name="q" format="2">
  <advance width="1181"/>
  <unicode hex="0071"/>
  <outline>
    <contour>
      <point x="760.512" y="-449.728" type="line"/>
      <point x="1113.6" y="1063.94" type="line"/>
      <point x="1001.09" y="1063.94" type="line"/>
      <point x="959.36" y="897.408" type="line"/>
      <point x="900.992" y="1033.6"/>
      <point x="794.24" y="1084.42"/>
      <point x="650.432" y="1084.42" type="curve" smooth="yes"/>
      <point x="302.592" y="1084.42"/>
      <point x="101.056" y="658.88"/>
      <point x="101.056" y="355.584" type="curve" smooth="yes"/>
      <point x="101.056" y="151.936"/>
      <point x="188.416" y="-20.48"/>
      <point x="415.872" y="-20.48" type="curve" smooth="yes"/>
      <point x="573.44" y="-20.48"/>
      <point x="688.832" y="44.16"/>
      <point x="796.288" y="159.872" type="curve"/>
      <point x="646.72" y="-449.728" type="line"/>
    </contour>
    <contour>
      <point x="442.496" y="68.864" type="curve" smooth="yes"/>
      <point x="267.52" y="68.864"/>
      <point x="210.496" y="195.648"/>
      <point x="210.496" y="350.144" type="curve" smooth="yes"/>
      <point x="210.496" y="613.12"/>
      <point x="369.984" y="991.68"/>
      <point x="678.4" y="991.68" type="curve" smooth="yes"/>
      <point x="848.192" y="991.68"/>
      <point x="910.592" y="868.864"/>
      <point x="910.592" y="715.456" type="curve" smooth="yes"/>
      <point x="910.592" y="452.864"/>
      <point x="749.952" y="68.864"/>
    </contour>
  </outline>
</glyph>
<glyph name="r" format="2">
  <advance width="836"/>
  <unicode hex="0072"/>
  <anchor x="617.688" y="1192" name="top"/>
  <anchor x="102.375" y="-120" name="bottom"/>
  <outline>
    <contour>
      <point x="174.891" y="0" type="line"/>
      <point x="309.611" y="561.6" type="line" smooth="yes"/>
      <point x="355.179" y="751.488"/>
      <point x="512.811" y="995.008"/>
      <point x="735.467" y="995.008" type="curve" smooth="yes"/>
      <point x="779.499" y="995.008"/>
      <point x="826.347" y="983.744"/>
      <point x="856.747" y="949.248" type="curve"/>
      <point x="895.659" y="1037.18" type="line"/>
      <point x="852.331" y="1065.86"/>
      <point x="791.659" y="1079.3"/>
      <point x="741.611" y="1079.3" type="curve" smooth="yes"/>
      <point x="572.523" y="1079.3"/>
      <point x="435.691" y="977.6"/>
      <point x="367.147" y="831.424" type="curve"/>
      <point x="421.611" y="1063.94" type="line"/>
      <point x="302.699" y="1063.94" type="line"/>
      <point x="57.771" y="0" type="line"/>
    </contour>
  </outline>
  <guideline angle="90" name="vertical" x="619" y="0"/>
</glyph>
<glyph name="s" format="2">
  <advance width="907"/>
  <unicode hex="0073"/>
  <anchor x="515.375" y="1192" name="top"/>
  <anchor x="393" y="0" name="cedilla"/>
  <anchor x="374.688" y="-120" name="bottom"/>
  <outline>
    <contour>
      <point x="39.875" y="215.625" type="line"/>
      <point x="75.25" y="144.5"/>
      <point x="129.5" y="83.813"/>
      <point x="193.813" y="44.125" type="curve" smooth="yes"/>
      <point x="259.313" y="3.25"/>
      <point x="331.875" y="-22.375"/>
      <point x="405.5" y="-22.375" type="curve" smooth="yes"/>
      <point x="500.313" y="-22.375"/>
      <point x="587.875" y="15.625"/>
      <point x="652.375" y="74.875" type="curve" smooth="yes"/>
      <point x="715.688" y="131.938"/>
      <point x="757.313" y="211.625"/>
      <point x="757.313" y="297.563" type="curve" smooth="yes"/>
      <point x="757.313" y="348.25"/>
      <point x="742.313" y="391.875"/>
      <point x="706.938" y="434.063" type="curve" smooth="yes"/>
      <point x="670.375" y="476.25"/>
      <point x="612.813" y="516.813"/>
      <point x="526.688" y="562.938" type="curve"/>
      <point x="358" y="657.75" type="line"/>
      <point x="316.063" y="679.5"/>
      <point x="292.875" y="725.25"/>
      <point x="292.875" y="782.125" type="curve" smooth="yes"/>
      <point x="292.875" y="837.688"/>
      <point x="316.188" y="885.688"/>
      <point x="350.688" y="917.375" type="curve" smooth="yes"/>
      <point x="387.563" y="951.625"/>
      <point x="439" y="972.125"/>
      <point x="498.625" y="972.125" type="curve" smooth="yes"/>
      <point x="551.125" y="972.125"/>
      <point x="600.25" y="956.563"/>
      <point x="639.813" y="930" type="curve" smooth="yes"/>
      <point x="680.75" y="903.438"/>
      <point x="713.5" y="865.313"/>
      <point x="730.5" y="820.375" type="curve"/>
      <point x="833.375" y="877.25" type="line"/>
      <point x="810.688" y="939.5"/>
      <point x="765.813" y="989.938"/>
      <point x="708.313" y="1026.56" type="curve" smooth="yes"/>
      <point x="652" y="1062"/>
      <point x="585.063" y="1082.81"/>
      <point x="514.125" y="1082.81" type="curve" smooth="yes"/>
      <point x="420.125" y="1082.81"/>
      <point x="336.75" y="1048.38"/>
      <point x="275.438" y="991.313" type="curve" smooth="yes"/>
      <point x="215.313" y="934.438"/>
      <point x="175.875" y="856.938"/>
      <point x="175.875" y="771" type="curve" smooth="yes"/>
      <point x="175.875" y="717.563"/>
      <point x="189.875" y="675.125"/>
      <point x="222.25" y="635.125" type="curve" smooth="yes"/>
      <point x="253.438" y="595.125"/>
      <point x="302.813" y="558.563"/>
      <point x="376.125" y="518.25" type="curve" smooth="yes"/>
      <point x="560.188" y="419.438" type="line"/>
      <point x="610.125" y="393.688"/>
      <point x="638.313" y="343.375"/>
      <point x="638.313" y="283.5" type="curve" smooth="yes"/>
      <point x="638.313" y="229.5"/>
      <point x="610.25" y="180.125"/>
      <point x="566.625" y="142.313" type="curve" smooth="yes"/>
      <point x="523.188" y="104.5"/>
      <point x="461.438" y="81.813"/>
      <point x="397.813" y="81.813" type="curve" smooth="yes"/>
      <point x="342.813" y="81.813"/>
      <point x="289.25" y="101.188"/>
      <point x="243.5" y="137.313" type="curve"/>
      <point x="197.75" y="171.063"/>
      <point x="160" y="220.375"/>
      <point x="137.063" y="279.688" type="curve"/>
    </contour>
  </outline>
  <guideline angle="90" name="vertical" x="524" y="0"/>
</glyph>
<glyph name="u" format="2">
  <advance width="1165"/>
  <unicode hex="0075"/>
  <anchor x="706" y="1192" name="top"/>
  <anchor x="856.438" y="0" name="ogonek"/>
  <anchor x="1342.56" y="1064" name="pos"/>
  <anchor x="413.375" y="-120" name="bottom"/>
  <outline>
    <contour>
      <point x="410.25" y="-24" type="curve" smooth="yes"/>
      <point x="560.438" y="-24"/>
      <point x="725.938" y="77.75"/>
      <point x="796.625" y="203.438" type="curve"/>
      <point x="746.5" y="0" type="line"/>
      <point x="856.438" y="0" type="line"/>
      <point x="1100.06" y="1064" type="line"/>
      <point x="992.813" y="1064" type="line"/>
      <point x="814.438" y="329.688" type="line" smooth="yes"/>
      <point x="793.625" y="243.125"/>
      <point x="603.75" y="59.625"/>
      <point x="399.375" y="59.625" type="curve" smooth="yes"/>
      <point x="273.563" y="59.625"/>
      <point x="233.125" y="141.188"/>
      <point x="233.125" y="256.813" type="curve" smooth="yes"/>
      <point x="233.125" y="309.125"/>
      <point x="240.5" y="359.75"/>
      <point x="251.875" y="409.063" type="curve" smooth="yes"/>
      <point x="400.625" y="1064" type="line"/>
      <point x="290.25" y="1064" type="line"/>
      <point x="149.688" y="435.75" type="line" smooth="yes"/>
      <point x="137.313" y="381.625"/>
      <point x="129.938" y="327.5"/>
      <point x="129.938" y="268.625" type="curve" smooth="yes"/>
      <point x="129.938" y="83.688"/>
      <point x="219.688" y="-24"/>
    </contour>
  </outline>
  <guideline angle="257.394" x="282" y="1064"/>
  <guideline angle="90" name="vertical" x="706" y="0"/>
</glyph>
<glyph name="v" format="2">
  <advance width="998"/>
  <unicode hex="0076"/>
  <outline>
    <contour>
      <point x="431.808" y="0" type="line"/>
      <point x="1059.65" y="1063.94" type="line"/>
      <point x="938.112" y="1063.94" type="line"/>
      <point x="408.128" y="143.744" type="line"/>
      <point x="310.144" y="1063.94" type="line"/>
      <point x="189.888" y="1063.94" type="line"/>
      <point x="324.608" y="0" type="line"/>
    </contour>
  </outline>
</glyph>
<glyph name="w" format="2">
  <advance width="1487"/>
  <unicode hex="0077"/>
  <anchor x="885.063" y="1192" name="top"/>
  <outline>
    <contour>
      <point x="350.528" y="-0.448" type="line"/>
      <point x="837.568" y="917.44" type="line"/>
      <point x="891.136" y="0" type="line"/>
      <point x="1009.92" y="0" type="line"/>
      <point x="1540.61" y="1063.94" type="line"/>
      <point x="1419.14" y="1063.94" type="line"/>
      <point x="976" y="148.864" type="line"/>
      <point x="923.264" y="1063.94" type="line"/>
      <point x="812.288" y="1063.94" type="line"/>
      <point x="333.952" y="146.816" type="line"/>
      <point x="311.808" y="1063.94" type="line"/>
      <point x="198.4" y="1063.94" type="line"/>
      <point x="234.88" y="-0.448" type="line"/>
    </contour>
  </outline>
  <guideline angle="90" name="vertical" x="886" y="0"/>
</glyph>
<glyph name="x" format="2">
  <advance width="948"/>
  <unicode hex="0078"/>
  <outline>
    <contour>
      <point x="758.848" y="0" type="line"/>
      <point x="530.176" y="545.088" type="line"/>
      <point x="992.128" y="1063.94" type="line"/>
      <point x="858.624" y="1063.94" type="line"/>
      <point x="495.936" y="648.064" type="line"/>
      <point x="330.752" y="1063.94" type="line"/>
      <point x="198.016" y="1063.94" type="line"/>
      <point x="424.64" y="551.168" type="line"/>
      <point x="-65.856" y="0" type="line"/>
      <point x="75.328" y="0" type="line"/>
      <point x="457.28" y="447.36" type="line"/>
      <point x="626.496" y="0" type="line"/>
    </contour>
  </outline>
</glyph>
<glyph name="y" format="2">
  <advance width="1029"/>
  <unicode hex="0079"/>
  <anchor x="618.25" y="1192" name="top"/>
  <anchor x="508.25" y="-267" name="bottom"/>
  <outline>
    <contour>
      <point x="182.784" y="-441.536" type="line"/>
      <point x="1087.55" y="1063.94" type="line"/>
      <point x="964.352" y="1063.94" type="line"/>
      <point x="427.52" y="141.696" type="line"/>
      <point x="313.024" y="1063.94" type="line"/>
      <point x="189.504" y="1063.94" type="line"/>
      <point x="348.608" y="5.696" type="line"/>
      <point x="65.28" y="-441.536" type="line"/>
    </contour>
  </outline>
  <guideline angle="90" name="vertical" x="625" y="0"/>
</glyph>
<glyph name="z" format="2">
  <advance width="971"/>
  <unicode hex="007A"/>
  <anchor x="631" y="1192" name="top"/>
  <outline>
    <contour>
      <point x="754.496" y="0" type="line"/>
      <point x="776.704" y="93.184" type="line"/>
      <point x="112.064" y="93.184" type="line"/>
      <point x="976.32" y="962.368" type="line"/>
      <point x="998.016" y="1063.94" type="line"/>
      <point x="236.672" y="1063.94" type="line"/>
      <point x="218.112" y="977.856" type="line"/>
      <point x="857.536" y="977.856" type="line"/>
      <point x="-18.944" y="90.496" type="line"/>
      <point x="-38.976" y="0" type="line"/>
    </contour>
  </outline>
  <guideline angle="90" name="vertical" x="631" y="0"/>
</glyph>
<glyph name="braceleft" format="2">
  <advance width="613"/>
  <unicode hex="007B"/>
  <outline>
    <contour>
      <point x="399.797" y="-107.499" type="line"/>
      <point x="408.668" y="-57.152" type="line"/>
      <point x="355.009" y="-57.152" type="line" smooth="yes"/>
      <point x="285.504" y="-57.152"/>
      <point x="243.526" y="-33.792"/>
      <point x="243.54" y="10.354" type="curve" smooth="yes"/>
      <point x="243.545" y="44.675"/>
      <point x="247.808" y="64.32"/>
      <point x="258.035" y="112.942" type="curve" smooth="yes"/>
      <point x="316.751" y="388.205" type="line" smooth="yes"/>
      <point x="324.992" y="425.216"/>
      <point x="330.118" y="456.384"/>
      <point x="330.121" y="482.822" type="curve" smooth="yes"/>
      <point x="330.127" y="559.959"/>
      <point x="290.944" y="604.928"/>
      <point x="173.483" y="645.973" type="curve"/>
      <point x="373.142" y="711.802"/>
      <point x="409.792" y="752.896"/>
      <point x="452.052" y="951.658" type="curve"/>
      <point x="509.069" y="1228.45" type="line" smooth="yes"/>
      <point x="546.048" y="1403.84"/>
      <point x="591.04" y="1454.14"/>
      <point x="712.64" y="1454.14" type="curve" smooth="yes"/>
      <point x="721.152" y="1454.14" type="line"/>
      <point x="732.152" y="1509.03" type="line"/>
      <point x="686.936" y="1509.03" type="line"/>
      <point x="527.488" y="1509.06"/>
      <point x="453.76" y="1453.95"/>
      <point x="422.537" y="1310.65" type="curve" smooth="yes"/>
      <point x="325.767" y="873.164" type="line" smooth="yes"/>
      <point x="307.008" y="789.376"/>
      <point x="239.936" y="727.04"/>
      <point x="146.155" y="706.916" type="curve"/>
      <point x="136.25" y="611.202" type="line"/>
      <point x="205.722" y="578.381"/>
      <point x="224.391" y="531.648"/>
      <point x="224.417" y="477.867" type="curve" smooth="yes"/>
      <point x="224.424" y="445.415"/>
      <point x="217.472" y="409.536"/>
      <point x="208.518" y="372.75" type="curve"/>
      <point x="148.683" y="102.646" type="line" smooth="yes"/>
      <point x="144.064" y="80.512"/>
      <point x="138.957" y="57.664"/>
      <point x="138.961" y="34.219" type="curve" smooth="yes"/>
      <point x="138.974" y="-50.755"/>
      <point x="227.2" y="-107.52"/>
      <point x="303.868" y="-107.499" type="curve"/>
    </contour>
  </outline>
  <guideline angle="78.1402" x="623" y="942"/>
  <guideline angle="78.1402" x="458" y="942"/>
  <guideline angle="78.1402" x="458" y="942"/>
</glyph>
<glyph name="bar" format="2">
  <advance width="646"/>
  <unicode hex="007C"/>
  <outline>
    <contour>
      <point x="122.176" y="-525.504" type="line"/>
      <point x="607.744" y="1570.82" type="line"/>
      <point x="529.216" y="1570.82" type="line"/>
      <point x="44.864" y="-525.504" type="line"/>
    </contour>
  </outline>
</glyph>
<glyph name="braceright" format="2">
  <advance width="613"/>
  <unicode hex="007D"/>
  <outline>
    <contour>
      <point x="16.512" y="-107.52" type="line" smooth="yes"/>
      <point x="224.96" y="-107.52"/>
      <point x="270.016" y="45.184"/>
      <point x="283.776" y="110.08" type="curve" smooth="yes"/>
      <point x="362.88" y="471.424" type="line" smooth="yes"/>
      <point x="375.808" y="529.664"/>
      <point x="418.56" y="571.136"/>
      <point x="533.248" y="606.592" type="curve"/>
      <point x="544.448" y="703.552" type="line"/>
      <point x="482.176" y="718.976"/>
      <point x="446.336" y="756.544"/>
      <point x="446.336" y="806.208" type="curve" smooth="yes"/>
      <point x="446.336" y="817.792"/>
      <point x="448.384" y="835.328"/>
      <point x="455.936" y="870.4" type="curve" smooth="yes"/>
      <point x="554.432" y="1303.55" type="line" smooth="yes"/>
      <point x="560.384" y="1330.62"/>
      <point x="563.264" y="1355.26"/>
      <point x="563.264" y="1376.26" type="curve" smooth="yes"/>
      <point x="563.264" y="1459.9"/>
      <point x="519.04" y="1509.06"/>
      <point x="397.76" y="1509.06" type="curve" smooth="yes"/>
      <point x="320.448" y="1509.06" type="line"/>
      <point x="310.144" y="1454.14" type="line"/>
      <point x="381.568" y="1454.14" type="line" smooth="yes"/>
      <point x="437.824" y="1454.14"/>
      <point x="460.416" y="1421.18"/>
      <point x="460.416" y="1371.58" type="curve" smooth="yes"/>
      <point x="460.416" y="1348.35"/>
      <point x="458.368" y="1335.23"/>
      <point x="452.864" y="1313.79" type="curve" smooth="yes"/>
      <point x="365.952" y="956.16" type="line" smooth="yes"/>
      <point x="347.264" y="880.768"/>
      <point x="345.408" y="855.04"/>
      <point x="345.408" y="817.152" type="curve" smooth="yes"/>
      <point x="345.408" y="746.112"/>
      <point x="395.008" y="694.08"/>
      <point x="502.528" y="652.928" type="curve"/>
      <point x="353.28" y="632.576"/>
      <point x="284.096" y="585.344"/>
      <point x="261.632" y="486.08" type="curve" smooth="yes"/>
      <point x="175.232" y="111.552" type="line" smooth="yes"/>
      <point x="150.72" y="3.904"/>
      <point x="84.992" y="-57.152"/>
      <point x="-29.184" y="-57.152" type="curve" smooth="yes"/>
      <point x="-58.176" y="-57.152" type="line"/>
      <point x="-69.312" y="-107.52" type="line"/>
    </contour>
  </outline>
  <guideline angle="0" x="0" y="1640"/>
  <guideline angle="78.1402" x="149" y="942"/>
</glyph>
<glyph name="asciitilde" format="2">
  <advance width="1202"/>
  <unicode hex="007E"/>
  <outline>
    <contour>
      <point x="763.584" y="389.312" type="curve" smooth="yes"/>
      <point x="920" y="389.312"/>
      <point x="966.08" y="527.872"/>
      <point x="966.08" y="658.048" type="curve"/>
      <point x="889.6" y="658.048" type="line"/>
      <point x="889.6" y="577.984"/>
      <point x="876.416" y="460.48"/>
      <point x="770.944" y="460.48" type="curve" smooth="yes"/>
      <point x="626.944" y="460.48"/>
      <point x="611.2" y="664.192"/>
      <point x="419.52" y="664.192" type="curve" smooth="yes"/>
      <point x="285.312" y="664.192"/>
      <point x="238.144" y="529.216"/>
      <point x="238.144" y="416.96" type="curve"/>
      <point x="305.216" y="416.96" type="line"/>
      <point x="305.216" y="493.696"/>
      <point x="322.688" y="597.12"/>
      <point x="421.568" y="597.12" type="curve" smooth="yes"/>
      <point x="543.616" y="597.12"/>
      <point x="617.024" y="389.312"/>
    </contour>
  </outline>
</glyph>
<glyph name="exclamdown" format="2">
  <advance width="651"/>
  <unicode hex="00A1"/>
  <outline>
    <contour>
      <point x="486.528" y="858.432" type="line"/>
      <point x="523.84" y="1021.76" type="line"/>
      <point x="358.464" y="1021.76" type="line"/>
      <point x="319.936" y="858.432" type="line"/>
    </contour>
    <contour>
      <point x="172.416" y="-448.064" type="line"/>
      <point x="398.528" y="652.8" type="line"/>
      <point x="315.904" y="652.8" type="line"/>
      <point x="31.424" y="-448.064" type="line"/>
    </contour>
  </outline>
</glyph>
<glyph name="cent" format="2">
  <advance width="1229"/>
  <unicode hex="00A2"/>
  <outline>
    <contour>
      <point x="505.088" y="-211.136" type="line"/>
      <point x="553.216" y="-16.256" type="line"/>
      <point x="726.08" y="-3.2"/>
      <point x="853.952" y="86.4"/>
      <point x="939.072" y="229.824" type="curve"/>
      <point x="841.856" y="287.04" type="line"/>
      <point x="786.624" y="182.272"/>
      <point x="653.76" y="95.872"/>
      <point x="527.232" y="95.872" type="curve" smooth="yes"/>
      <point x="365.632" y="95.872"/>
      <point x="309.312" y="204.288"/>
      <point x="309.312" y="351.04" type="curve" smooth="yes"/>
      <point x="309.312" y="589.056"/>
      <point x="465.536" y="921.792"/>
      <point x="740.288" y="921.792" type="curve" smooth="yes"/>
      <point x="846.72" y="921.792"/>
      <point x="943.936" y="851.712"/>
      <point x="950.016" y="741.184" type="curve"/>
      <point x="1074.24" y="781.184" type="line"/>
      <point x="1046.27" y="918.656"/>
      <point x="929.344" y="1016.19"/>
      <point x="786.88" y="1034.69" type="curve"/>
      <point x="836.864" y="1227.58" type="line"/>
      <point x="758.528" y="1227.58" type="line"/>
      <point x="708.352" y="1033.92" type="line"/>
      <point x="385.216" y="1001.66"/>
      <point x="184.127" y="651.584"/>
      <point x="184.127" y="351.808" type="curve" smooth="yes"/>
      <point x="184.127" y="159.488"/>
      <point x="272.575" y="3.072"/>
      <point x="477.951" y="-14.784" type="curve"/>
      <point x="424.511" y="-211.136" type="line"/>
    </contour>
  </outline>
</glyph>
<glyph name="sterling" format="2">
  <advance width="1229"/>
  <unicode hex="00A3"/>
  <outline>
    <contour>
      <point x="1062.66" y="0" type="line"/>
      <point x="1086.47" y="96" type="line"/>
      <point x="208.772" y="96" type="line"/>
      <point x="428.804" y="248.832"/>
      <point x="506.564" y="406.464"/>
      <point x="506.564" y="672.064" type="curve"/>
      <point x="965.188" y="672.064" type="line"/>
      <point x="987.78" y="767.168" type="line"/>
      <point x="502.916" y="767.168" type="line"/>
      <point x="495.748" y="804.16"/>
      <point x="496.324" y="839.552"/>
      <point x="496.324" y="875.776" type="curve" smooth="yes"/>
      <point x="496.324" y="1092.67"/>
      <point x="606.66" y="1360.77"/>
      <point x="860.164" y="1360.77" type="curve" smooth="yes"/>
      <point x="989.636" y="1360.77"/>
      <point x="1082.05" y="1276.48"/>
      <point x="1097.86" y="1151.87" type="curve"/>
      <point x="1196.04" y="1177.73" type="line"/>
      <point x="1171.46" y="1343.94"/>
      <point x="1036.1" y="1461.25"/>
      <point x="867.076" y="1461.25" type="curve" smooth="yes"/>
      <point x="563.332" y="1461.25"/>
      <point x="400.58" y="1167.23"/>
      <point x="400.58" y="894.336" type="curve" smooth="yes"/>
      <point x="400.58" y="851.008"/>
      <point x="403.652" y="809.088"/>
      <point x="412.228" y="767.168" type="curve"/>
      <point x="211.716" y="767.168" type="line"/>
      <point x="187.908" y="672.064" type="line"/>
      <point x="412.228" y="672.064" type="line"/>
      <point x="412.228" y="374.016"/>
      <point x="267.076" y="233.408"/>
      <point x="51.076" y="74.048" type="curve"/>
      <point x="34.18" y="0" type="line"/>
    </contour>
  </outline>
</glyph>
<glyph name="currency" format="2">
  <advance width="1229"/>
  <unicode hex="00A4"/>
  <outline>
    <contour>
      <point x="867.683" y="188.032" type="line"/>
      <point x="960.355" y="269.12" type="line"/>
      <point x="881.635" y="367.808" type="line"/>
      <point x="974.947" y="463.04"/>
      <point x="1048.23" y="595.968"/>
      <point x="1048.23" y="738.304" type="curve" smooth="yes"/>
      <point x="1048.23" y="799.936"/>
      <point x="1033.51" y="862.336"/>
      <point x="1003.88" y="916.8" type="curve"/>
      <point x="1132.39" y="1024.19" type="line"/>
      <point x="1070.88" y="1100.35" type="line"/>
      <point x="939.939" y="992.576" type="line"/>
      <point x="866.851" y="1062.91"/>
      <point x="782.243" y="1092.61"/>
      <point x="684.707" y="1092.61" type="curve" smooth="yes"/>
      <point x="579.363" y="1092.61"/>
      <point x="478.499" y="1056.26"/>
      <point x="393.059" y="997.952" type="curve"/>
      <point x="313.955" y="1102.4" type="line"/>
      <point x="222.115" y="1018.88" type="line"/>
      <point x="301.219" y="920.192" type="line"/>
      <point x="199.395" y="828.416"/>
      <point x="135.651" y="701.568"/>
      <point x="135.651" y="558.016" type="curve" smooth="yes"/>
      <point x="135.651" y="496.576"/>
      <point x="150.563" y="432.768"/>
      <point x="181.411" y="377.536" type="curve"/>
      <point x="44.771" y="269.12" type="line"/>
      <point x="107.875" y="188.032" type="line"/>
      <point x="240.867" y="298.496" type="line"/>
      <point x="313.187" y="227.136"/>
      <point x="401.251" y="197.44"/>
      <point x="500.195" y="197.44" type="curve" smooth="yes"/>
      <point x="604.323" y="197.44"/>
      <point x="700.707" y="232.768"/>
      <point x="786.531" y="290.048" type="curve"/>
    </contour>
    <contour>
      <point x="490.019" y="304.832" type="curve" smooth="yes"/>
      <point x="343.651" y="304.832"/>
      <point x="235.747" y="396.48"/>
      <point x="235.747" y="544.832" type="curve" smooth="yes"/>
      <point x="235.747" y="763.136"/>
      <point x="467.491" y="982.4"/>
      <point x="683.299" y="982.4" type="curve" smooth="yes"/>
      <point x="830.563" y="982.4"/>
      <point x="940.195" y="886.848"/>
      <point x="940.195" y="736.32" type="curve" smooth="yes"/>
      <point x="940.195" y="517.44"/>
      <point x="704.355" y="304.832"/>
    </contour>
  </outline>
</glyph>
<glyph name="yen" format="2">
  <advance width="1229"/>
  <unicode hex="00A5"/>
  <outline>
    <contour>
      <point x="554.095" y="0" type="line"/>
      <point x="633.007" y="349.248" type="line"/>
      <point x="942.831" y="349.248" type="line"/>
      <point x="962.927" y="435.52" type="line"/>
      <point x="653.103" y="435.52" type="line"/>
      <point x="682.799" y="561.408" type="line"/>
      <point x="992.623" y="561.408" type="line"/>
      <point x="1012.72" y="648.896" type="line"/>
      <point x="745.199" y="648.896" type="line"/>
      <point x="1417.39" y="1446.91" type="line"/>
      <point x="1284.97" y="1446.91" type="line"/>
      <point x="657.711" y="712.192" type="line"/>
      <point x="372.463" y="1446.91" type="line"/>
      <point x="244.591" y="1446.91" type="line"/>
      <point x="548.399" y="646.08" type="line"/>
      <point x="280.815" y="646.08" type="line"/>
      <point x="261.103" y="561.408" type="line"/>
      <point x="568.495" y="561.408" type="line"/>
      <point x="538.799" y="435.52" type="line"/>
      <point x="231.407" y="435.52" type="line"/>
      <point x="211.311" y="349.248" type="line"/>
      <point x="518.703" y="349.248" type="line"/>
      <point x="438.575" y="0" type="line"/>
    </contour>
  </outline>
</glyph>
<glyph name="brokenbar" format="2">
  <advance width="633"/>
  <unicode hex="00A6"/>
  <outline>
    <contour>
      <point x="403.712" y="749.76" type="line"/>
      <point x="579.84" y="1510.4" type="line"/>
      <point x="515.072" y="1510.4" type="line"/>
      <point x="338.944" y="749.76" type="line"/>
    </contour>
    <contour>
      <point x="157.76" y="-315.584" type="line"/>
      <point x="329.984" y="427.648" type="line"/>
      <point x="263.808" y="427.648" type="line"/>
      <point x="92.992" y="-315.584" type="line"/>
    </contour>
  </outline>
</glyph>
<glyph name="section" format="2">
  <advance width="1171"/>
  <unicode hex="00A7"/>
  <outline>
    <contour>
      <point x="515.904" y="-18.432" type="curve" smooth="yes"/>
      <point x="754.304" y="-18.432"/>
      <point x="903.872" y="94.784"/>
      <point x="903.872" y="279.04" type="curve" smooth="yes"/>
      <point x="903.872" y="435.648"/>
      <point x="815.808" y="501.888"/>
      <point x="615.744" y="549.056" type="curve" smooth="yes"/>
      <point x="607.232" y="550.912" type="line" smooth="yes"/>
      <point x="505.216" y="574.784"/>
      <point x="385.92" y="600.64"/>
      <point x="385.92" y="701.568" type="curve" smooth="yes"/>
      <point x="385.92" y="825.664"/>
      <point x="503.296" y="932.16"/>
      <point x="601.536" y="958.272" type="curve"/>
      <point x="516.288" y="1009.34" type="line"/>
      <point x="368.768" y="924.864"/>
      <point x="283.84" y="804.544"/>
      <point x="283.84" y="680.832" type="curve" smooth="yes"/>
      <point x="283.84" y="520.192"/>
      <point x="436.544" y="494.208"/>
      <point x="563.968" y="465.792" type="curve"/>
      <point x="589.76" y="461.504" type="line"/>
      <point x="703.232" y="436.224"/>
      <point x="793.088" y="402.88"/>
      <point x="793.088" y="268.736" type="curve" smooth="yes"/>
      <point x="793.088" y="168.896"/>
      <point x="712.256" y="82.56"/>
      <point x="522.176" y="82.56" type="curve" smooth="yes"/>
      <point x="392.192" y="82.56"/>
      <point x="224.768" y="142.4"/>
      <point x="233.408" y="294.208" type="curve"/>
      <point x="123.968" y="281.856" type="line"/>
      <point x="123.584" y="90.176"/>
      <point x="354.944" y="-18.432"/>
    </contour>
    <contour>
      <point x="764.736" y="460.16" type="line"/>
      <point x="915.648" y="516.224"/>
      <point x="1005.38" y="633.792"/>
      <point x="1005.38" y="758.272" type="curve" smooth="yes"/>
      <point x="1005.38" y="872"/>
      <point x="956.288" y="936"/>
      <point x="849.088" y="961.088" type="curve" smooth="yes"/>
      <point x="720.832" y="991.488" type="line" smooth="yes"/>
      <point x="513.408" y="1041.47"/>
      <point x="486.976" y="1088.26"/>
      <point x="486.976" y="1178.75" type="curve" smooth="yes"/>
      <point x="486.976" y="1296.64"/>
      <point x="610.752" y="1380.67"/>
      <point x="747.392" y="1380.67" type="curve" smooth="yes"/>
      <point x="880.064" y="1380.67"/>
      <point x="964.992" y="1296.7"/>
      <point x="988.288" y="1180.35" type="curve"/>
      <point x="1098.24" y="1215.23" type="line"/>
      <point x="1075.2" y="1371.01"/>
      <point x="960.32" y="1468.42"/>
      <point x="743.04" y="1468.42" type="curve" smooth="yes"/>
      <point x="551.616" y="1468.42"/>
      <point x="387.392" y="1358.34"/>
      <point x="387.392" y="1164.42" type="curve" smooth="yes"/>
      <point x="387.392" y="1034.18"/>
      <point x="521.408" y="950.784"/>
      <point x="630.976" y="925.76" type="curve" smooth="yes"/>
      <point x="801.536" y="885.44" type="line" smooth="yes"/>
      <point x="869.12" y="869.248"/>
      <point x="904.512" y="822.08"/>
      <point x="904.512" y="747.072" type="curve" smooth="yes"/>
      <point x="904.512" y="638.784"/>
      <point x="832.064" y="556.8"/>
      <point x="686.592" y="513.728" type="curve"/>
    </contour>
  </outline>
  <guideline angle="346.464" x="625" y="450"/>
  <guideline angle="346.464" x="625" y="1017"/>
</glyph>
<glyph name="dieresis" format="2">
  <advance width="692"/>
  <unicode hex="00A8"/>
  <outline>
    <contour>
      <point x="409.563" y="1193.19" type="line"/>
      <point x="452.063" y="1371.94" type="line"/>
      <point x="297.875" y="1371.94" type="line"/>
      <point x="256.563" y="1193.19" type="line"/>
    </contour>
    <contour>
      <point x="749.188" y="1193.19" type="line"/>
      <point x="791.688" y="1371.94" type="line"/>
      <point x="637.5" y="1371.94" type="line"/>
      <point x="596.188" y="1193.19" type="line"/>
    </contour>
  </outline>
</glyph>
<glyph name="copyright" format="2">
  <advance width="1858"/>
  <unicode hex="00A9"/>
  <outline>
    <contour>
      <point x="976.32" y="-52.608" type="curve" smooth="yes"/>
      <point x="1390.14" y="-52.608"/>
      <point x="1732.54" y="298.368"/>
      <point x="1732.54" y="723.968" type="curve" smooth="yes"/>
      <point x="1732.54" y="1144.7"/>
      <point x="1386.5" y="1499.52"/>
      <point x="976.32" y="1499.52" type="curve" smooth="yes"/>
      <point x="565.12" y="1499.52"/>
      <point x="221.696" y="1147.14"/>
      <point x="221.696" y="723.968" type="curve" smooth="yes"/>
      <point x="221.696" y="297.152"/>
      <point x="562.688" y="-52.608"/>
    </contour>
    <contour>
      <point x="976.32" y="35.328" type="curve" smooth="yes"/>
      <point x="616.768" y="35.328"/>
      <point x="309.248" y="352.832"/>
      <point x="309.248" y="723.968" type="curve" smooth="yes"/>
      <point x="309.248" y="1093.89"/>
      <point x="616.96" y="1410.37"/>
      <point x="976.32" y="1410.37" type="curve" smooth="yes"/>
      <point x="1333.25" y="1410.37"/>
      <point x="1643.39" y="1090.24"/>
      <point x="1643.39" y="723.968" type="curve" smooth="yes"/>
      <point x="1643.39" y="352.832"/>
      <point x="1335.87" y="35.328"/>
    </contour>
    <contour>
      <point x="993.92" y="323.84" type="curve" smooth="yes"/>
      <point x="1124.35" y="323.84"/>
      <point x="1235.01" y="388.928"/>
      <point x="1285.7" y="494.272" type="curve"/>
      <point x="1203.97" y="528.704" type="line"/>
      <point x="1173.5" y="462.848"/>
      <point x="1082.82" y="412.032"/>
      <point x="991.872" y="412.032" type="curve" smooth="yes"/>
      <point x="835.264" y="412.032"/>
      <point x="733.568" y="533.568"/>
      <point x="733.568" y="721.92" type="curve" smooth="yes"/>
      <point x="733.568" y="908.032"/>
      <point x="837.312" y="1031.62"/>
      <point x="993.92" y="1031.62" type="curve" smooth="yes"/>
      <point x="1085.25" y="1031.62"/>
      <point x="1167.04" y="987.264"/>
      <point x="1206.02" y="917.376" type="curve"/>
      <point x="1285.7" y="950.592" type="line"/>
      <point x="1234.82" y="1051.46"/>
      <point x="1118.08" y="1118.98"/>
      <point x="993.92" y="1118.98" type="curve" smooth="yes"/>
      <point x="785.728" y="1118.98"/>
      <point x="649.088" y="961.856"/>
      <point x="649.088" y="721.92" type="curve" smooth="yes"/>
      <point x="649.088" y="477.504"/>
      <point x="782.464" y="323.84"/>
    </contour>
  </outline>
  <guideline angle="0" x="0" y="2002"/>
  <guideline angle="90" x="974" y="0"/>
  <guideline angle="0" x="0" y="724"/>
</glyph>
<glyph name="ordfeminine" format="2">
  <advance width="1083"/>
  <unicode hex="00AA"/>
  <outline>
    <contour>
      <point x="518.848" y="727.232" type="curve" smooth="yes"/>
      <point x="647.04" y="727.232"/>
      <point x="715.392" y="771.712"/>
      <point x="805.376" y="874.112" type="curve"/>
      <point x="777.408" y="741.568" type="line"/>
      <point x="857.664" y="741.568" type="line"/>
      <point x="959.424" y="1177.28" type="line" smooth="yes"/>
      <point x="965.568" y="1205.12"/>
      <point x="969.856" y="1233.15"/>
      <point x="969.856" y="1262.59" type="curve" smooth="yes"/>
      <point x="969.856" y="1400.19"/>
      <point x="870.016" y="1468.42"/>
      <point x="741.632" y="1468.42" type="curve" smooth="yes"/>
      <point x="621.76" y="1468.42"/>
      <point x="532.224" y="1424.7"/>
      <point x="448.32" y="1338.69" type="curve"/>
      <point x="521.408" y="1280.9" type="line"/>
      <point x="566.528" y="1337.86"/>
      <point x="662.528" y="1388.74"/>
      <point x="741.12" y="1388.74" type="curve" smooth="yes"/>
      <point x="828.096" y="1388.74"/>
      <point x="875.712" y="1345.09"/>
      <point x="875.712" y="1254.02" type="curve" smooth="yes"/>
      <point x="875.712" y="1219.2"/>
      <point x="870.016" y="1187.2"/>
      <point x="862.272" y="1153.15" type="curve"/>
      <point x="571.52" y="1127.1" type="line" smooth="yes"/>
      <point x="415.744" y="1112.83"/>
      <point x="322.624" y="1039.23"/>
      <point x="322.624" y="897.216" type="curve" smooth="yes"/>
      <point x="322.624" y="787.904"/>
      <point x="414.912" y="727.232"/>
    </contour>
    <contour>
      <point x="544.064" y="811.584" type="curve" smooth="yes"/>
      <point x="494.336" y="811.584"/>
      <point x="430.08" y="840.192"/>
      <point x="430.08" y="902.72" type="curve" smooth="yes"/>
      <point x="430.08" y="994.368"/>
      <point x="485.12" y="1046.4"/>
      <point x="642.56" y="1057.79" type="curve" smooth="yes"/>
      <point x="843.712" y="1072.9" type="line"/>
      <point x="814.912" y="949.952"/>
      <point x="665.088" y="811.584"/>
    </contour>
  </outline>
</glyph>
<glyph name="guillemotleft" format="2">
  <advance width="1006"/>
  <unicode hex="00AB"/>
  <outline>
    <contour>
      <point x="377.024" y="205.952" type="line"/>
      <point x="404.864" y="345.408" type="line"/>
      <point x="243.2" y="524.672" type="line"/>
      <point x="491.328" y="701.12" type="line"/>
      <point x="520.384" y="839.36" type="line"/>
      <point x="99.904" y="523.456" type="line"/>
    </contour>
    <contour>
      <point x="751.36" y="204.736" type="line"/>
      <point x="780.416" y="345.408" type="line"/>
      <point x="616.128" y="524.672" type="line"/>
      <point x="865.472" y="701.12" type="line"/>
      <point x="894.528" y="839.36" type="line"/>
      <point x="472.832" y="523.456" type="line"/>
    </contour>
  </outline>
</glyph>
<glyph name="logicalnot" format="2">
  <advance width="1323"/>
  <unicode hex="00AC"/>
  <outline>
    <contour>
      <point x="1040.9" y="297.984" type="line"/>
      <point x="1040.9" y="813.696" type="line"/>
      <point x="174.72" y="813.696" type="line"/>
      <point x="174.72" y="716.736" type="line"/>
      <point x="940.928" y="716.736" type="line"/>
      <point x="940.928" y="297.984" type="line"/>
    </contour>
  </outline>
</glyph>
<glyph name="uni00AD" format="2">
  <advance width="996"/>
  <unicode hex="00AD"/>
  <outline>
    <contour>
      <point x="837.439" y="598.706" type="line"/>
      <point x="859.027" y="688.239" type="line"/>
      <point x="220.371" y="688.239" type="line"/>
      <point x="198.783" y="598.706" type="line"/>
    </contour>
  </outline>
  <guideline angle="256.921" x="219" y="707"/>
  <guideline angle="76.9209" x="851" y="608"/>
  <guideline angle="0" x="0" y="590"/>
  <guideline angle="0" x="0" y="696"/>
</glyph>
<glyph name="registered" format="2">
  <advance width="1858"/>
  <unicode hex="00AE"/>
  <outline>
    <contour>
      <point x="978.752" y="-50.56" type="curve" smooth="yes"/>
      <point x="1400.32" y="-50.56"/>
      <point x="1734.98" y="311.808"/>
      <point x="1734.98" y="726.016" type="curve" smooth="yes"/>
      <point x="1734.98" y="1139.97"/>
      <point x="1397.12" y="1501.57"/>
      <point x="978.752" y="1501.57" type="curve" smooth="yes"/>
      <point x="558.208" y="1501.57"/>
      <point x="224.128" y="1140.03"/>
      <point x="224.128" y="726.016" type="curve" smooth="yes"/>
      <point x="224.128" y="308.608"/>
      <point x="555.712" y="-50.56"/>
    </contour>
    <contour>
      <point x="978.752" y="29.184" type="curve" smooth="yes"/>
      <point x="602.88" y="29.184"/>
      <point x="302.656" y="357.504"/>
      <point x="302.656" y="726.016" type="curve" smooth="yes"/>
      <point x="302.656" y="1095.1"/>
      <point x="604.864" y="1421.82"/>
      <point x="978.752" y="1421.82" type="curve" smooth="yes"/>
      <point x="1350.98" y="1421.82"/>
      <point x="1654.02" y="1091.26"/>
      <point x="1654.02" y="726.016" type="curve" smooth="yes"/>
      <point x="1654.02" y="355.52"/>
      <point x="1353.86" y="29.184"/>
    </contour>
    <contour>
      <point x="1206.08" y="317.824" type="line"/>
      <point x="1317.57" y="317.824" type="line"/>
      <point x="1108.74" y="672.896" type="line"/>
      <point x="1235.46" y="689.28"/>
      <point x="1290.82" y="772.352"/>
      <point x="1290.82" y="890.368" type="curve" smooth="yes"/>
      <point x="1290.82" y="1057.22"/>
      <point x="1192.26" y="1118.85"/>
      <point x="1035.46" y="1118.85" type="curve" smooth="yes"/>
      <point x="734.72" y="1118.85" type="line"/>
      <point x="734.72" y="317.824" type="line"/>
      <point x="829.504" y="317.824" type="line"/>
      <point x="829.504" y="668.352" type="line"/>
      <point x="1021.44" y="668.352" type="line"/>
    </contour>
    <contour>
      <point x="1035.46" y="749.248" type="curve" smooth="yes"/>
      <point x="819.264" y="749.248" type="line"/>
      <point x="819.264" y="1034.3" type="line"/>
      <point x="1035.46" y="1034.3" type="line" smooth="yes"/>
      <point x="1129.79" y="1034.3"/>
      <point x="1207.49" y="1002.69"/>
      <point x="1207.49" y="890.368" type="curve" smooth="yes"/>
      <point x="1207.49" y="780.288"/>
      <point x="1127.1" y="749.248"/>
    </contour>
  </outline>
</glyph>
<glyph name="macron" format="2">
  <advance width="906"/>
  <unicode hex="00AF"/>
  <outline>
    <contour>
      <point x="354.313" y="1252" type="line"/>
      <point x="897.625" y="1252" type="line"/>
      <point x="919.172" y="1342.25" type="line"/>
      <point x="375.672" y="1342.25" type="line"/>
    </contour>
  </outline>
  <guideline angle="256.629" x="376" y="1374"/>
  <guideline angle="76.6287" x="895" y="1252"/>
  <guideline angle="0" x="0" y="1374"/>
  <guideline angle="0" x="0" y="1252"/>
  <guideline angle="0" x="0" y="1358"/>
</glyph>
<glyph name="degree" format="2">
  <advance width="789"/>
  <unicode hex="00B0"/>
  <outline>
    <contour>
      <point x="547.952" y="867.136" type="curve" smooth="yes"/>
      <point x="717.296" y="867.136"/>
      <point x="847.984" y="1000.06"/>
      <point x="847.984" y="1169.6" type="curve" smooth="yes"/>
      <point x="847.984" y="1337.92"/>
      <point x="716.272" y="1470.85"/>
      <point x="547.952" y="1470.85" type="curve" smooth="yes"/>
      <point x="378.224" y="1470.85"/>
      <point x="245.296" y="1339.33"/>
      <point x="245.296" y="1169.6" type="curve" smooth="yes"/>
      <point x="245.296" y="995.2"/>
      <point x="373.552" y="867.136"/>
    </contour>
    <contour>
      <point x="547.952" y="934.144" type="curve" smooth="yes"/>
      <point x="415.664" y="934.144"/>
      <point x="313.712" y="1037.31"/>
      <point x="313.712" y="1169.6" type="curve" smooth="yes"/>
      <point x="313.712" y="1296.64"/>
      <point x="420.72" y="1403.84"/>
      <point x="547.952" y="1403.84" type="curve" smooth="yes"/>
      <point x="672.176" y="1403.84"/>
      <point x="779.376" y="1295.42"/>
      <point x="779.376" y="1169.6" type="curve" smooth="yes"/>
      <point x="779.376" y="1041.15"/>
      <point x="674.992" y="934.144"/>
    </contour>
  </outline>
</glyph>
<glyph name="plusminus" format="2">
  <advance width="1359"/>
  <unicode hex="00B1"/>
  <outline>
    <contour>
      <point x="169.875" y="688.688" type="line"/>
      <point x="169.875" y="598.438" type="line"/>
      <point x="1190.75" y="598.438" type="line"/>
      <point x="1190.75" y="688.688" type="line"/>
    </contour>
    <contour>
      <point x="1190.48" y="-93.813" type="line"/>
      <point x="1190.75" y="-3.563" type="line"/>
      <point x="169.875" y="-3.563" type="line"/>
      <point x="169.601" y="-93.813" type="line"/>
    </contour>
    <contour>
      <point x="634.5" y="111.375" type="line"/>
      <point x="724.75" y="111.375" type="line"/>
      <point x="724.75" y="1171.19" type="line"/>
      <point x="634.5" y="1171.19" type="line"/>
    </contour>
  </outline>
</glyph>
<glyph name="twosuperior" format="2">
  <advance width="837"/>
  <unicode hex="00B2"/>
  <outline>
    <contour>
      <point x="618.508" y="500.033" type="line"/>
      <point x="632.716" y="567.201" type="line"/>
      <point x="83.126" y="567.2" type="line"/>
      <point x="304.429" y="684.086"/>
      <point x="749.715" y="992.386"/>
      <point x="749.772" y="1286.72" type="curve" smooth="yes"/>
      <point x="749.807" y="1423.32"/>
      <point x="650.37" y="1482.82"/>
      <point x="524.684" y="1482.82" type="curve" smooth="yes"/>
      <point x="339.877" y="1482.82"/>
      <point x="217.981" y="1344.33"/>
      <point x="179.16" y="1173.27" type="curve"/>
      <point x="252.117" y="1161.41" type="line"/>
      <point x="284.904" y="1289.15"/>
      <point x="375.35" y="1408.64"/>
      <point x="517.068" y="1408.64" type="curve" smooth="yes"/>
      <point x="606.348" y="1408.64"/>
      <point x="660.822" y="1362.75"/>
      <point x="660.812" y="1269.76" type="curve" smooth="yes"/>
      <point x="660.776" y="1007.4"/>
      <point x="207.283" y="702.26"/>
      <point x="-4.98" y="584.577" type="curve"/>
      <point x="-22.516" y="500.033" type="line"/>
    </contour>
  </outline>
</glyph>
<glyph name="threesuperior" format="2">
  <advance width="753"/>
  <unicode hex="00B3"/>
  <outline>
    <contour>
      <point x="373.387" y="484.032" type="curve" smooth="yes"/>
      <point x="577.483" y="484.032"/>
      <point x="759.051" y="624.576"/>
      <point x="759.051" y="838.848" type="curve" smooth="yes"/>
      <point x="759.051" y="930.688"/>
      <point x="715.339" y="991.488"/>
      <point x="626.891" y="1021.06" type="curve"/>
      <point x="735.563" y="1070.59"/>
      <point x="818.571" y="1171.33"/>
      <point x="818.571" y="1301.12" type="curve" smooth="yes"/>
      <point x="818.571" y="1425.02"/>
      <point x="710.283" y="1485.63"/>
      <point x="600.907" y="1485.63" type="curve" smooth="yes"/>
      <point x="451.659" y="1485.63"/>
      <point x="318.347" y="1394.88"/>
      <point x="280.779" y="1245.89" type="curve"/>
      <point x="346.891" y="1230.66" type="line"/>
      <point x="371.467" y="1336.7"/>
      <point x="483.595" y="1412.8"/>
      <point x="589.643" y="1412.8" type="curve" smooth="yes"/>
      <point x="664.715" y="1412.8"/>
      <point x="739.595" y="1366.34"/>
      <point x="739.595" y="1278.91" type="curve" smooth="yes"/>
      <point x="739.595" y="1124.8"/>
      <point x="618.891" y="1053.12"/>
      <point x="482.507" y="1053.12" type="curve" smooth="yes"/>
      <point x="462.667" y="1053.12" type="line"/>
      <point x="446.475" y="976.32" type="line"/>
      <point x="512.203" y="976.32" type="line" smooth="yes"/>
      <point x="596.427" y="976.32"/>
      <point x="684.811" y="926.784"/>
      <point x="684.811" y="826.432" type="curve" smooth="yes"/>
      <point x="684.811" y="663.872"/>
      <point x="537.419" y="553.6"/>
      <point x="383.755" y="553.6" type="curve" smooth="yes"/>
      <point x="289.419" y="553.6"/>
      <point x="188.427" y="605.248"/>
      <point x="188.427" y="713.664" type="curve" smooth="yes"/>
      <point x="188.427" y="731.84"/>
      <point x="190.475" y="750.208"/>
      <point x="194.763" y="766.976" type="curve"/>
      <point x="118.475" y="762.112" type="line"/>
      <point x="113.739" y="737.728"/>
      <point x="109.643" y="713.536"/>
      <point x="109.643" y="689.536" type="curve" smooth="yes"/>
      <point x="109.643" y="537.792"/>
      <point x="244.939" y="484.032"/>
    </contour>
  </outline>
</glyph>
<glyph name="acute" format="2">
  <advance width="550"/>
  <unicode hex="00B4"/>
  <outline>
    <contour>
      <point x="348.698" y="1191.94" type="line"/>
      <point x="683.226" y="1482.82" type="line"/>
      <point x="516.25" y="1482.82" type="line"/>
      <point x="232.026" y="1191.94" type="line"/>
    </contour>
  </outline>
</glyph>
<glyph name="uni00B5" format="2">
  <advance width="1387"/>
  <unicode hex="00B5"/>
  <outline>
    <contour>
      <point x="531.584" y="-23.552" type="curve" smooth="yes"/>
      <point x="681.984" y="-23.552"/>
      <point x="853.824" y="81.92"/>
      <point x="929.664" y="212.544" type="curve"/>
      <point x="877.312" y="0" type="line"/>
      <point x="1009.54" y="0" type="line"/>
      <point x="1254.27" y="1063.94" type="line"/>
      <point x="1122.24" y="1063.94" type="line"/>
      <point x="980.608" y="451.648" type="line" smooth="yes"/>
      <point x="939.52" y="275.584"/>
      <point x="744.832" y="87.936"/>
      <point x="557.76" y="87.936" type="curve" smooth="yes"/>
      <point x="434.624" y="87.936"/>
      <point x="381.312" y="147.776"/>
      <point x="381.312" y="269.824" type="curve" smooth="yes"/>
      <point x="381.312" y="322.368"/>
      <point x="391.488" y="368.704"/>
      <point x="402.112" y="416.32" type="curve" smooth="yes"/>
      <point x="548.352" y="1063.94" type="line"/>
      <point x="418.56" y="1063.94" type="line"/>
      <point x="108.096" y="-273.6" type="line"/>
      <point x="217.984" y="-273.6" type="line"/>
      <point x="322.112" y="42.688" type="line"/>
      <point x="384.064" y="-5.184"/>
      <point x="455.168" y="-23.552"/>
    </contour>
  </outline>
</glyph>
<glyph name="paragraph" format="2">
  <advance width="1436"/>
  <unicode hex="00B6"/>
  <outline>
    <contour>
      <point x="564.864" y="-253.12" type="line"/>
      <point x="957.056" y="1446.91" type="line"/>
      <point x="829.12" y="1446.91" type="line" smooth="yes"/>
      <point x="552.896" y="1446.91"/>
      <point x="269.824" y="1250.24"/>
      <point x="269.824" y="954.304" type="curve" smooth="yes"/>
      <point x="269.824" y="742.272"/>
      <point x="465.728" y="639.168"/>
      <point x="656.256" y="639.168" type="curve"/>
      <point x="444.288" y="-253.12" type="line"/>
    </contour>
    <contour>
      <point x="949.632" y="-253.12" type="line"/>
      <point x="1341.82" y="1446.91" type="line"/>
      <point x="1222.85" y="1446.91" type="line"/>
      <point x="829.44" y="-253.12" type="line"/>
    </contour>
  </outline>
</glyph>
<glyph name="periodcentered" format="2">
  <advance width="683"/>
  <unicode hex="00B7"/>
  <anchor x="421.625" y="854.375" name="_center"/>
  <outline>
    <contour>
      <point x="403.84" y="738.368" type="curve" smooth="yes"/>
      <point x="474.112" y="738.368"/>
      <point x="537.6" y="802.624"/>
      <point x="537.6" y="872.704" type="curve" smooth="yes"/>
      <point x="537.6" y="932.48"/>
      <point x="495.296" y="969.536"/>
      <point x="436.928" y="969.536" type="curve" smooth="yes"/>
      <point x="361.792" y="969.536"/>
      <point x="303.808" y="908.16"/>
      <point x="303.808" y="834.624" type="curve" smooth="yes"/>
      <point x="303.808" y="775.68"/>
      <point x="346.24" y="738.368"/>
    </contour>
  </outline>
</glyph>
<glyph name="cedilla" format="2">
  <advance width="548"/>
  <unicode hex="00B8"/>
  <outline>
    <contour>
      <point x="48.431" y="-510.208" type="curve" smooth="yes"/>
      <point x="198.447" y="-510.208"/>
      <point x="279.343" y="-441.536"/>
      <point x="279.343" y="-295.488" type="curve" smooth="yes"/>
      <point x="279.343" y="-204.16"/>
      <point x="221.039" y="-143.808"/>
      <point x="113.711" y="-129.408" type="curve"/>
      <point x="229.359" y="0" type="line"/>
      <point x="119.535" y="0" type="line"/>
      <point x="-17.553" y="-173.504" type="line"/>
      <point x="-1.041" y="-194.816" type="line"/>
      <point x="56.239" y="-194.816" type="line" smooth="yes"/>
      <point x="124.911" y="-194.816"/>
      <point x="191.599" y="-232.256"/>
      <point x="191.599" y="-296" type="curve" smooth="yes"/>
      <point x="191.599" y="-380.096"/>
      <point x="148.143" y="-423.808"/>
      <point x="59.759" y="-423.808" type="curve" smooth="yes"/>
      <point x="9.199" y="-423.808"/>
      <point x="-38.674" y="-387.2"/>
      <point x="-49.042" y="-345.792" type="curve"/>
      <point x="-139.73" y="-382.464" type="line"/>
      <point x="-120.466" y="-448.384"/>
      <point x="-28.625" y="-510.208"/>
    </contour>
  </outline>
</glyph>
<glyph name="onesuperior" format="2">
  <advance width="960"/>
  <unicode hex="00B9"/>
  <outline>
    <contour>
      <point x="475.008" y="500.096" type="line"/>
      <point x="708.544" y="1469.57" type="line"/>
      <point x="628.096" y="1469.57" type="line"/>
      <point x="606.4" y="1358.34"/>
      <point x="542.4" y="1326.59"/>
      <point x="435.712" y="1326.59" type="curve" smooth="yes"/>
      <point x="336.448" y="1326.59" type="line"/>
      <point x="316.352" y="1255.94" type="line"/>
      <point x="571.392" y="1255.94" type="line"/>
      <point x="390.912" y="500.096" type="line"/>
    </contour>
  </outline>
</glyph>
<glyph name="ordmasculine" format="2">
  <advance width="1021"/>
  <unicode hex="00BA"/>
  <outline>
    <contour>
      <point x="572.416" y="729.28" type="curve" smooth="yes"/>
      <point x="810.432" y="729.28"/>
      <point x="992.704" y="959.808"/>
      <point x="992.704" y="1186.88" type="curve" smooth="yes"/>
      <point x="992.704" y="1351.94"/>
      <point x="885.184" y="1468.42"/>
      <point x="721.472" y="1468.42" type="curve" smooth="yes"/>
      <point x="486.912" y="1468.42"/>
      <point x="299.136" y="1238.53"/>
      <point x="299.136" y="1013.06" type="curve" smooth="yes"/>
      <point x="299.136" y="843.52"/>
      <point x="404.224" y="729.28"/>
    </contour>
    <contour>
      <point x="573.12" y="821.824" type="curve" smooth="yes"/>
      <point x="464.896" y="821.824"/>
      <point x="408.256" y="881.664"/>
      <point x="408.256" y="991.616" type="curve" smooth="yes"/>
      <point x="408.256" y="1172.99"/>
      <point x="521.024" y="1376.9"/>
      <point x="723.2" y="1376.9" type="curve" smooth="yes"/>
      <point x="830.656" y="1376.9"/>
      <point x="883.392" y="1313.73"/>
      <point x="883.392" y="1205.5" type="curve" smooth="yes"/>
      <point x="883.392" y="1028.8"/>
      <point x="770.816" y="821.824"/>
    </contour>
  </outline>
</glyph>
<glyph name="guillemotright" format="2">
  <advance width="1005"/>
  <unicode hex="00BB"/>
  <outline>
    <contour>
      <point x="112.192" y="205.952" type="line"/>
      <point x="531.648" y="524.672" type="line"/>
      <point x="255.552" y="839.36" type="line"/>
      <point x="227.328" y="699.904" type="line"/>
      <point x="389.376" y="523.456" type="line"/>
      <point x="140.032" y="344.192" type="line"/>
    </contour>
    <contour>
      <point x="484.096" y="205.952" type="line"/>
      <point x="907.008" y="524.672" type="line"/>
      <point x="627.264" y="839.36" type="line"/>
      <point x="599.04" y="699.904" type="line"/>
      <point x="761.28" y="523.456" type="line"/>
      <point x="513.152" y="344.192" type="line"/>
    </contour>
  </outline>
</glyph>
<glyph name="questiondown" format="2">
  <advance width="1073"/>
  <unicode hex="00BF"/>
  <outline>
    <contour>
      <point x="701.312" y="858.432" type="line"/>
      <point x="740.864" y="1021.76" type="line"/>
      <point x="574.464" y="1021.76" type="line"/>
      <point x="535.936" y="858.432" type="line"/>
    </contour>
    <contour>
      <point x="338.752" y="-445.632" type="curve" smooth="yes"/>
      <point x="561.344" y="-445.632"/>
      <point x="752.768" y="-303.104"/>
      <point x="808.768" y="-86.08" type="curve"/>
      <point x="699.712" y="-74.304" type="line"/>
      <point x="654.528" y="-236.096"/>
      <point x="499.072" y="-344.768"/>
      <point x="334.208" y="-344.768" type="curve" smooth="yes"/>
      <point x="226.304" y="-344.768"/>
      <point x="103.04" y="-307.648"/>
      <point x="103.04" y="-169.152" type="curve" smooth="yes"/>
      <point x="103.04" y="-1.216"/>
      <point x="205.76" y="86.4"/>
      <point x="349.312" y="154.24" type="curve"/>
      <point x="537.856" y="241.536"/>
      <point x="550.656" y="301.632"/>
      <point x="594.048" y="500.608" type="curve" smooth="yes"/>
      <point x="628.288" y="656.896" type="line"/>
      <point x="523.328" y="656.896" type="line"/>
      <point x="462.4" y="396.672" type="line" smooth="yes"/>
      <point x="438.976" y="298.112"/>
      <point x="367.616" y="251.392"/>
      <point x="237.376" y="193.6" type="curve" smooth="yes"/>
      <point x="83.328" y="125.568"/>
      <point x="-5.184" y="-4.672"/>
      <point x="-5.184" y="-172.096" type="curve" smooth="yes"/>
      <point x="-5.184" y="-370.048"/>
      <point x="163.584" y="-445.632"/>
    </contour>
  </outline>
</glyph>
<glyph name="AE" format="2">
  <advance width="1860"/>
  <unicode hex="00C6"/>
  <anchor x="1330.44" y="1620" name="top"/>
  <outline>
    <contour>
      <point x="1618.18" y="0" type="line"/>
      <point x="1640.19" y="99.008" type="line"/>
      <point x="873.024" y="99.008" type="line"/>
      <point x="1004.48" y="672.768" type="line"/>
      <point x="1682.75" y="672.768" type="line"/>
      <point x="1704.96" y="772.928" type="line"/>
      <point x="1029.12" y="772.928" type="line"/>
      <point x="1162.62" y="1356.29" type="line"/>
      <point x="1929.79" y="1356.29" type="line"/>
      <point x="1950.78" y="1447.94" type="line"/>
      <point x="835.2" y="1447.94" type="line"/>
      <point x="-22.592" y="0" type="line"/>
      <point x="103.808" y="0" type="line"/>
      <point x="290.56" y="314.368" type="line"/>
      <point x="800.832" y="314.368" type="line"/>
      <point x="728.96" y="0" type="line"/>
    </contour>
    <contour>
      <point x="828.672" y="430.976" type="line"/>
      <point x="351.68" y="430.976" type="line"/>
      <point x="896.192" y="1356.29" type="line"/>
      <point x="1041.98" y="1356.29" type="line"/>
    </contour>
  </outline>
  <guideline angle="90" name="vertical" x="1331" y="0"/>
</glyph>
<glyph name="Eth" format="2">
  <advance width="1468"/>
  <unicode hex="00D0"/>
  <outline>
    <contour>
      <point x="198.721" y="772.033" type="line"/>
      <point x="176.193" y="686.976" type="line"/>
      <point x="813.633" y="686.976" type="line"/>
      <point x="834.944" y="772.033" type="line"/>
    </contour>
    <contour>
      <point x="483.099" y="0" type="line" smooth="yes"/>
      <point x="1042.33" y="0"/>
      <point x="1391.9" y="412.928"/>
      <point x="1391.9" y="939.904" type="curve" smooth="yes"/>
      <point x="1391.9" y="1351.62"/>
      <point x="1089.12" y="1446.91"/>
      <point x="754.396" y="1446.91" type="curve" smooth="yes"/>
      <point x="468.379" y="1446.91" type="line"/>
      <point x="134.364" y="0" type="line"/>
    </contour>
    <contour>
      <point x="473.755" y="106.049" type="curve" smooth="yes"/>
      <point x="277.275" y="106.049" type="line"/>
      <point x="563.548" y="1344.51" type="line"/>
      <point x="791.004" y="1344.51" type="line" smooth="yes"/>
      <point x="1068.38" y="1344.51"/>
      <point x="1275.36" y="1230.66"/>
      <point x="1275.36" y="927.104" type="curve" smooth="yes"/>
      <point x="1275.36" y="477.44"/>
      <point x="938.588" y="106.049"/>
    </contour>
  </outline>
</glyph>
<glyph name="multiply" format="2">
  <advance width="1152"/>
  <unicode hex="00D7"/>
  <outline>
    <contour>
      <point x="245.76" y="249.088" type="line"/>
      <point x="578.752" y="581.248" type="line"/>
      <point x="923.456" y="234.112" type="line"/>
      <point x="980.992" y="294.08" type="line"/>
      <point x="636.288" y="640" type="line"/>
      <point x="967.424" y="970.752" type="line"/>
      <point x="908.288" y="1028.67" type="line"/>
      <point x="578.752" y="696.32" type="line"/>
      <point x="230.4" y="1043.46" type="line"/>
      <point x="172.864" y="983.488" type="line"/>
      <point x="518.784" y="640" type="line"/>
      <point x="185.408" y="307.008" type="line"/>
    </contour>
  </outline>
</glyph>
<glyph name="Oslash" format="2">
  <advance width="1503"/>
  <unicode hex="00D8"/>
  <anchor x="903.313" y="1620" name="top"/>
  <outline>
    <contour>
      <point x="637.001" y="-24.128" type="curve" smooth="yes"/>
      <point x="1143.37" y="-24.128"/>
      <point x="1459.66" y="485.696"/>
      <point x="1459.66" y="953.024" type="curve" smooth="yes"/>
      <point x="1459.66" y="1088.06"/>
      <point x="1430.41" y="1230.27"/>
      <point x="1330.38" y="1334.85" type="curve"/>
      <point x="1417.29" y="1446.91" type="line"/>
      <point x="1310.73" y="1446.91" type="line"/>
      <point x="1265.74" y="1388.86" type="line"/>
      <point x="1174.66" y="1453.18"/>
      <point x="1064.14" y="1470.85"/>
      <point x="960.521" y="1470.85" type="curve" smooth="yes"/>
      <point x="456.585" y="1470.85"/>
      <point x="142.92" y="958.4"/>
      <point x="142.92" y="493.056" type="curve" smooth="yes"/>
      <point x="142.92" y="361.984"/>
      <point x="177.608" y="218.304"/>
      <point x="269.961" y="115.328" type="curve"/>
      <point x="179.784" y="0" type="line"/>
      <point x="286.984" y="0" type="line"/>
      <point x="333" y="59.264" type="line"/>
      <point x="425.096" y="-4.032"/>
      <point x="533.385" y="-24.128"/>
    </contour>
    <contour>
      <point x="343.945" y="210.752" type="line"/>
      <point x="274.569" y="295.552"/>
      <point x="253.96" y="403.584"/>
      <point x="253.96" y="506.688" type="curve" smooth="yes"/>
      <point x="253.96" y="900.672"/>
      <point x="524.297" y="1352.51"/>
      <point x="954.761" y="1352.51" type="curve" smooth="yes"/>
      <point x="1035.53" y="1352.51"/>
      <point x="1118.22" y="1338.82"/>
      <point x="1191.05" y="1293.38" type="curve"/>
    </contour>
    <contour>
      <point x="640.713" y="93.184" type="curve" smooth="yes"/>
      <point x="561.161" y="93.184"/>
      <point x="477.065" y="106.88"/>
      <point x="407.881" y="154.752" type="curve"/>
      <point x="1256.2" y="1238.21" type="line"/>
      <point x="1329.03" y="1149.95"/>
      <point x="1350.86" y="1046.98"/>
      <point x="1350.86" y="938.816" type="curve" smooth="yes"/>
      <point x="1350.86" y="542.784"/>
      <point x="1075.66" y="93.184"/>
    </contour>
  </outline>
  <guideline angle="90" name="vertical" x="917" y="0"/>
</glyph>
<glyph name="Thorn" format="2">
  <advance width="1185"/>
  <unicode hex="00DE"/>
  <outline>
    <contour>
      <point x="87.813" y="0" type="line"/>
      <point x="211" y="0" type="line"/>
      <point x="317.25" y="459.25" type="line"/>
      <point x="503.938" y="459.25" type="line" smooth="yes"/>
      <point x="816.25" y="459.25"/>
      <point x="1129.12" y="586.188"/>
      <point x="1129.12" y="938" type="curve" smooth="yes"/>
      <point x="1129.12" y="1157.62"/>
      <point x="940.688" y="1238.5"/>
      <point x="754" y="1238.5" type="curve" smooth="yes"/>
      <point x="496.625" y="1238.5" type="line"/>
      <point x="543.813" y="1447" type="line"/>
      <point x="422.188" y="1447" type="line"/>
    </contour>
    <contour>
      <point x="342.125" y="574.313" type="line"/>
      <point x="466.063" y="1109.31" type="line"/>
      <point x="736.438" y="1109.31" type="line" smooth="yes"/>
      <point x="851.938" y="1109.31"/>
      <point x="1002.75" y="1068.69"/>
      <point x="1002.75" y="914.313" type="curve" smooth="yes"/>
      <point x="1002.75" y="690.688"/>
      <point x="816.063" y="574.313"/>
      <point x="607.625" y="574.313" type="curve" smooth="yes"/>
    </contour>
  </outline>
</glyph>
<glyph name="germandbls" format="2">
  <advance width="1240"/>
  <unicode hex="00DF"/>
  <outline>
    <contour>
      <point x="644.673" y="-18.432" type="curve" smooth="yes"/>
      <point x="851.968" y="-18.432"/>
      <point x="1059.14" y="151.04"/>
      <point x="1059.14" y="367.232" type="curve" smooth="yes"/>
      <point x="1059.14" y="557.633"/>
      <point x="830.145" y="618.177"/>
      <point x="830.145" y="767.681" type="curve" smooth="yes"/>
      <point x="830.145" y="956.928"/>
      <point x="1158.78" y="917.697"/>
      <point x="1158.78" y="1193.92" type="curve" smooth="yes"/>
      <point x="1158.78" y="1367.62"/>
      <point x="983.168" y="1468.42"/>
      <point x="825.344" y="1468.42" type="curve" smooth="yes"/>
      <point x="520.704" y="1468.42"/>
      <point x="387.265" y="1319.62"/>
      <point x="284.672" y="884.48" type="curve" smooth="yes"/>
      <point x="74.9445" y="0" type="line"/>
      <point x="186.049" y="0" type="line"/>
      <point x="395.329" y="885.888" type="line" smooth="yes"/>
      <point x="447.36" y="1106.62"/>
      <point x="556.928" y="1362.62"/>
      <point x="823.296" y="1362.62" type="curve" smooth="yes"/>
      <point x="906.112" y="1362.62"/>
      <point x="1044.42" y="1329.54"/>
      <point x="1044.42" y="1213.82" type="curve" smooth="yes"/>
      <point x="1044.42" y="960.449"/>
      <point x="709.569" y="971.648"/>
      <point x="709.569" y="753.729" type="curve" smooth="yes"/>
      <point x="709.569" y="570.945"/>
      <point x="944.065" y="522.752"/>
      <point x="944.065" y="350.273" type="curve" smooth="yes"/>
      <point x="944.065" y="212.033"/>
      <point x="782.657" y="99.6485"/>
      <point x="653.824" y="99.6485" type="curve" smooth="yes"/>
      <point x="575.169" y="99.6485"/>
      <point x="489.472" y="124.032"/>
      <point x="422.081" y="169.153" type="curve"/>
      <point x="352.64" y="61.2485" type="line"/>
      <point x="451.328" y="11.7125"/>
      <point x="530.497" y="-18.432"/>
    </contour>
  </outline>
  <guideline angle="256.667" x="233" y="692"/>
</glyph>
<glyph name="ae" format="2">
  <advance width="1765"/>
  <unicode hex="00E6"/>
  <anchor x="1021.44" y="1192" name="top"/>
  <outline>
    <contour>
      <point x="296.625" y="831.188" type="line"/>
      <point x="378.125" y="923.875"/>
      <point x="504.938" y="993.688"/>
      <point x="631.188" y="993.688" type="curve" smooth="yes"/>
      <point x="783.313" y="993.688"/>
      <point x="852.938" y="912.688"/>
      <point x="852.938" y="757.875" type="curve" smooth="yes"/>
      <point x="852.938" y="699.813"/>
      <point x="844.375" y="646.25"/>
      <point x="831.438" y="594.188" type="curve"/>
      <point x="479.063" y="594.188" type="line" smooth="yes"/>
      <point x="266.75" y="594.188"/>
      <point x="38.125" y="472.688"/>
      <point x="38.125" y="236.375" type="curve" smooth="yes"/>
      <point x="38.125" y="68.75"/>
      <point x="143.875" y="-20"/>
      <point x="304.438" y="-20" type="curve" smooth="yes"/>
      <point x="542.75" y="-20"/>
      <point x="722.875" y="113.563"/>
      <point x="827.625" y="337.813" type="curve"/>
      <point x="794.25" y="346.125" type="line"/>
      <point x="787.313" y="98.313"/>
      <point x="932.313" y="-12"/>
      <point x="1141.56" y="-12" type="curve" smooth="yes"/>
      <point x="1311.31" y="-12"/>
      <point x="1430.5" y="32.125"/>
      <point x="1564.06" y="137" type="curve"/>
      <point x="1497.81" y="196.438" type="line"/>
      <point x="1389.88" y="107.75"/>
      <point x="1284.69" y="81.063"/>
      <point x="1150.56" y="81.063" type="curve" smooth="yes"/>
      <point x="984.313" y="81.063"/>
      <point x="896.625" y="188.938"/>
      <point x="896.625" y="351.813" type="curve" smooth="yes"/>
      <point x="896.625" y="403.188"/>
      <point x="901.813" y="450.875"/>
      <point x="914.75" y="496.125" type="curve"/>
      <point x="1656" y="496.125" type="line"/>
      <point x="1671" y="544.625"/>
      <point x="1695.88" y="692.688"/>
      <point x="1695.88" y="743.313" type="curve" smooth="yes"/>
      <point x="1695.88" y="969.938"/>
      <point x="1567.62" y="1077"/>
      <point x="1348.12" y="1077" type="curve" smooth="yes"/>
      <point x="1178.06" y="1077"/>
      <point x="1049.69" y="994.5"/>
      <point x="949.75" y="864.313" type="curve"/>
      <point x="926.125" y="1034.56"/>
      <point x="790.813" y="1081"/>
      <point x="648.75" y="1081" type="curve" smooth="yes"/>
      <point x="470.5" y="1081"/>
      <point x="336.688" y="1010.69"/>
      <point x="213.875" y="891.438" type="curve"/>
    </contour>
    <contour>
      <point x="935.438" y="596.563" type="line"/>
      <point x="980.125" y="791.875"/>
      <point x="1122.69" y="975.063"/>
      <point x="1338.81" y="975.063" type="curve" smooth="yes"/>
      <point x="1500.62" y="975.063"/>
      <point x="1593" y="895.625"/>
      <point x="1593" y="731.125" type="curve" smooth="yes"/>
      <point x="1593" y="685.813"/>
      <point x="1587.81" y="639.5"/>
      <point x="1577.25" y="596.563" type="curve"/>
    </contour>
    <contour>
      <point x="814.75" y="496.125" type="line"/>
      <point x="749.063" y="284.313"/>
      <point x="604.688" y="74.75"/>
      <point x="354.125" y="74.75" type="curve" smooth="yes"/>
      <point x="266.75" y="74.75"/>
      <point x="159.875" y="135.563"/>
      <point x="159.875" y="241.438" type="curve" smooth="yes"/>
      <point x="159.875" y="393.5"/>
      <point x="319.188" y="496.125"/>
      <point x="457.688" y="496.125" type="curve" smooth="yes"/>
    </contour>
  </outline>
  <guideline angle="90" name="vertical" x="1022" y="0"/>
</glyph>
<glyph name="eth" format="2">
  <advance width="1217"/>
  <unicode hex="00F0"/>
  <outline>
    <contour>
      <point x="492.032" y="-16.384" type="curve" smooth="yes"/>
      <point x="937.6" y="-16.384"/>
      <point x="1131.33" y="484.352"/>
      <point x="1131.33" y="864.768" type="curve" smooth="yes"/>
      <point x="1131.33" y="1092.48"/>
      <point x="1061.25" y="1274.62"/>
      <point x="882.944" y="1418.43" type="curve"/>
      <point x="974.72" y="1507.58" type="line"/>
      <point x="890.816" y="1558.85" type="line"/>
      <point x="801.408" y="1471.3" type="line"/>
      <point x="748.032" y="1504.96"/>
      <point x="689.792" y="1531.71"/>
      <point x="631.936" y="1550.34" type="curve"/>
      <point x="555.968" y="1478.02" type="line"/>
      <point x="615.424" y="1452.16"/>
      <point x="670.016" y="1424.45"/>
      <point x="725.952" y="1393.47" type="curve"/>
      <point x="583.424" y="1254.02" type="line"/>
      <point x="664.704" y="1202.5" type="line"/>
      <point x="802.112" y="1337.86" type="line"/>
      <point x="891.392" y="1264"/>
      <point x="986.496" y="1088.51"/>
      <point x="984.96" y="969.664" type="curve"/>
      <point x="937.024" y="1056.32"/>
      <point x="785.152" y="1085.44"/>
      <point x="699.2" y="1085.44" type="curve" smooth="yes"/>
      <point x="347.264" y="1085.44"/>
      <point x="102.656" y="727.168"/>
      <point x="102.656" y="401.408" type="curve" smooth="yes"/>
      <point x="102.656" y="158.272"/>
      <point x="236.288" y="-16.384"/>
    </contour>
    <contour>
      <point x="489.344" y="89.984" type="curve" smooth="yes"/>
      <point x="304.96" y="89.984"/>
      <point x="231.104" y="219.456"/>
      <point x="231.104" y="390.592" type="curve" smooth="yes"/>
      <point x="231.104" y="667.264"/>
      <point x="412.8" y="995.584"/>
      <point x="722.048" y="995.584" type="curve" smooth="yes"/>
      <point x="890.496" y="995.584"/>
      <point x="980.48" y="872.128"/>
      <point x="980.48" y="712" type="curve" smooth="yes"/>
      <point x="980.48" y="444.864"/>
      <point x="791.68" y="89.984"/>
    </contour>
  </outline>
</glyph>
<glyph name="divide" format="2">
  <advance width="861"/>
  <unicode hex="00F7"/>
  <outline>
    <contour>
      <point x="507.136" y="956.16" type="line"/>
      <point x="507.136" y="1120.7" type="line"/>
      <point x="341.76" y="1120.7" type="line"/>
      <point x="341.76" y="956.16" type="line"/>
    </contour>
    <contour>
      <point x="752.943" y="600.96" type="line"/>
      <point x="752.943" y="683.584" type="line"/>
      <point x="95.953" y="683.584" type="line"/>
      <point x="95.953" y="600.96" type="line"/>
    </contour>
    <contour>
      <point x="507.136" y="145.216" type="line"/>
      <point x="507.136" y="308.352" type="line"/>
      <point x="341.76" y="308.352" type="line"/>
      <point x="341.76" y="145.216" type="line"/>
    </contour>
  </outline>
</glyph>
<glyph name="oslash" format="2">
  <advance width="1183"/>
  <unicode hex="00F8"/>
  <anchor x="743" y="1192" name="top"/>
  <outline>
    <contour>
      <point x="473.92" y="-20.48" type="curve" smooth="yes"/>
      <point x="820.16" y="-20.48"/>
      <point x="1088.19" y="340.48"/>
      <point x="1088.19" y="667.264" type="curve" smooth="yes"/>
      <point x="1088.19" y="778.24"/>
      <point x="1055.55" y="889.6"/>
      <point x="978.112" y="976.192" type="curve"/>
      <point x="1045.63" y="1062.72" type="line"/>
      <point x="971.264" y="1062.72" type="line"/>
      <point x="932.032" y="1013.5" type="line"/>
      <point x="862.848" y="1059.65"/>
      <point x="787.072" y="1077.25"/>
      <point x="707.328" y="1077.25" type="curve" smooth="yes"/>
      <point x="359.68" y="1077.25"/>
      <point x="94.08" y="715.264"/>
      <point x="94.08" y="388.096" type="curve" smooth="yes"/>
      <point x="94.08" y="276.48"/>
      <point x="124.48" y="166.144"/>
      <point x="203.52" y="78.784" type="curve"/>
      <point x="142.912" y="1.408" type="line"/>
      <point x="218.112" y="1.408" type="line"/>
      <point x="249.6" y="40.448" type="line"/>
      <point x="318.784" y="-5.504"/>
      <point x="394.368" y="-20.48"/>
    </contour>
    <contour>
      <point x="274.688" y="169.6" type="line"/>
      <point x="228.928" y="228.672"/>
      <point x="209.6" y="300.8"/>
      <point x="209.6" y="371.584" type="curve" smooth="yes"/>
      <point x="209.6" y="639.936"/>
      <point x="401.6" y="974.272"/>
      <point x="702.4" y="974.272" type="curve" smooth="yes"/>
      <point x="758.336" y="974.272"/>
      <point x="816.64" y="963.072"/>
      <point x="866.56" y="931.136" type="curve"/>
    </contour>
    <contour>
      <point x="479.04" y="81.472" type="curve" smooth="yes"/>
      <point x="423.104" y="81.472"/>
      <point x="366.016" y="93.696"/>
      <point x="317.696" y="126.656" type="curve"/>
      <point x="912" y="888.832" type="line"/>
      <point x="956.16" y="830.144"/>
      <point x="972.864" y="758.4"/>
      <point x="972.864" y="688" type="curve" smooth="yes"/>
      <point x="972.864" y="413.376"/>
      <point x="784.704" y="81.472"/>
    </contour>
  </outline>
  <guideline angle="90" name="vertical" x="743" y="0"/>
</glyph>
<glyph name="thorn" format="2">
  <advance width="1210"/>
  <unicode hex="00FE"/>
  <outline>
    <contour>
      <point x="88.128" y="-449.728" type="line"/>
      <point x="248.64" y="201.6" type="line"/>
      <point x="292.608" y="38.976"/>
      <point x="416.768" y="-20.48"/>
      <point x="569.472" y="-20.48" type="curve" smooth="yes"/>
      <point x="913.728" y="-20.48"/>
      <point x="1101.31" y="431.488"/>
      <point x="1101.31" y="722.944" type="curve" smooth="yes"/>
      <point x="1101.31" y="919.104"/>
      <point x="1021.63" y="1085.44"/>
      <point x="800.832" y="1085.44" type="curve" smooth="yes"/>
      <point x="629.568" y="1085.44"/>
      <point x="496.384" y="1013.57"/>
      <point x="395.584" y="873.664" type="curve"/>
      <point x="543.616" y="1446.91" type="line"/>
      <point x="433.216" y="1446.91" type="line"/>
      <point x="-22.464" y="-449.728" type="line"/>
    </contour>
    <contour>
      <point x="527.744" y="64.448" type="curve" smooth="yes"/>
      <point x="348.032" y="64.448"/>
      <point x="281.28" y="187.648"/>
      <point x="281.28" y="352.128" type="curve" smooth="yes"/>
      <point x="281.28" y="616.384"/>
      <point x="454.4" y="999.872"/>
      <point x="761.664" y="999.872" type="curve" smooth="yes"/>
      <point x="935.488" y="999.872"/>
      <point x="1000.83" y="871.232"/>
      <point x="1000.83" y="715.456" type="curve" smooth="yes"/>
      <point x="1000.83" y="452.608"/>
      <point x="838.464" y="64.448"/>
    </contour>
  </outline>
</glyph>
<glyph name="dcroat" format="2">
  <advance width="1194"/>
  <unicode hex="0111"/>
  <outline>
    <contour>
      <point x="734.272" y="1313.6" type="line"/>
      <point x="711.168" y="1217.41" type="line"/>
      <point x="1384.58" y="1217.41" type="line"/>
      <point x="1408.7" y="1313.6" type="line"/>
    </contour>
    <contour>
      <point x="418.304" y="-20.48" type="curve" smooth="yes"/>
      <point x="570.24" y="-20.48"/>
      <point x="688.704" y="35.072"/>
      <point x="790.912" y="149.824" type="curve"/>
      <point x="757.12" y="0" type="line"/>
      <point x="869.888" y="0" type="line"/>
      <point x="1217.77" y="1446.91" type="line"/>
      <point x="1108.01" y="1446.91" type="line"/>
      <point x="961.133" y="897.408" type="line"/>
      <point x="901.942" y="1031.17"/>
      <point x="791.077" y="1085.44"/>
      <point x="650.432" y="1085.44" type="curve" smooth="yes"/>
      <point x="305.024" y="1085.44"/>
      <point x="103.488" y="654.016"/>
      <point x="103.488" y="354.368" type="curve" smooth="yes"/>
      <point x="103.488" y="151.936"/>
      <point x="190.848" y="-20.48"/>
    </contour>
    <contour>
      <point x="448.576" y="76.16" type="curve" smooth="yes"/>
      <point x="277.248" y="76.16"/>
      <point x="212.928" y="196.864"/>
      <point x="212.928" y="352.576" type="curve" smooth="yes"/>
      <point x="212.928" y="614.336"/>
      <point x="373.632" y="984.384"/>
      <point x="678.4" y="984.384" type="curve" smooth="yes"/>
      <point x="846.976" y="984.384"/>
      <point x="914.24" y="868.864"/>
      <point x="914.24" y="711.808" type="curve" smooth="yes"/>
      <point x="914.24" y="451.648"/>
      <point x="753.6" y="76.16"/>
    </contour>
  </outline>
</glyph>
<glyph name="Hbar" format="2">
  <advance width="1487"/>
  <unicode hex="0126"/>
  <outline>
    <contour>
      <point x="270.572" y="1204.68" type="line"/>
      <point x="251.264" y="1110.59" type="line"/>
      <point x="1508.42" y="1110.59" type="line"/>
      <point x="1527.72" y="1204.68" type="line"/>
    </contour>
    <contour>
      <point x="1132.75" y="0" type="line"/>
      <point x="1466.94" y="1448" type="line"/>
      <point x="1348.25" y="1448" type="line"/>
      <point x="1194.19" y="768.188" type="line"/>
      <point x="416.313" y="768.188" type="line"/>
      <point x="570.375" y="1448" type="line"/>
      <point x="453.063" y="1448" type="line"/>
      <point x="119.875" y="0" type="line"/>
      <point x="237.375" y="0" type="line"/>
      <point x="392" y="680" type="line"/>
      <point x="1169.88" y="680" type="line"/>
      <point x="1016.44" y="0" type="line"/>
    </contour>
  </outline>
  <guideline angle="258.408" x="261" y="1182"/>
  <guideline angle="78.4078" x="1519" y="1104"/>
</glyph>
<glyph name="hbar" format="2">
  <advance width="1175"/>
  <unicode hex="0127"/>
  <outline>
    <contour>
      <point x="167.552" y="1285.76" type="line"/>
      <point x="144.448" y="1190.78" type="line"/>
      <point x="817.856" y="1190.78" type="line"/>
      <point x="841.984" y="1285.76" type="line"/>
    </contour>
    <contour>
      <point x="768.813" y="0" type="line"/>
      <point x="882.938" y="0" type="line"/>
      <point x="1031.62" y="657.688" type="line"/>
      <point x="1041.59" y="704.794"/>
      <point x="1047.44" y="753.438"/>
      <point x="1047.44" y="798.625" type="curve" smooth="yes"/>
      <point x="1047.44" y="951.25"/>
      <point x="980" y="1084"/>
      <point x="776" y="1084" type="curve" smooth="yes"/>
      <point x="634.563" y="1084"/>
      <point x="489.25" y="973.313"/>
      <point x="387.938" y="861.563" type="curve"/>
      <point x="327.688" y="861.563" type="line"/>
      <point x="266.25" y="579.188" type="line"/>
      <point x="314.063" y="579.188" type="line"/>
      <point x="366.063" y="778"/>
      <point x="543.438" y="980.625"/>
      <point x="759.125" y="980.625" type="curve" smooth="yes"/>
      <point x="884.625" y="980.625"/>
      <point x="935.5" y="906.188"/>
      <point x="935.5" y="787.625" type="curve" smooth="yes"/>
      <point x="935.5" y="735.813"/>
      <point x="933.086" y="696.199"/>
      <point x="892" y="524.25" type="curve" smooth="yes"/>
    </contour>
    <contour>
      <point x="67.625" y="0" type="line"/>
      <point x="174.875" y="0" type="line"/>
      <point x="522.063" y="1448" type="line"/>
      <point x="414.813" y="1448" type="line"/>
    </contour>
  </outline>
</glyph>
<glyph name="dotlessi" format="2">
  <advance width="480"/>
  <unicode hex="0131"/>
  <anchor x="390.125" y="1192" name="top"/>
  <outline>
    <contour>
      <point x="173.875" y="0" type="line"/>
      <point x="424.125" y="1064" type="line"/>
      <point x="315.688" y="1064" type="line"/>
      <point x="65.438" y="0" type="line"/>
    </contour>
  </outline>
  <guideline angle="90" name="vertical" x="389" y="0"/>
</glyph>
<glyph name="kgreenlandic" format="2">
  <advance width="1086"/>
  <unicode hex="0138"/>
  <outline>
    <contour>
      <point x="874.112" y="0" type="line"/>
      <point x="630.336" y="676.8" type="line"/>
      <point x="1045.7" y="1063.94" type="line"/>
      <point x="909.184" y="1063.94" type="line"/>
      <point x="260.672" y="463.488" type="line"/>
      <point x="399.168" y="1063.94" type="line"/>
      <point x="287.424" y="1063.94" type="line"/>
      <point x="42.496" y="0" type="line"/>
      <point x="155.648" y="0" type="line"/>
      <point x="227.968" y="309.888" type="line"/>
      <point x="542.848" y="583.552" type="line"/>
      <point x="742.08" y="0" type="line"/>
    </contour>
  </outline>
</glyph>
<glyph name="Lcaron" format="2">
  <advance width="1062"/>
  <unicode hex="013D"/>
  <anchor x="498.5" y="1620" name="top"/>
  <anchor x="499" y="-120" name="bottom"/>
  <outline>
    <contour>
      <point x="857.024" y="0" type="line"/>
      <point x="879.296" y="103.488" type="line"/>
      <point x="259.584" y="103.488" type="line"/>
      <point x="570.112" y="1447.94" type="line"/>
      <point x="453.504" y="1447.94" type="line"/>
      <point x="119.488" y="0" type="line"/>
    </contour>
    <contour>
      <point x="895.813" y="1079.69" type="line"/>
      <point x="1188.38" y="1448" type="line"/>
      <point x="988.625" y="1448" type="line"/>
      <point x="798.438" y="1079.69" type="line"/>
    </contour>
  </outline>
</glyph>
<glyph name="lcaron" format="2">
  <advance width="617"/>
  <unicode hex="013E"/>
  <outline>
    <contour>
      <point x="667.52" y="1070.78" type="line"/>
      <point x="967.104" y="1447.94" type="line"/>
      <point x="762.56" y="1447.94" type="line"/>
      <point x="567.808" y="1070.78" type="line"/>
    </contour>
    <contour>
      <point x="187.328" y="-20.48" type="curve" smooth="yes"/>
      <point x="230.208" y="-20.48"/>
      <point x="269.952" y="-14.336"/>
      <point x="306.944" y="-2.048" type="curve"/>
      <point x="324.16" y="85.504" type="line"/>
      <point x="293.312" y="74.304"/>
      <point x="258.56" y="68.8"/>
      <point x="219.904" y="68.8" type="curve" smooth="yes"/>
      <point x="199.04" y="68.8"/>
      <point x="178.368" y="83.52"/>
      <point x="178.368" y="108.096" type="curve"/>
      <point x="499.127" y="1447.94" type="line"/>
      <point x="384.293" y="1447.94" type="line"/>
      <point x="85.693" y="171.456" type="line" smooth="yes"/>
      <point x="78.511" y="142.979"/>
      <point x="70.781" y="113.92"/>
      <point x="70.781" y="83.264" type="curve" smooth="yes"/>
      <point x="70.781" y="0.64"/>
      <point x="117.901" y="-20.48"/>
    </contour>
  </outline>
</glyph>
<glyph name="Ldot" format="2">
  <advance width="1062"/>
  <unicode hex="013F"/>
  <anchor x="498.5" y="1620" name="top"/>
  <anchor x="499" y="-120" name="bottom"/>
  <outline>
    <contour>
      <point x="857.024" y="0" type="line"/>
      <point x="879.296" y="103.488" type="line"/>
      <point x="259.584" y="103.488" type="line"/>
      <point x="570.112" y="1447.94" type="line"/>
      <point x="453.504" y="1447.94" type="line"/>
      <point x="119.488" y="0" type="line"/>
    </contour>
    <contour>
      <point x="800.778" y="657.993" type="curve" smooth="yes"/>
      <point x="871.05" y="657.993"/>
      <point x="934.538" y="722.249"/>
      <point x="934.538" y="792.329" type="curve" smooth="yes"/>
      <point x="934.538" y="852.105"/>
      <point x="892.234" y="889.161"/>
      <point x="833.866" y="889.161" type="curve" smooth="yes"/>
      <point x="758.73" y="889.161"/>
      <point x="700.746" y="827.785"/>
      <point x="700.746" y="754.249" type="curve" smooth="yes"/>
      <point x="700.746" y="695.305"/>
      <point x="743.178" y="657.993"/>
    </contour>
  </outline>
</glyph>
<glyph name="ldot" format="2">
  <advance width="780"/>
  <unicode hex="0140"/>
  <anchor x="434.438" y="1620" name="top"/>
  <anchor x="140.5" y="-120" name="bottom"/>
  <outline>
    <contour>
      <point x="187.328" y="-20.48" type="curve" smooth="yes"/>
      <point x="230.208" y="-20.48"/>
      <point x="269.952" y="-14.336"/>
      <point x="306.944" y="-2.048" type="curve"/>
      <point x="324.16" y="85.504" type="line"/>
      <point x="293.312" y="74.304"/>
      <point x="258.56" y="68.8"/>
      <point x="219.904" y="68.8" type="curve" smooth="yes"/>
      <point x="199.04" y="68.8"/>
      <point x="178.368" y="83.52"/>
      <point x="178.368" y="108.096" type="curve"/>
      <point x="499.127" y="1447.94" type="line"/>
      <point x="384.293" y="1447.94" type="line"/>
      <point x="85.693" y="171.456" type="line" smooth="yes"/>
      <point x="78.511" y="142.979"/>
      <point x="70.781" y="113.92"/>
      <point x="70.781" y="83.264" type="curve" smooth="yes"/>
      <point x="70.781" y="0.64"/>
      <point x="117.901" y="-20.48"/>
    </contour>
    <contour>
      <point x="612.09" y="657.993" type="curve" smooth="yes"/>
      <point x="682.362" y="657.993"/>
      <point x="745.85" y="722.249"/>
      <point x="745.85" y="792.329" type="curve" smooth="yes"/>
      <point x="745.85" y="852.105"/>
      <point x="703.546" y="889.161"/>
      <point x="645.178" y="889.161" type="curve" smooth="yes"/>
      <point x="570.042" y="889.161"/>
      <point x="512.058" y="827.785"/>
      <point x="512.058" y="754.249" type="curve" smooth="yes"/>
      <point x="512.058" y="695.305"/>
      <point x="554.49" y="657.993"/>
    </contour>
  </outline>
</glyph>
<glyph name="Lslash" format="2">
  <advance width="1080"/>
  <unicode hex="0141"/>
  <outline>
    <contour>
      <point x="79.616" y="566.528" type="line"/>
      <point x="43.328" y="412.032" type="line"/>
      <point x="844.672" y="883.136" type="line"/>
      <point x="878.912" y="1025.66" type="line"/>
    </contour>
    <contour>
      <point x="882.024" y="0" type="line"/>
      <point x="904.296" y="103.488" type="line"/>
      <point x="284.584" y="103.488" type="line"/>
      <point x="595.112" y="1447.94" type="line"/>
      <point x="478.504" y="1447.94" type="line"/>
      <point x="144.488" y="0" type="line"/>
    </contour>
  </outline>
  <guideline angle="77" x="829" y="851"/>
  <guideline angle="77" x="59" y="492"/>
  <guideline angle="30" x="878" y="890"/>
  <guideline angle="30" x="878" y="1038"/>
</glyph>
<glyph name="lslash" format="2">
  <advance width="536"/>
  <unicode hex="0142"/>
  <outline>
    <contour>
      <point x="77.12" y="662.272" type="line"/>
      <point x="43.328" y="516.544" type="line"/>
      <point x="531.072" y="797.696" type="line"/>
      <point x="563.456" y="944.64" type="line"/>
    </contour>
    <contour>
      <point x="219.391" y="-20.48" type="curve" smooth="yes"/>
      <point x="262.271" y="-20.48"/>
      <point x="302.015" y="-14.336"/>
      <point x="339.007" y="-2.048" type="curve"/>
      <point x="356.223" y="85.504" type="line"/>
      <point x="325.375" y="74.304"/>
      <point x="290.623" y="68.8"/>
      <point x="251.967" y="68.8" type="curve" smooth="yes"/>
      <point x="231.103" y="68.8"/>
      <point x="210.431" y="83.52"/>
      <point x="210.431" y="108.096" type="curve"/>
      <point x="531.19" y="1447.94" type="line"/>
      <point x="416.356" y="1447.94" type="line"/>
      <point x="117.755" y="171.456" type="line" smooth="yes"/>
      <point x="110.574" y="142.979"/>
      <point x="102.843" y="113.92"/>
      <point x="102.843" y="83.264" type="curve" smooth="yes"/>
      <point x="102.843" y="0.64"/>
      <point x="149.964" y="-20.48"/>
    </contour>
  </outline>
  <guideline angle="77" x="560" y="851"/>
  <guideline angle="77" x="37" y="492"/>
  <guideline angle="30" x="852" y="971"/>
  <guideline angle="30" x="852" y="1111"/>
</glyph>
<glyph name="Eng" format="2">
  <advance width="1443"/>
  <unicode hex="014A"/>
  <outline>
    <contour>
      <point x="684.097" y="-379.073" type="line" smooth="yes"/>
      <point x="970.561" y="-379.073"/>
      <point x="1029.12" y="-260.033"/>
      <point x="1087.42" y="-7.808" type="curve" smooth="yes"/>
      <point x="1424.13" y="1447.94" type="line"/>
      <point x="1304" y="1447.94" type="line"/>
      <point x="986.368" y="78.208" type="line"/>
      <point x="658.432" y="1447.94" type="line"/>
      <point x="448.64" y="1447.94" type="line"/>
      <point x="113.408" y="0" type="line"/>
      <point x="235.776" y="0" type="line"/>
      <point x="554.817" y="1369.92" type="line"/>
      <point x="910.08" y="-68.2885" type="line" smooth="yes"/>
      <point x="913.345" y="-80.512"/>
      <point x="916.992" y="-93.7605"/>
      <point x="916.992" y="-107.201" type="curve" smooth="yes"/>
      <point x="916.992" y="-223.937"/>
      <point x="799.425" y="-275.84"/>
      <point x="712.32" y="-275.84" type="curve" smooth="yes"/>
      <point x="690.56" y="-275.84" type="line"/>
      <point x="672" y="-379.073" type="line"/>
    </contour>
  </outline>
</glyph>
<glyph name="eng" format="2">
  <advance width="1174"/>
  <unicode hex="014B"/>
  <outline>
    <contour>
      <point x="512.321" y="-379.073" type="line" smooth="yes"/>
      <point x="715.776" y="-379.073"/>
      <point x="813.633" y="-300.288"/>
      <point x="861.568" y="-92.7365" type="curve" smooth="yes"/>
      <point x="1034.3" y="647.04" type="line" smooth="yes"/>
      <point x="1045.76" y="696.96"/>
      <point x="1053.31" y="745.856"/>
      <point x="1053.31" y="797.184" type="curve" smooth="yes"/>
      <point x="1053.31" y="987.713"/>
      <point x="960.384" y="1084.42"/>
      <point x="770.241" y="1084.42" type="curve" smooth="yes"/>
      <point x="618.112" y="1084.42"/>
      <point x="481.089" y="997.441"/>
      <point x="389.441" y="885.953" type="curve"/>
      <point x="433.152" y="1063.94" type="line"/>
      <point x="316.609" y="1063.94" type="line"/>
      <point x="72.8965" y="0" type="line"/>
      <point x="189.633" y="0" type="line"/>
      <point x="330.433" y="615.68" type="line" smooth="yes"/>
      <point x="372.736" y="802.881"/>
      <point x="573.056" y="970.433"/>
      <point x="765.568" y="970.433" type="curve" smooth="yes"/>
      <point x="886.784" y="970.433"/>
      <point x="940.097" y="904.704"/>
      <point x="940.097" y="787.712" type="curve" smooth="yes"/>
      <point x="940.097" y="740.608"/>
      <point x="932.545" y="697.281"/>
      <point x="922.305" y="653.249" type="curve" smooth="yes"/>
      <point x="751.425" y="-73.4085" type="line" smooth="yes"/>
      <point x="724.224" y="-190.592"/>
      <point x="662.209" y="-281.472"/>
      <point x="530.881" y="-281.472" type="curve" smooth="yes"/>
      <point x="487.552" y="-281.472" type="line"/>
      <point x="463.104" y="-379.073" type="line"/>
    </contour>
  </outline>
</glyph>
<glyph name="OE" format="2">
  <advance width="2361"/>
  <unicode hex="0152"/>
  <outline>
    <contour>
      <point x="700.736" y="-20.48" type="curve" smooth="yes"/>
      <point x="942.016" y="-20.48"/>
      <point x="1134.14" y="80"/>
      <point x="1278.14" y="280.96" type="curve"/>
      <point x="1212.29" y="0" type="line"/>
      <point x="2127.42" y="0" type="line"/>
      <point x="2150.72" y="103.488" type="line"/>
      <point x="1352.38" y="103.488" type="line"/>
      <point x="1485.38" y="679.552" type="line"/>
      <point x="2168.9" y="679.552" type="line"/>
      <point x="2190.14" y="768.576" type="line"/>
      <point x="1509.06" y="768.576" type="line"/>
      <point x="1641.28" y="1352.83" type="line"/>
      <point x="2438.59" y="1352.83" type="line"/>
      <point x="2461.25" y="1447.94" type="line"/>
      <point x="1546.11" y="1447.94" type="line"/>
      <point x="1474.94" y="1143.68" type="line"/>
      <point x="1410.37" y="1383.17"/>
      <point x="1244.42" y="1468.42"/>
      <point x="1020.61" y="1468.42" type="curve" smooth="yes"/>
      <point x="502.08" y="1468.42"/>
      <point x="203.008" y="953.536"/>
      <point x="203.008" y="490.624" type="curve" smooth="yes"/>
      <point x="203.008" y="173.76"/>
      <point x="375.168" y="-20.48"/>
    </contour>
    <contour>
      <point x="714.624" y="88.064" type="curve" smooth="yes"/>
      <point x="461.76" y="88.064"/>
      <point x="327.488" y="242.368"/>
      <point x="327.488" y="489.408" type="curve" smooth="yes"/>
      <point x="327.488" y="887.296"/>
      <point x="546.304" y="1357.63"/>
      <point x="1000.64" y="1357.63" type="curve" smooth="yes"/>
      <point x="1266.5" y="1357.63"/>
      <point x="1391.62" y="1199.68"/>
      <point x="1391.62" y="943.104" type="curve" smooth="yes"/>
      <point x="1391.62" y="555.968"/>
      <point x="1154.75" y="88.064"/>
    </contour>
  </outline>
</glyph>
<glyph name="oe" format="2">
  <advance width="1928"/>
  <unicode hex="0153"/>
  <outline>
    <contour>
      <point x="482.188" y="-20" type="curve" smooth="yes"/>
      <point x="677.25" y="-20"/>
      <point x="845" y="80.563"/>
      <point x="953.563" y="236.375" type="curve"/>
      <point x="997.688" y="59.125"/>
      <point x="1121.81" y="-12"/>
      <point x="1296.62" y="-12" type="curve" smooth="yes"/>
      <point x="1467.69" y="-12"/>
      <point x="1579.44" y="30"/>
      <point x="1710.62" y="132.813" type="curve"/>
      <point x="1643.94" y="189.188" type="line"/>
      <point x="1542.44" y="99.625"/>
      <point x="1440.62" y="75.625"/>
      <point x="1304.88" y="75.625" type="curve" smooth="yes"/>
      <point x="1135.38" y="75.625"/>
      <point x="1051.31" y="183.438"/>
      <point x="1051.31" y="352.813" type="curve" smooth="yes"/>
      <point x="1051.31" y="399.875"/>
      <point x="1058.06" y="447.938"/>
      <point x="1068.19" y="494.188" type="curve"/>
      <point x="1811" y="494.188" type="line"/>
      <point x="1837.44" y="579.813"/>
      <point x="1852.19" y="667.625"/>
      <point x="1852.19" y="756.875" type="curve" smooth="yes"/>
      <point x="1852.19" y="976.625"/>
      <point x="1711.12" y="1077"/>
      <point x="1508.38" y="1077" type="curve" smooth="yes"/>
      <point x="1314.62" y="1077"/>
      <point x="1179.44" y="971.563"/>
      <point x="1076.44" y="821.063" type="curve"/>
      <point x="1021.12" y="995.5"/>
      <point x="891.438" y="1077"/>
      <point x="720.438" y="1077" type="curve" smooth="yes"/>
      <point x="369.563" y="1077"/>
      <point x="107.313" y="712.813"/>
      <point x="107.313" y="382.5" type="curve" smooth="yes"/>
      <point x="107.313" y="159"/>
      <point x="247.125" y="-20"/>
    </contour>
    <contour>
      <point x="495.563" y="85.5" type="curve" smooth="yes"/>
      <point x="321.125" y="85.5"/>
      <point x="222.75" y="203.875"/>
      <point x="222.75" y="376.5" type="curve" smooth="yes"/>
      <point x="222.75" y="645.188"/>
      <point x="417.188" y="971.063"/>
      <point x="714.625" y="971.063" type="curve" smooth="yes"/>
      <point x="892.813" y="971.063"/>
      <point x="986.25" y="862.188"/>
      <point x="986.25" y="684.625" type="curve" smooth="yes"/>
      <point x="986.25" y="409.813"/>
      <point x="797.563" y="85.5"/>
    </contour>
    <contour>
      <point x="1734.31" y="594.25" type="curve"/>
      <point x="1090.06" y="594.25" type="line"/>
      <point x="1135.12" y="792.188"/>
      <point x="1277.69" y="980.125"/>
      <point x="1498.88" y="980.125" type="curve" smooth="yes"/>
      <point x="1650.62" y="980.125"/>
      <point x="1761.31" y="912.313"/>
      <point x="1761.31" y="749.75" type="curve" smooth="yes"/>
      <point x="1761.31" y="695.563"/>
      <point x="1748.81" y="644.688"/>
    </contour>
  </outline>
</glyph>
<glyph name="Tbar" format="2">
  <advance width="1309"/>
  <unicode hex="0166"/>
  <outline>
    <contour>
      <point x="596.992" y="0" type="line"/>
      <point x="751.936" y="674.048" type="line"/>
      <point x="1021.7" y="674.048" type="line"/>
      <point x="1043.78" y="769.024" type="line"/>
      <point x="775.04" y="769.024" type="line"/>
      <point x="910.784" y="1359.17" type="line"/>
      <point x="1414.27" y="1359.17" type="line"/>
      <point x="1434.5" y="1446.91" type="line"/>
      <point x="305.856" y="1446.91" type="line"/>
      <point x="285.632" y="1359.17" type="line"/>
      <point x="790.336" y="1359.17" type="line"/>
      <point x="654.592" y="769.024" type="line"/>
      <point x="397.184" y="769.024" type="line"/>
      <point x="373.888" y="674.048" type="line"/>
      <point x="632.704" y="674.048" type="line"/>
      <point x="476.736" y="0" type="line"/>
    </contour>
  </outline>
</glyph>
<glyph name="longs" format="2">
  <advance width="733"/>
  <unicode hex="017F"/>
  <outline>
    <contour>
      <point x="117.75" y="0" type="line"/>
      <point x="226.625" y="0" type="line"/>
      <point x="498.063" y="1129.56" type="line" smooth="yes"/>
      <point x="544.75" y="1321.88"/>
      <point x="619.625" y="1382.25"/>
      <point x="726.5" y="1382.25" type="curve" smooth="yes"/>
      <point x="771.125" y="1382.25"/>
      <point x="813.563" y="1373.88"/>
      <point x="855.188" y="1357.31" type="curve"/>
      <point x="888" y="1429.12" type="line"/>
      <point x="838.625" y="1455.38"/>
      <point x="784.938" y="1468"/>
      <point x="723.75" y="1468" type="curve" smooth="yes"/>
      <point x="455.438" y="1468"/>
      <point x="421.813" y="1301.12"/>
      <point x="369.875" y="1089.94" type="curve" smooth="yes"/>
      <point x="362.563" y="1062" type="line"/>
      <point x="167.938" y="1062" type="line"/>
      <point x="147.438" y="977.313" type="line"/>
      <point x="343.813" y="977.313" type="line"/>
    </contour>
  </outline>
</glyph>
<glyph name="florin" format="2">
  <advance width="1144"/>
  <unicode hex="0192"/>
  <outline>
    <contour>
      <point x="-74.24" y="-469.184" type="line"/>
      <point x="208.32" y="-469.184"/>
      <point x="424.064" y="-303.488"/>
      <point x="491.904" y="-15.232" type="curve" smooth="yes"/>
      <point x="721.472" y="962.88" type="line"/>
      <point x="1047.3" y="962.88" type="line"/>
      <point x="1071.94" y="1063.94" type="line"/>
      <point x="744.896" y="1063.94" type="line"/>
      <point x="760.192" y="1116.03" type="line" smooth="yes"/>
      <point x="798.72" y="1245.5"/>
      <point x="855.936" y="1382.72"/>
      <point x="1002.5" y="1382.72" type="curve" smooth="yes"/>
      <point x="1033.98" y="1382.72"/>
      <point x="1078.4" y="1371.46"/>
      <point x="1102.46" y="1351.68" type="curve"/>
      <point x="1183.87" y="1420.99" type="line"/>
      <point x="1137.41" y="1459.33"/>
      <point x="1072.26" y="1486.85"/>
      <point x="1007.81" y="1486.85" type="curve" smooth="yes"/>
      <point x="768.64" y="1486.85"/>
      <point x="705.984" y="1307.39"/>
      <point x="654.016" y="1119.17" type="curve" smooth="yes"/>
      <point x="638.656" y="1063.94" type="line"/>
      <point x="448" y="1063.94" type="line"/>
      <point x="423.36" y="962.88" type="line"/>
      <point x="612.8" y="962.88" type="line"/>
      <point x="389.76" y="-6.336" type="line"/>
      <point x="333.632" y="-246.848"/>
      <point x="182.336" y="-365.056"/>
      <point x="-61.696" y="-365.056" type="curve"/>
    </contour>
  </outline>
</glyph>
<glyph name="uni01DD" format="2">
  <advance width="1076"/>
  <unicode hex="01DD"/>
  <outline>
    <contour>
      <point x="634.68" y="1085.48" type="curve" smooth="yes"/>
      <point x="484.024" y="1085.48"/>
      <point x="332.024" y="1037.67"/>
      <point x="214.968" y="937" type="curve"/>
      <point x="283.576" y="877.8" type="line"/>
      <point x="378.744" y="963.368"/>
      <point x="503.672" y="992.872"/>
      <point x="627.96" y="992.872" type="curve" smooth="yes"/>
      <point x="796.536" y="992.872"/>
      <point x="883.064" y="877.8"/>
      <point x="883.064" y="706.536" type="curve" smooth="yes"/>
      <point x="883.064" y="662.44"/>
      <point x="875.512" y="615.784"/>
      <point x="866.104" y="570.984" type="curve"/>
      <point x="122.04" y="570.984" type="line"/>
      <point x="98.424" y="486.888"/>
      <point x="81.848" y="415.528"/>
      <point x="81.848" y="321.448" type="curve" smooth="yes"/>
      <point x="81.848" y="96.232"/>
      <point x="203.192" y="-19.416"/>
      <point x="424.888" y="-19.416" type="curve" smooth="yes"/>
      <point x="781.496" y="-19.416"/>
      <point x="993.4" y="388.008"/>
      <point x="993.4" y="705.576" type="curve" smooth="yes"/>
      <point x="993.4" y="932.328"/>
      <point x="867.96" y="1085.48"/>
    </contour>
    <contour>
      <point x="201.464" y="471.016" type="curve"/>
      <point x="844.152" y="471.016" type="line"/>
      <point x="795.576" y="274.6"/>
      <point x="657.272" y="82.28"/>
      <point x="438.264" y="82.28" type="curve" smooth="yes"/>
      <point x="285.752" y="82.28"/>
      <point x="174.072" y="151.208"/>
      <point x="174.072" y="316.584" type="curve" smooth="yes"/>
      <point x="174.072" y="370.472"/>
      <point x="187.256" y="421.544"/>
    </contour>
  </outline>
</glyph>
<glyph name="uni0237" format="2">
  <advance width="524"/>
  <unicode hex="0237"/>
  <anchor x="381" y="1192" name="top"/>
  <outline>
    <contour>
      <point x="-161.792" y="-449.728" type="curve" smooth="yes"/>
      <point x="16.896" y="-449.728"/>
      <point x="116.096" y="-339.456"/>
      <point x="155.456" y="-173.504" type="curve" smooth="yes"/>
      <point x="444.096" y="1063.94" type="line"/>
      <point x="319.296" y="1063.94" type="line"/>
      <point x="26.432" y="-189.248" type="line" smooth="yes"/>
      <point x="6.208" y="-276.16"/>
      <point x="-47.68" y="-340.992"/>
      <point x="-144.96" y="-340.992" type="curve" smooth="yes"/>
      <point x="-185.664" y="-340.992"/>
      <point x="-226.56" y="-336.896"/>
      <point x="-267.84" y="-325.056" type="curve"/>
      <point x="-308.736" y="-419.136" type="line"/>
      <point x="-262.912" y="-437.44"/>
      <point x="-213.248" y="-449.728"/>
    </contour>
  </outline>
  <guideline angle="90" name="vertical" x="384" y="0"/>
</glyph>
<glyph name="uni0250" format="2">
  <advance width="1150"/>
  <unicode hex="0250"/>
  <outline>
    <contour>
      <point x="754.259" y="1084.48" type="curve" smooth="yes"/>
      <point x="614.482" y="1084.48"/>
      <point x="477.778" y="1019.2"/>
      <point x="381.65" y="914.176" type="curve"/>
      <point x="415.442" y="1064" type="line"/>
      <point x="302.674" y="1064" type="line"/>
      <point x="59.346" y="0.064" type="line"/>
      <point x="169.106" y="0.064" type="line"/>
      <point x="209.554" y="167.424" type="line"/>
      <point x="271.57" y="33.664"/>
      <point x="378.322" y="-20.416"/>
      <point x="522.13" y="-20.416" type="curve" smooth="yes"/>
      <point x="867.539" y="-20.416"/>
      <point x="1069.08" y="411.2"/>
      <point x="1069.08" y="709.632" type="curve" smooth="yes"/>
      <point x="1069.08" y="912.064"/>
      <point x="978.067" y="1084.48"/>
    </contour>
    <contour>
      <point x="725.202" y="987.84" type="curve" smooth="yes"/>
      <point x="896.531" y="987.84"/>
      <point x="959.635" y="867.136"/>
      <point x="959.635" y="711.424" type="curve" smooth="yes"/>
      <point x="959.635" y="449.664"/>
      <point x="798.93" y="80.64"/>
      <point x="494.162" y="80.64" type="curve" smooth="yes"/>
      <point x="325.586" y="80.64"/>
      <point x="259.538" y="194.752"/>
      <point x="259.538" y="351.808" type="curve" smooth="yes"/>
      <point x="259.538" y="614.4"/>
      <point x="417.746" y="987.84"/>
    </contour>
  </outline>
</glyph>
<glyph name="uni0254" format="2">
  <advance width="1015"/>
  <unicode hex="0254"/>
  <outline>
    <contour>
      <point x="585.25" y="1081" type="curve" smooth="yes"/>
      <point x="401.5" y="1081"/>
      <point x="243.938" y="976.5"/>
      <point x="154.125" y="819.438" type="curve"/>
      <point x="238.5" y="769.75" type="line"/>
      <point x="300.563" y="893.313"/>
      <point x="437.375" y="988.313"/>
      <point x="578.5" y="988.313" type="curve" smooth="yes"/>
      <point x="758.688" y="988.313"/>
      <point x="817.313" y="858.75"/>
      <point x="817.313" y="698.188" type="curve" smooth="yes"/>
      <point x="817.313" y="448.313"/>
      <point x="665.75" y="74.875"/>
      <point x="371.5" y="74.875" type="curve" smooth="yes"/>
      <point x="243.625" y="74.875"/>
      <point x="141.625" y="158.5"/>
      <point x="131.875" y="288.063" type="curve"/>
      <point x="23.875" y="241.938" type="line"/>
      <point x="66.438" y="68.625"/>
      <point x="189.563" y="-20"/>
      <point x="361.063" y="-20" type="curve" smooth="yes"/>
      <point x="716.563" y="-20"/>
      <point x="927.375" y="379.875"/>
      <point x="927.375" y="692.313" type="curve" smooth="yes"/>
      <point x="927.375" y="912.563"/>
      <point x="822.25" y="1081"/>
    </contour>
  </outline>
</glyph>
<glyph name="uni0258" format="2">
  <advance width="1108"/>
  <unicode hex="0258"/>
  <outline>
    <contour>
      <point x="419.188" y="-20" type="curve" smooth="yes"/>
      <point x="794.563" y="-20"/>
      <point x="1021.69" y="345.438"/>
      <point x="1021.69" y="690.125" type="curve" smooth="yes"/>
      <point x="1021.69" y="917.5"/>
      <point x="904.688" y="1084"/>
      <point x="663.75" y="1084" type="curve" smooth="yes"/>
      <point x="339" y="1084"/>
      <point x="143.563" y="785.438"/>
      <point x="106.75" y="494.063" type="curve"/>
      <point x="850.188" y="494.063" type="line"/>
      <point x="800.813" y="287.313"/>
      <point x="657.875" y="94.438"/>
      <point x="428.063" y="94.438" type="curve" smooth="yes"/>
      <point x="318" y="94.438"/>
      <point x="221.75" y="114.125"/>
      <point x="155.625" y="211" type="curve"/>
      <point x="51.188" y="142.625" type="line"/>
      <point x="147.313" y="16.25"/>
      <point x="272.938" y="-20"/>
    </contour>
    <contour>
      <point x="878.375" y="598.25" type="curve"/>
      <point x="260.313" y="598.25" type="line"/>
      <point x="302" y="798.375"/>
      <point x="444.25" y="961.875"/>
      <point x="661" y="961.875" type="curve" smooth="yes"/>
      <point x="818" y="961.875"/>
      <point x="889.688" y="869.875"/>
      <point x="889.688" y="720.438" type="curve" smooth="yes"/>
      <point x="889.688" y="685.25"/>
      <point x="886.313" y="633.438"/>
    </contour>
  </outline>
</glyph>
<glyph name="uni02BC" format="2">
  <advance width="501"/>
  <unicode hex="02BC"/>
  <outline>
    <contour>
      <point x="224.286" y="983.36" type="line"/>
      <point x="289.694" y="983.36" type="line"/>
      <point x="610.526" y="1447.94" type="line"/>
      <point x="446.622" y="1447.94" type="line"/>
    </contour>
  </outline>
</glyph>
<glyph name="circumflex" format="2">
  <advance width="822"/>
  <unicode hex="02C6"/>
  <outline>
    <contour>
      <point x="884.798" y="1191.94" type="line"/>
      <point x="628.734" y="1553.6" type="line"/>
      <point x="207.422" y="1191.94" type="line"/>
      <point x="359.678" y="1191.94" type="line"/>
      <point x="602.174" y="1401.22" type="line"/>
      <point x="740.99" y="1191.94" type="line"/>
    </contour>
  </outline>
</glyph>
<glyph name="caron" format="2">
  <advance width="823"/>
  <unicode hex="02C7"/>
  <outline>
    <contour>
      <point x="560.857" y="1191.94" type="line"/>
      <point x="975.833" y="1528.26" type="line"/>
      <point x="824.217" y="1528.26" type="line"/>
      <point x="584.537" y="1321.92" type="line"/>
      <point x="445.337" y="1528.26" type="line"/>
      <point x="298.457" y="1528.26" type="line"/>
    </contour>
  </outline>
</glyph>
<glyph name="uni02D0" format="2">
  <advance width="455"/>
  <unicode hex="02D0"/>
  <outline>
    <contour>
      <point x="267.136" y="667.008" type="line"/>
      <point x="466.88" y="1046.34" type="line"/>
      <point x="67.392" y="1046.34" type="line"/>
    </contour>
    <contour>
      <point x="67.392" y="0" type="line"/>
      <point x="466.88" y="0" type="line"/>
      <point x="267.136" y="379.328" type="line"/>
    </contour>
  </outline>
</glyph>
<glyph name="uni02D1" format="2">
  <advance width="513"/>
  <unicode hex="02D1"/>
  <outline>
    <contour>
      <point x="268.288" y="306.048" type="line"/>
      <point x="469.376" y="687.104" type="line"/>
      <point x="67.392" y="687.104" type="line"/>
    </contour>
  </outline>
</glyph>
<glyph name="breve" format="2">
  <advance width="867"/>
  <unicode hex="02D8"/>
  <outline>
    <contour>
      <point x="597.907" y="1191.94" type="curve" smooth="yes"/>
      <point x="765.779" y="1191.94"/>
      <point x="913.875" y="1292.8"/>
      <point x="955.027" y="1465.98" type="curve"/>
      <point x="838.931" y="1465.98" type="line"/>
      <point x="814.355" y="1364.99"/>
      <point x="700.371" y="1292.16"/>
      <point x="599.187" y="1292.16" type="curve" smooth="yes"/>
      <point x="519.187" y="1292.16"/>
      <point x="452.947" y="1337.66"/>
      <point x="452.947" y="1426.24" type="curve" smooth="yes"/>
      <point x="452.947" y="1437.12"/>
      <point x="455.187" y="1450.24"/>
      <point x="458.259" y="1465.98" type="curve"/>
      <point x="342.163" y="1465.98" type="line"/>
      <point x="337.427" y="1446.21"/>
      <point x="334.355" y="1426.69"/>
      <point x="334.355" y="1402.56" type="curve" smooth="yes"/>
      <point x="334.355" y="1245.63"/>
      <point x="477.331" y="1191.94"/>
    </contour>
  </outline>
</glyph>
<glyph name="dotaccent" format="2">
  <advance width="542"/>
  <unicode hex="02D9"/>
  <outline>
    <contour>
      <point x="490.692" y="1191.94" type="line"/>
      <point x="531.972" y="1371.26" type="line"/>
      <point x="395.076" y="1371.26" type="line"/>
      <point x="352.58" y="1191.94" type="line"/>
    </contour>
  </outline>
</glyph>
<glyph name="ring" format="2">
  <advance width="652"/>
  <unicode hex="02DA"/>
  <outline>
    <contour>
      <point x="494.461" y="1191.94" type="curve" smooth="yes"/>
      <point x="616.957" y="1191.94"/>
      <point x="725.565" y="1304.13"/>
      <point x="725.565" y="1425.02" type="curve" smooth="yes"/>
      <point x="725.565" y="1516.61"/>
      <point x="653.117" y="1582.53"/>
      <point x="562.557" y="1582.53" type="curve" smooth="yes"/>
      <point x="442.493" y="1582.53"/>
      <point x="330.045" y="1468.93"/>
      <point x="330.045" y="1349.25" type="curve" smooth="yes"/>
      <point x="330.045" y="1250.56"/>
      <point x="399.229" y="1191.94"/>
    </contour>
    <contour>
      <point x="500.733" y="1282.3" type="curve" smooth="yes"/>
      <point x="447.933" y="1282.3"/>
      <point x="423.677" y="1313.6"/>
      <point x="423.677" y="1363.01" type="curve" smooth="yes"/>
      <point x="423.677" y="1433.47"/>
      <point x="486.397" y="1488.58"/>
      <point x="555.261" y="1488.58" type="curve" smooth="yes"/>
      <point x="598.205" y="1488.58"/>
      <point x="638.013" y="1460.93"/>
      <point x="638.013" y="1413.57" type="curve" smooth="yes"/>
      <point x="638.013" y="1343.23"/>
      <point x="566.397" y="1282.3"/>
    </contour>
  </outline>
</glyph>
